<svg xmlns="http://www.w3.org/2000/svg" viewBox="0 0 128 128" width="128" height="128" role="img">
<path fill="#000000" d="M20 8h88v1H20z M15 9h98v1H15z M14 10h100v1H14z M12 11h104v1H12z M11 12h106v1H11z M11 13h106v1H11z M10 14h108v1H10z M9 15h110v1H9z M9 16h110v1H9z M9 17h110v1H9z M9 18h110v1H9z M9 19h110v1H9z M8 20h112v1H8z M8 21h112v1H8z M8 22h112v1H8z M8 23h112v1H8z M8 24h112v1H8z M8 25h112v1H8z M8 26h112v1H8z M8 27h112v1H8z M8 28h112v1H8z M8 29h112v1H8z M8 30h112v1H8z M8 31h112v1H8z M8 32h112v1H8z M8 33h112v1H8z M8 34h112v1H8z M8 35h112v1H8z M8 36h112v1H8z M8 37h112v1H8z M8 38h112v1H8z M8 39h112v1H8z M8 40h112v1H8z M8 41h112v1H8z M8 42h112v1H8z M8 43h112v1H8z M8 44h112v1H8z M8 45h112v1H8z M8 46h112v1H8z M8 47h112v1H8z M8 48h112v1H8z M8 49h112v1H8z M8 50h112v1H8z M8 51h112v1H8z M8 52h112v1H8z M8 53h112v1H8z M8 54h112v1H8z M8 55h112v1H8z M8 56h112v1H8z M8 57h112v1H8z M8 58h112v1H8z M8 59h112v1H8z M8 60h112v1H8z M8 61h112v1H8z M8 62h112v1H8z M8 63h112v1H8z M8 64h112v1H8z M8 65h112v1H8z M8 66h112v1H8z M8 67h112v1H8z M8 68h112v1H8z M8 69h112v1H8z M8 70h112v1H8z M8 71h111v1H8z M8 72h111v1H8z M8 73h111v1H8z M8 74h111v1H8z M8 75h111v1H8z M8 76h75v1H8z M8 77h73v1H8z M8 78h72v1H8z M8 79h71v1H8z M8 80h70v1H8z M8 81h69v1H8z M8 82h69v1H8z M8 83h68v1H8z M8 84h68v1H8z M88 84h27v1H88z M8 85h68v1H8z M86 85h29v1H86z M8 86h68v1H8z M85 86h29v1H85z M8 87h68v1H8z M85 87h28v1H85z M8 88h68v1H8z M84 88h28v1H84z M8 89h68v1H8z M84 89h27v1H84z M8 90h68v1H8z M84 90h26v1H84z M8 91h68v1H8z M84 91h25v1H84z M8 92h68v1H8z M84 92h24v1H84z M8 93h68v1H8z M84 93h23v1H84z M8 94h68v1H8z M84 94h22v1H84z M8 95h68v1H8z M84 95h21v1H84z M8 96h68v1H8z M84 96h20v1H84z M8 97h68v1H8z M84 97h19v1H84z M8 98h68v1H8z M84 98h18v1H84z M8 99h68v1H8z M84 99h17v1H84z M8 100h68v1H8z M84 100h16v1H84z M8 101h68v1H8z M84 101h15v1H84z M8 102h68v1H8z M84 102h14v1H84z M8 103h68v1H8z M84 103h13v1H84z M8 104h68v1H8z M84 104h12v1H84z M8 105h68v1H8z M84 105h11v1H84z M8 106h68v1H8z M84 106h10v1H84z M8 107h68v1H8z M84 107h9v1H84z M9 108h67v1H9z M84 108h8v1H84z M9 109h67v1H9z M84 109h7v1H84z M9 110h67v1H9z M84 110h6v1H84z M9 111h67v1H9z M84 111h5v1H84z M9 112h67v1H9z M84 112h4v1H84z M10 113h66v1H10z M84 113h3v1H84z M11 114h65v1H11z M84 114h2v1H84z M11 115h65v1H11z M12 116h64v1H12z M14 117h62v1H14z M15 118h61v1H15z M20 119h51v1H20z"/>
<path fill="#000000" fill-opacity="0.941" d="M19 8h1v1H19z M108 8h1v1H108z M13 10h1v1H13z M114 10h1v1H114z M10 13h1v1H10z M117 13h1v1H117z M8 19h1v1H8z M119 19h1v1H119z M119 71h1v1H119z M87 84h1v1H87z M85 85h1v1H85z M84 87h1v1H84z M111 89h1v1H111z M110 90h1v1H110z M109 91h1v1H109z M108 92h1v1H108z M107 93h1v1H107z M106 94h1v1H106z M105 95h1v1H105z M104 96h1v1H104z M103 97h1v1H103z M102 98h1v1H102z M101 99h1v1H101z M100 100h1v1H100z M99 101h1v1H99z M98 102h1v1H98z M97 103h1v1H97z M96 104h1v1H96z M95 105h1v1H95z M94 106h1v1H94z M93 107h1v1H93z M8 108h1v1H8z M92 108h1v1H92z M91 109h1v1H91z M90 110h1v1H90z M89 111h1v1H89z M10 114h1v1H10z M13 117h1v1H13z M19 119h1v1H19z M71 119h1v1H71z"/>
<path fill="#000000" fill-opacity="0.188" d="M112 89h1v1H112z M111 90h1v1H111z M110 91h1v1H110z M109 92h1v1H109z M108 93h1v1H108z M107 94h1v1H107z M106 95h1v1H106z M105 96h1v1H105z M104 97h1v1H104z M103 98h1v1H103z M102 99h1v1H102z M101 100h1v1H101z M100 101h1v1H100z M99 102h1v1H99z M98 103h1v1H98z M97 104h1v1H97z M96 105h1v1H96z M95 106h1v1H95z M94 107h1v1H94z M93 108h1v1H93z M92 109h1v1H92z M91 110h1v1H91z M90 111h1v1H90z M89 112h1v1H89z"/>
<path fill="#000000" fill-opacity="0.125" d="M15 8h1v1H15z M112 8h1v1H112z M13 9h1v1H13z M114 9h1v1H114z M9 13h1v1H9z M118 13h1v1H118z M8 15h1v1H8z M119 15h1v1H119z M86 76h1v1H86z M85 84h1v1H85z M84 85h1v1H84z M76 86h1v1H76z M113 88h1v1H113z M8 112h1v1H8z M88 113h1v1H88z M9 114h1v1H9z M15 119h1v1H15z"/>
<path fill="#000000" fill-opacity="0.878" d="M8 18h1v1H8z M119 72h1v1H119z M83 76h1v1H83z M81 77h1v1H81z M77 81h1v1H77z M76 83h1v1H76z M115 84h1v1H115z M112 88h1v1H112z M8 109h1v1H8z M88 112h1v1H88z M84 115h1v1H84z M72 119h1v1H72z"/>
<path fill="#000000" fill-opacity="0.690" d="M17 8h1v1H17z M110 8h1v1H110z M8 17h1v1H8z M119 17h1v1H119z M80 78h1v1H80z M78 80h1v1H78z M86 84h1v1H86z M84 86h1v1H84z M8 110h1v1H8z M17 119h1v1H17z"/>
<path fill="#000000" fill-opacity="0.439" d="M16 8h1v1H16z M111 8h1v1H111z M11 11h1v1H11z M116 11h1v1H116z M8 16h1v1H8z M119 75h1v1H119z M8 111h1v1H8z M11 116h1v1H11z M75 119h1v1H75z"/>
<path fill="#000000" fill-opacity="0.627" d="M14 9h1v1H14z M113 9h1v1H113z M9 14h1v1H9z M119 74h1v1H119z M114 86h1v1H114z M9 113h1v1H9z M86 114h1v1H86z M74 119h1v1H74z"/>
<path fill="#000000" fill-opacity="0.314" d="M12 10h1v1H12z M115 10h1v1H115z M117 12h1v1H117z M85 76h1v1H85z M76 85h1v1H76z M85 115h1v1H85z M12 117h1v1H12z"/>
<path fill="#000000" fill-opacity="0.816" d="M18 8h1v1H18z M109 8h1v1H109z M119 18h1v1H119z M113 87h1v1H113z M87 113h1v1H87z M18 119h1v1H18z"/>
<path fill="#000000" fill-opacity="0.565" d="M118 14h1v1H118z M84 76h1v1H84z M79 79h1v1H79z M76 84h1v1H76z"/>
<path fill="#000000" fill-opacity="0.376" d="M119 16h1v1H119z M82 77h1v1H82z M77 82h1v1H77z M16 119h1v1H16z"/>
<path fill="#000000" fill-opacity="0.251" d="M10 12h1v1H10z M115 85h1v1H115z M10 115h1v1H10z"/>
<path fill="#000000" fill-opacity="0.753" d="M119 73h1v1H119z M73 119h1v1H73z"/>
<path fill="#000000" fill-opacity="0.502" d="M14 118h1v1H14z"/>
</svg>
