<svg xmlns="http://www.w3.org/2000/svg" viewBox="0 0 128 128" width="128" height="128" role="img">
<path fill="#000000" d="M19 0h91v1H19z M15 1h99v1H15z M13 2h103v1H13z M12 3h105v1H12z M11 4h107v1H11z M10 5h108v1H10z M10 6h109v1H10z M9 7h16v1H9z M29 7h71v1H29z M104 7h15v1H104z M9 8h15v1H9z M30 8h69v1H30z M105 8h15v1H105z M9 9h14v1H9z M31 9h67v1H31z M106 9h14v1H106z M9 10h14v1H9z M31 10h67v1H31z M106 10h14v1H106z M9 11h14v1H9z M31 11h67v1H31z M106 11h14v1H106z M9 12h14v1H9z M31 12h67v1H31z M106 12h14v1H106z M9 13h14v1H9z M30 13h68v1H30z M105 13h15v1H105z M9 14h15v1H9z M30 14h69v1H30z M105 14h15v1H105z M9 15h111v1H9z M9 16h111v1H9z M9 17h111v1H9z M9 18h111v1H9z M9 19h111v1H9z M9 20h111v1H9z M9 21h111v1H9z M8 31h112v1H8z M6 32h116v1H6z M5 33h118v1H5z M3 34h122v1H3z M3 35h122v1H3z M2 36h124v1H2z M2 37h124v1H2z M1 38h126v1H1z M1 39h126v1H1z M1 40h126v1H1z M1 41h126v1H1z M1 42h126v1H1z M1 43h126v1H1z M1 44h126v1H1z M1 45h126v1H1z M1 46h126v1H1z M2 47h124v1H2z M2 48h124v1H2z M2 49h124v1H2z M2 50h124v1H2z M2 51h124v1H2z M3 52h122v1H3z M3 53h41v1H3z M54 53h30v1H54z M89 53h36v1H89z M3 54h38v1H3z M57 54h25v1H57z M90 54h35v1H90z M3 55h37v1H3z M58 55h23v1H58z M91 55h34v1H91z M3 56h36v1H3z M59 56h20v1H59z M91 56h34v1H91z M4 57h34v1H4z M60 57h18v1H60z M91 57h33v1H91z M4 58h33v1H4z M61 58h15v1H61z M91 58h33v1H91z M4 59h32v1H4z M62 59h13v1H62z M91 59h33v1H91z M4 60h31v1H4z M63 60h10v1H63z M91 60h33v1H91z M4 61h31v1H4z M46 61h6v1H46z M63 61h9v1H63z M91 61h33v1H91z M5 62h30v1H5z M45 62h8v1H45z M63 62h8v1H63z M91 62h32v1H91z M5 63h29v1H5z M44 63h10v1H44z M64 63h7v1H64z M91 63h32v1H91z M5 64h29v1H5z M43 64h12v1H43z M64 64h7v1H64z M91 64h32v1H91z M5 65h29v1H5z M42 65h14v1H42z M64 65h7v1H64z M81 65h1v1H81z M91 65h32v1H91z M6 66h29v1H6z M42 66h14v1H42z M64 66h8v1H64z M80 66h2v1H80z M91 66h31v1H91z M6 67h30v1H6z M41 67h15v1H41z M64 67h8v1H64z M78 67h4v1H78z M91 67h31v1H91z M6 68h50v1H6z M64 68h18v1H64z M91 68h31v1H91z M6 69h50v1H6z M64 69h18v1H64z M91 69h31v1H91z M6 70h50v1H6z M64 70h18v1H64z M91 70h31v1H91z M7 71h48v1H7z M64 71h18v1H64z M91 71h30v1H91z M7 72h47v1H7z M64 72h18v1H64z M91 72h30v1H91z M7 73h46v1H7z M63 73h19v1H63z M91 73h30v1H91z M7 74h45v1H7z M63 74h19v1H63z M91 74h30v1H91z M28 75h14v1H28z M63 75h19v1H63z M91 75h9v1H91z M30 76h11v1H30z M62 76h20v1H62z M91 76h7v1H91z M30 77h10v1H30z M61 77h21v1H61z M91 77h7v1H91z M31 78h9v1H31z M60 78h22v1H60z M91 78h6v1H91z M31 79h9v1H31z M60 79h22v1H60z M91 79h6v1H91z M31 80h9v1H31z M61 80h21v1H61z M91 80h6v1H91z M30 81h11v1H30z M62 81h20v1H62z M91 81h7v1H91z M29 82h13v1H29z M62 82h20v1H62z M91 82h8v1H91z M7 83h42v1H7z M63 83h19v1H63z M91 83h30v1H91z M7 84h46v1H7z M63 84h19v1H63z M91 84h30v1H91z M7 85h47v1H7z M64 85h18v1H64z M91 85h30v1H91z M7 86h48v1H7z M64 86h18v1H64z M91 86h30v1H91z M6 87h49v1H6z M64 87h18v1H64z M91 87h31v1H91z M6 88h50v1H6z M64 88h18v1H64z M91 88h31v1H91z M6 89h50v1H6z M64 89h18v1H64z M91 89h31v1H91z M6 90h30v1H6z M40 90h16v1H40z M64 90h18v1H64z M91 90h31v1H91z M6 91h29v1H6z M42 91h14v1H42z M64 91h18v1H64z M91 91h31v1H91z M5 92h30v1H5z M42 92h14v1H42z M64 92h18v1H64z M91 92h32v1H91z M5 93h29v1H5z M43 93h12v1H43z M64 93h18v1H64z M91 93h32v1H91z M5 94h29v1H5z M43 94h12v1H43z M64 94h18v1H64z M91 94h32v1H91z M5 95h29v1H5z M44 95h10v1H44z M64 95h18v1H64z M91 95h32v1H91z M5 96h30v1H5z M45 96h7v1H45z M63 96h19v1H63z M91 96h32v1H91z M4 97h31v1H4z M63 97h19v1H63z M91 97h33v1H91z M4 98h32v1H4z M62 98h20v1H62z M91 98h33v1H91z M4 99h32v1H4z M62 99h20v1H62z M91 99h33v1H91z M4 100h33v1H4z M61 100h21v1H61z M91 100h33v1H91z M4 101h34v1H4z M60 101h22v1H60z M91 101h33v1H91z M3 102h36v1H3z M59 102h23v1H59z M91 102h34v1H91z M3 103h38v1H3z M57 103h26v1H57z M90 103h35v1H90z M3 104h39v1H3z M56 104h27v1H56z M90 104h35v1H90z M3 105h42v1H3z M53 105h32v1H53z M88 105h37v1H88z M2 106h124v1H2z M2 107h124v1H2z M2 108h124v1H2z M2 109h124v1H2z M2 110h124v1H2z M1 111h126v1H1z M1 112h126v1H1z M1 113h126v1H1z M1 114h126v1H1z M1 115h126v1H1z M1 116h126v1H1z M1 117h126v1H1z M1 118h126v1H1z M1 119h126v1H1z M1 120h126v1H1z M2 121h124v1H2z M2 122h124v1H2z M3 123h122v1H3z M4 124h120v1H4z M5 125h118v1H5z M7 126h114v1H7z M11 127h106v1H11z"/>
<path fill="#000000" fill-opacity="0.753" d="M111 0h1v1H111z M114 1h1v1H114z M9 6h1v1H9z M8 10h1v1H8z M7 31h1v1H7z M120 31h1v1H120z M0 43h1v1H0z M127 43h1v1H127z M1 48h1v1H1z M126 48h1v1H126z M53 53h1v1H53z M90 57h1v1H90z M90 58h1v1H90z M90 59h1v1H90z M90 60h1v1H90z M90 61h1v1H90z M90 62h1v1H90z M34 63h1v1H34z M63 63h1v1H63z M90 63h1v1H90z M90 64h1v1H90z M71 65h1v1H71z M80 65h1v1H80z M82 65h1v1H82z M90 65h1v1H90z M82 66h1v1H82z M90 66h1v1H90z M5 67h1v1H5z M40 67h1v1H40z M77 67h1v1H77z M82 67h1v1H82z M90 67h1v1H90z M122 67h1v1H122z M82 68h1v1H82z M90 68h1v1H90z M82 69h1v1H82z M90 69h1v1H90z M82 70h1v1H82z M90 70h1v1H90z M82 71h1v1H82z M90 71h1v1H90z M6 72h1v1H6z M82 72h1v1H82z M90 72h1v1H90z M121 72h1v1H121z M82 73h1v1H82z M90 73h1v1H90z M82 74h1v1H82z M90 74h1v1H90z M82 75h1v1H82z M90 75h1v1H90z M41 76h1v1H41z M82 76h1v1H82z M90 76h1v1H90z M82 77h1v1H82z M90 77h1v1H90z M82 78h1v1H82z M90 78h1v1H90z M30 79h1v1H30z M59 79h1v1H59z M82 79h1v1H82z M90 79h1v1H90z M97 79h1v1H97z M82 80h1v1H82z M90 80h1v1H90z M82 81h1v1H82z M90 81h1v1H90z M82 82h1v1H82z M90 82h1v1H90z M62 83h1v1H62z M82 83h1v1H82z M90 83h1v1H90z M82 84h1v1H82z M90 84h1v1H90z M82 85h1v1H82z M90 85h1v1H90z M82 86h1v1H82z M90 86h1v1H90z M82 87h1v1H82z M90 87h1v1H90z M82 88h1v1H82z M90 88h1v1H90z M82 89h1v1H82z M90 89h1v1H90z M39 90h1v1H39z M82 90h1v1H82z M90 90h1v1H90z M82 91h1v1H82z M90 91h1v1H90z M82 92h1v1H82z M90 92h1v1H90z M34 93h1v1H34z M82 93h1v1H82z M90 93h1v1H90z M82 94h1v1H82z M90 94h1v1H90z M82 95h1v1H82z M90 95h1v1H90z M123 95h1v1H123z M82 96h1v1H82z M90 96h1v1H90z M35 97h1v1H35z M82 97h1v1H82z M90 97h1v1H90z M82 98h1v1H82z M90 98h1v1H90z M82 99h1v1H82z M90 99h1v1H90z M3 100h1v1H3z M82 100h1v1H82z M90 100h1v1H90z M124 100h1v1H124z M38 101h1v1H38z M59 101h1v1H59z M82 101h1v1H82z M90 101h1v1H90z M46 105h1v1H46z M51 105h1v1H51z M127 115h1v1H127z M0 118h1v1H0z M124 124h1v1H124z"/>
<path fill="#000000" fill-opacity="0.878" d="M18 0h1v1H18z M110 0h1v1H110z M28 7h1v1H28z M103 7h1v1H103z M24 14h1v1H24z M99 14h1v1H99z M2 35h1v1H2z M125 35h1v1H125z M0 41h1v1H0z M127 41h1v1H127z M2 52h1v1H2z M125 52h1v1H125z M82 54h1v1H82z M79 56h1v1H79z M3 57h1v1H3z M124 57h1v1H124z M76 58h1v1H76z M73 60h1v1H73z M44 62h1v1H44z M53 62h1v1H53z M43 63h1v1H43z M54 63h1v1H54z M34 65h1v1H34z M54 72h1v1H54z M53 73h1v1H53z M29 76h1v1H29z M98 76h1v1H98z M30 78h1v1H30z M97 78h1v1H97z M63 85h1v1H63z M5 91h1v1H5z M122 91h1v1H122z M42 93h1v1H42z M34 95h1v1H34z M39 102h1v1H39z M58 102h1v1H58z M82 102h1v1H82z M90 102h1v1H90z M83 104h1v1H83z M89 104h1v1H89z M1 110h1v1H1z M126 110h1v1H126z M0 116h1v1H0z M0 117h1v1H0z M127 117h1v1H127z M6 126h1v1H6z M121 126h1v1H121z M10 127h1v1H10z M117 127h1v1H117z"/>
<path fill="#000000" fill-opacity="0.816" d="M17 0h1v1H17z M14 1h1v1H14z M25 7h1v1H25z M100 7h1v1H100z M30 9h1v1H30z M105 9h1v1H105z M8 11h1v1H8z M8 12h1v1H8z M8 13h1v1H8z M8 14h1v1H8z M8 15h1v1H8z M8 16h1v1H8z M8 17h1v1H8z M8 18h1v1H8z M8 19h1v1H8z M8 20h1v1H8z M8 21h1v1H8z M5 32h1v1H5z M122 32h1v1H122z M0 40h1v1H0z M127 40h1v1H127z M0 42h1v1H0z M127 42h1v1H127z M90 56h1v1H90z M4 62h1v1H4z M123 62h1v1H123z M40 80h1v1H40z M60 80h1v1H60z M50 83h1v1H50z M6 86h1v1H6z M121 86h1v1H121z M55 87h1v1H55z M35 91h1v1H35z M55 93h1v1H55z M47 97h1v1H47z M50 97h1v1H50z M62 97h1v1H62z M37 100h1v1H37z M60 100h1v1H60z M2 105h1v1H2z M125 105h1v1H125z M0 115h1v1H0z M127 116h1v1H127z M1 121h1v1H1z M126 121h1v1H126z M9 127h1v1H9z M118 127h1v1H118z"/>
<path fill="#000000" fill-opacity="0.941" d="M118 5h1v1H118z M119 7h1v1H119z M23 13h1v1H23z M98 13h1v1H98z M29 14h1v1H29z M104 14h1v1H104z M4 33h1v1H4z M123 33h1v1H123z M1 37h1v1H1z M126 37h1v1H126z M1 47h1v1H1z M126 47h1v1H126z M41 54h1v1H41z M56 54h1v1H56z M90 55h1v1H90z M35 60h1v1H35z M62 60h1v1H62z M71 62h1v1H71z M5 66h1v1H5z M79 66h1v1H79z M122 66h1v1H122z M72 67h1v1H72z M6 71h1v1H6z M121 71h1v1H121z M42 75h1v1H42z M62 75h1v1H62z M40 77h1v1H40z M30 80h1v1H30z M97 80h1v1H97z M61 81h1v1H61z M49 83h1v1H49z M36 90h1v1H36z M41 91h1v1H41z M63 95h1v1H63z M4 96h1v1H4z M52 96h1v1H52z M123 96h1v1H123z M48 97h2v1H48z M36 99h1v1H36z M61 99h1v1H61z M3 101h1v1H3z M124 101h1v1H124z M42 104h1v1H42z M55 104h1v1H55z M45 105h1v1H45z M52 105h1v1H52z"/>
<path fill="#000000" fill-opacity="0.565" d="M16 0h1v1H16z M119 6h1v1H119z M26 7h2v1H26z M101 7h2v1H101z M30 12h1v1H30z M105 12h1v1H105z M0 44h1v1H0z M127 44h1v1H127z M55 54h1v1H55z M89 54h1v1H89z M81 55h1v1H81z M78 57h1v1H78z M75 59h1v1H75z M52 61h1v1H52z M62 61h1v1H62z M55 64h1v1H55z M71 64h1v1H71z M36 67h1v1H36z M5 68h1v1H5z M122 68h1v1H122z M55 71h1v1H55z M52 74h1v1H52z M29 81h1v1H29z M98 81h1v1H98z M42 82h1v1H42z M51 83h1v1H51z M54 85h1v1H54z M63 86h1v1H63z M38 90h1v1H38z M43 95h1v1H43z M46 97h1v1H46z M3 99h1v1H3z M124 99h1v1H124z M41 103h1v1H41z M56 103h1v1H56z M54 104h1v1H54z M48 105h1v1H48z M50 105h1v1H50z M0 119h1v1H0z M127 119h1v1H127z M119 127h1v1H119z"/>
<path fill="#000000" fill-opacity="0.251" d="M15 0h1v1H15z M13 1h1v1H13z M23 10h1v1H23z M98 10h1v1H98z M3 33h1v1H3z M124 33h1v1H124z M2 34h1v1H2z M125 34h1v1H125z M46 53h1v1H46z M51 53h1v1H51z M83 54h1v1H83z M125 55h1v1H125z M80 56h1v1H80z M77 58h1v1H77z M3 60h1v1H3z M74 60h1v1H74z M124 60h1v1H124z M63 65h1v1H63z M39 67h1v1H39z M76 67h1v1H76z M63 70h1v1H63z M29 77h1v1H29z M98 77h1v1H98z M62 84h1v1H62z M5 88h1v1H5z M122 88h1v1H122z M40 91h1v1H40z M83 103h1v1H83z M89 103h1v1H89z M44 104h1v1H44z M53 104h1v1H53z M1 107h1v1H1z M126 107h1v1H126z M0 112h1v1H0z M127 112h1v1H127z M0 120h1v1H0z M1 122h1v1H1z M7 127h1v1H7z M120 127h1v1H120z"/>
<path fill="#000000" fill-opacity="0.627" d="M29 8h1v1H29z M104 8h1v1H104z M8 9h1v1H8z M120 10h1v1H120z M1 36h1v1H1z M126 36h1v1H126z M0 39h1v1H0z M127 39h1v1H127z M84 53h1v1H84z M88 53h1v1H88z M3 58h1v1H3z M124 58h1v1H124z M45 61h1v1H45z M4 63h1v1H4z M71 63h1v1H71z M123 63h1v1H123z M42 64h1v1H42z M41 66h1v1H41z M27 75h1v1H27z M43 75h1v1H43z M100 75h1v1H100z M40 79h1v1H40z M99 82h1v1H99z M6 85h1v1H6z M121 85h1v1H121z M37 90h1v1H37z M63 94h1v1H63z M2 104h1v1H2z M43 104h1v1H43z M125 104h1v1H125z M47 105h1v1H47z M85 105h1v1H85z M1 109h1v1H1z M126 109h1v1H126z M2 123h1v1H2z M125 123h1v1H125z M4 125h1v1H4z M123 125h1v1H123z M8 127h1v1H8z"/>
<path fill="#000000" fill-opacity="0.125" d="M119 5h1v1H119z M8 7h1v1H8z M8 30h1v1H8z M119 30h1v1H119z M127 46h1v1H127z M1 51h1v1H1z M126 51h1v1H126z M47 53h1v1H47z M43 54h1v1H43z M41 55h1v1H41z M56 55h1v1H56z M36 60h1v1H36z M61 60h1v1H61z M35 62h1v1H35z M41 65h1v1H41z M79 65h1v1H79z M37 67h1v1H37z M74 67h1v1H74z M5 70h1v1H5z M122 70h1v1H122z M42 76h1v1H42z M41 77h1v1H41z M60 81h1v1H60z M43 82h1v1H43z M52 83h1v1H52z M63 88h1v1H63z M4 92h1v1H4z M35 92h1v1H35z M63 92h1v1H63z M123 92h1v1H123z M3 97h1v1H3z M45 97h1v1H45z M52 97h1v1H52z M124 97h1v1H124z M37 99h1v1H37z M60 99h1v1H60z M58 101h1v1H58z M55 103h1v1H55z"/>
<path fill="#000000" fill-opacity="0.690" d="M11 3h1v1H11z M23 9h1v1H23z M98 9h1v1H98z M120 11h1v1H120z M120 12h1v1H120z M120 13h1v1H120z M120 14h1v1H120z M120 15h1v1H120z M120 16h1v1H120z M120 17h1v1H120z M120 18h1v1H120z M120 19h1v1H120z M120 20h1v1H120z M120 21h1v1H120z M2 53h1v1H2z M44 53h1v1H44z M125 53h1v1H125z M40 55h1v1H40z M57 55h1v1H57z M36 59h1v1H36z M61 59h1v1H61z M72 61h1v1H72z M34 64h1v1H34z M82 64h1v1H82z M63 72h1v1H63z M61 76h1v1H61z M40 78h1v1H40z M28 82h1v1H28z M5 90h1v1H5z M122 90h1v1H122z M34 94h1v1H34z M4 95h1v1H4z M87 105h1v1H87z M0 114h1v1H0z M127 114h1v1H127z M127 118h1v1H127z M3 124h1v1H3z"/>
<path fill="#000000" fill-opacity="0.502" d="M112 0h1v1H112z M12 2h1v1H12z M117 3h1v1H117z M10 4h1v1H10z M24 8h1v1H24z M99 8h1v1H99z M120 9h1v1H120z M9 22h111v1H9z M1 49h1v1H1z M126 49h1v1H126z M2 54h1v1H2z M42 54h1v1H42z M125 54h1v1H125z M58 56h1v1H58z M60 58h1v1H60z M35 61h1v1H35z M35 66h1v1H35z M73 67h1v1H73z M6 73h1v1H6z M121 73h1v1H121z M62 74h1v1H62z M7 75h20v1H7z M44 75h5v1H44z M101 75h20v1H101z M5 89h1v1H5z M122 89h1v1H122z M56 90h1v1H56z M4 94h1v1H4z M123 94h1v1H123z M54 95h1v1H54z M51 97h1v1H51z M49 105h1v1H49z M86 105h1v1H86z M0 113h1v1H0z M127 113h1v1H127z"/>
<path fill="#000000" fill-opacity="0.439" d="M116 2h1v1H116z M8 8h1v1H8z M30 10h1v1H30z M105 10h1v1H105z M23 12h1v1H23z M98 12h1v1H98z M8 22h1v1H8z M10 30h108v1H10z M0 38h1v1H0z M127 38h1v1H127z M45 53h1v1H45z M52 53h1v1H52z M39 56h1v1H39z M37 58h1v1H37z M3 59h1v1H3z M124 59h1v1H124z M48 60h2v1H48z M63 64h1v1H63z M81 64h1v1H81z M78 66h1v1H78z M56 67h1v1H56z M56 68h1v1H56z M63 71h1v1H63z M49 75h1v1H49z M60 77h1v1H60z M41 81h1v1H41z M6 84h1v1H6z M53 84h1v1H53z M121 84h1v1H121z M44 96h1v1H44z M53 96h1v1H53z M1 108h1v1H1z M126 108h1v1H126z"/>
<path fill="#000000" fill-opacity="0.188" d="M113 0h1v1H113z M115 1h1v1H115z M9 5h1v1H9z M23 11h1v1H23z M98 11h1v1H98z M29 13h1v1H29z M104 13h1v1H104z M4 32h1v1H4z M123 32h1v1H123z M0 46h1v1H0z M85 53h1v1H85z M87 53h1v1H87z M43 62h1v1H43z M54 62h1v1H54z M4 65h1v1H4z M123 65h1v1H123z M54 73h1v1H54z M28 76h1v1H28z M99 76h1v1H99z M27 82h1v1H27z M100 82h1v1H100z M6 83h1v1H6z M121 83h1v1H121z M56 88h1v1H56z M56 92h1v1H56z M2 102h1v1H2z M40 102h1v1H40z M57 102h1v1H57z M125 102h1v1H125z M84 104h1v1H84z M88 104h1v1H88z M127 120h1v1H127z"/>
<path fill="#000000" fill-opacity="0.314" d="M120 8h1v1H120z M25 14h1v1H25z M100 14h1v1H100z M9 30h1v1H9z M118 30h1v1H118z M1 50h1v1H1z M126 50h1v1H126z M2 55h1v1H2z M38 57h1v1H38z M47 60h1v1H47z M50 60h1v1H50z M56 66h1v1H56z M72 66h1v1H72z M56 69h1v1H56z M6 74h1v1H6z M121 74h1v1H121z M50 75h1v1H50z M61 82h1v1H61z M55 86h1v1H55z M63 87h1v1H63z M41 92h1v1H41z M4 93h1v1H4z M63 93h1v1H63z M123 93h1v1H123z M42 94h1v1H42z M55 94h1v1H55z M35 96h1v1H35z M62 96h1v1H62z M126 122h1v1H126z M5 126h1v1H5z M122 126h1v1H122z"/>
<path fill="#000000" fill-opacity="0.376" d="M118 4h1v1H118z M30 11h1v1H30z M105 11h1v1H105z M28 14h1v1H28z M103 14h1v1H103z M120 22h1v1H120z M6 31h1v1H6z M121 31h1v1H121z M0 45h1v1H0z M127 45h1v1H127z M59 57h1v1H59z M4 64h1v1H4z M123 64h1v1H123z M5 69h1v1H5z M122 69h1v1H122z M59 78h1v1H59z M56 89h1v1H56z M56 91h1v1H56z M3 98h1v1H3z M36 98h1v1H36z M61 98h1v1H61z M124 98h1v1H124z M2 103h1v1H2z M125 103h1v1H125z"/>
</svg>
