<svg xmlns="http://www.w3.org/2000/svg" viewBox="0 0 128 128" width="128" height="128" role="img">
<path fill="#000000" fill-opacity="0.690" d="M17 16h1v1H17z M110 16h1v1H110z M17 17h1v1H17z M110 17h1v1H110z M17 18h1v1H17z M110 18h1v1H110z M17 19h1v1H17z M110 19h1v1H110z M17 20h1v1H17z M110 20h1v1H110z M17 21h1v1H17z M110 21h1v1H110z M17 22h1v1H17z M110 22h1v1H110z M17 23h1v1H17z M110 23h1v1H110z M17 24h1v1H17z M110 24h1v1H110z M17 25h1v1H17z M110 25h1v1H110z M17 26h1v1H17z M110 26h1v1H110z M17 27h1v1H17z M110 27h1v1H110z M17 28h1v1H17z M40 28h1v1H40z M87 28h1v1H87z M110 28h1v1H110z M17 29h1v1H17z M110 29h1v1H110z M17 30h1v1H17z M110 30h1v1H110z M17 31h1v1H17z M110 31h1v1H110z M17 32h1v1H17z M110 32h1v1H110z M17 33h1v1H17z M110 33h1v1H110z M17 34h1v1H17z M110 34h1v1H110z M17 35h1v1H17z M87 35h1v1H87z M110 35h1v1H110z M17 36h1v1H17z M110 36h1v1H110z M17 37h1v1H17z M110 37h1v1H110z M17 38h1v1H17z M110 38h1v1H110z M17 39h1v1H17z M110 39h1v1H110z M17 40h1v1H17z M110 40h1v1H110z M17 41h1v1H17z M110 41h1v1H110z M17 42h1v1H17z M110 42h1v1H110z M17 43h1v1H17z M110 43h1v1H110z M17 44h1v1H17z M110 44h1v1H110z M17 45h1v1H17z M110 45h1v1H110z M17 46h1v1H17z M110 46h1v1H110z M17 47h1v1H17z M110 47h1v1H110z M17 48h1v1H17z M110 48h1v1H110z M17 49h1v1H17z M110 49h1v1H110z M17 50h1v1H17z M110 50h1v1H110z M17 51h1v1H17z M110 51h1v1H110z M17 52h1v1H17z M110 52h1v1H110z M17 53h1v1H17z M38 53h1v1H38z M89 53h1v1H89z M110 53h1v1H110z M17 54h1v1H17z M110 54h1v1H110z M17 55h1v1H17z M110 55h1v1H110z M17 56h1v1H17z M110 56h1v1H110z M17 57h1v1H17z M42 57h44v1H42z M110 57h1v1H110z M17 58h1v1H17z M110 58h1v1H110z M17 59h1v1H17z M110 59h1v1H110z M17 60h1v1H17z M110 60h1v1H110z M17 61h1v1H17z M110 61h1v1H110z M17 62h1v1H17z M110 62h1v1H110z M17 63h1v1H17z M110 63h1v1H110z M17 64h1v1H17z M110 64h1v1H110z M17 65h1v1H17z M110 65h1v1H110z M17 66h1v1H17z M110 66h1v1H110z M17 67h1v1H17z M110 67h1v1H110z M17 68h1v1H17z M110 68h1v1H110z M17 69h1v1H17z M110 69h1v1H110z M17 70h1v1H17z M42 70h22v1H42z M110 70h1v1H110z M17 71h1v1H17z M110 71h1v1H110z M17 72h1v1H17z M67 72h1v1H67z M110 72h1v1H110z M17 73h1v1H17z M110 73h1v1H110z M17 74h1v1H17z M38 74h1v1H38z M110 74h1v1H110z M17 75h1v1H17z M110 75h1v1H110z M17 76h1v1H17z M110 76h1v1H110z M17 77h1v1H17z M110 77h1v1H110z M17 78h1v1H17z M110 78h1v1H110z M17 79h1v1H17z M110 79h1v1H110z M17 80h1v1H17z M110 80h1v1H110z M17 81h1v1H17z M110 81h1v1H110z M17 82h1v1H17z M110 82h1v1H110z M17 83h1v1H17z M110 83h1v1H110z M17 84h1v1H17z M110 84h1v1H110z M17 85h1v1H17z M110 85h1v1H110z M17 86h1v1H17z M110 86h1v1H110z M17 87h1v1H17z M110 87h1v1H110z M17 88h1v1H17z M110 88h1v1H110z M17 89h1v1H17z M110 89h1v1H110z M17 90h1v1H17z M110 90h1v1H110z M17 91h1v1H17z M110 91h1v1H110z M17 92h1v1H17z M110 92h1v1H110z M17 93h1v1H17z M110 93h1v1H110z M17 94h1v1H17z M110 94h1v1H110z M17 95h1v1H17z M110 95h1v1H110z M17 96h1v1H17z M110 96h1v1H110z M17 97h1v1H17z M110 97h1v1H110z M17 98h1v1H17z M110 98h1v1H110z M17 99h1v1H17z M110 99h1v1H110z M17 100h1v1H17z M110 100h1v1H110z M17 101h1v1H17z M110 101h1v1H110z M17 102h1v1H17z M110 102h1v1H110z M17 103h1v1H17z M110 103h1v1H110z M17 104h1v1H17z M110 104h1v1H110z M17 105h1v1H17z M110 105h1v1H110z M17 106h1v1H17z M110 106h1v1H110z M17 107h1v1H17z M110 107h1v1H110z M17 108h1v1H17z M110 108h1v1H110z M17 109h1v1H17z M110 109h1v1H110z M17 110h1v1H17z M110 110h1v1H110z M17 111h1v1H17z M110 111h1v1H110z M17 112h1v1H17z M38 112h1v1H38z M110 112h1v1H110z M17 113h1v1H17z M110 113h1v1H110z M17 114h1v1H17z M110 114h1v1H110z M17 115h1v1H17z M110 115h1v1H110z M17 116h1v1H17z M110 116h1v1H110z M57 117h1v1H57z M70 117h1v1H70z M23 120h1v1H23z M104 120h1v1H104z"/>
<path fill="#000000" d="M24 7h80v1H24z M22 8h84v1H22z M21 9h86v1H21z M20 10h88v1H20z M19 11h90v1H19z M19 12h90v1H19z M18 13h92v1H18z M18 14h92v1H18z M18 15h92v1H18z M18 16h92v1H18z M18 17h92v1H18z M18 18h92v1H18z M18 19h92v1H18z M18 20h92v1H18z M18 21h92v1H18z M18 22h92v1H18z M18 23h92v1H18z M18 24h92v1H18z M18 25h92v1H18z M18 26h92v1H18z M18 27h92v1H18z M18 28h22v1H18z M88 28h22v1H88z M18 29h21v1H18z M89 29h21v1H89z M18 30h20v1H18z M90 30h20v1H90z M18 31h20v1H18z M90 31h20v1H90z M18 32h20v1H18z M90 32h20v1H90z M18 33h20v1H18z M90 33h20v1H90z M18 34h21v1H18z M89 34h21v1H89z M18 35h22v1H18z M88 35h22v1H88z M18 36h92v1H18z M18 37h92v1H18z M18 38h92v1H18z M18 39h92v1H18z M18 40h92v1H18z M18 41h92v1H18z M18 42h92v1H18z M18 43h92v1H18z M18 44h92v1H18z M18 45h92v1H18z M18 46h92v1H18z M18 47h92v1H18z M18 48h92v1H18z M18 49h22v1H18z M88 49h22v1H88z M18 50h21v1H18z M89 50h21v1H89z M18 51h21v1H18z M89 51h21v1H89z M18 52h20v1H18z M90 52h20v1H90z M18 53h20v1H18z M90 53h20v1H90z M18 54h20v1H18z M90 54h20v1H90z M18 55h21v1H18z M89 55h21v1H89z M18 56h21v1H18z M89 56h21v1H89z M18 57h23v1H18z M87 57h23v1H87z M18 58h92v1H18z M18 59h92v1H18z M18 60h92v1H18z M18 61h92v1H18z M18 62h92v1H18z M18 63h92v1H18z M18 64h92v1H18z M18 65h92v1H18z M18 66h92v1H18z M18 67h92v1H18z M18 68h92v1H18z M18 69h92v1H18z M18 70h23v1H18z M66 70h44v1H66z M18 71h21v1H18z M67 71h43v1H67z M18 72h21v1H18z M68 72h42v1H68z M18 73h20v1H18z M68 73h42v1H68z M18 74h20v1H18z M68 74h42v1H68z M18 75h20v1H18z M68 75h42v1H68z M18 76h21v1H18z M68 76h42v1H68z M18 77h21v1H18z M68 77h42v1H68z M18 78h22v1H18z M66 78h44v1H66z M18 79h92v1H18z M18 80h92v1H18z M18 81h92v1H18z M18 82h92v1H18z M18 83h92v1H18z M18 84h92v1H18z M18 85h92v1H18z M18 86h92v1H18z M18 87h92v1H18z M18 88h92v1H18z M18 89h92v1H18z M18 90h92v1H18z M18 91h92v1H18z M18 92h92v1H18z M18 93h92v1H18z M18 94h92v1H18z M18 95h92v1H18z M18 96h92v1H18z M18 97h92v1H18z M18 98h92v1H18z M18 99h92v1H18z M18 100h92v1H18z M18 101h92v1H18z M18 102h92v1H18z M18 103h92v1H18z M18 104h92v1H18z M18 105h92v1H18z M18 106h92v1H18z M18 107h92v1H18z M18 108h92v1H18z M18 109h92v1H18z M18 110h92v1H18z M18 111h18v1H18z M38 111h52v1H38z M92 111h18v1H92z M18 112h17v1H18z M39 112h24v1H39z M65 112h24v1H65z M93 112h17v1H93z M18 113h15v1H18z M41 113h20v1H41z M67 113h20v1H67z M95 113h15v1H95z M18 114h14v1H18z M42 114h18v1H42z M68 114h18v1H68z M96 114h14v1H96z M18 115h12v1H18z M43 115h16v1H43z M69 115h16v1H69z M98 115h12v1H98z M18 116h11v1H18z M45 116h13v1H45z M70 116h13v1H70z M99 116h11v1H99z M18 117h9v1H18z M46 117h11v1H46z M71 117h11v1H71z M101 117h9v1H101z M18 118h8v1H18z M47 118h9v1H47z M72 118h9v1H72z M102 118h8v1H102z M19 119h5v1H19z M49 119h6v1H49z M73 119h6v1H73z M104 119h5v1H104z M20 120h3v1H20z M50 120h3v1H50z M75 120h3v1H75z M105 120h3v1H105z"/>
<path fill="#000000" fill-opacity="0.941" d="M18 12h1v1H18z M109 12h1v1H109z M38 30h1v1H38z M89 30h1v1H89z M38 33h1v1H38z M89 33h1v1H89z M40 49h1v1H40z M87 49h1v1H87z M39 56h1v1H39z M88 56h1v1H88z M65 70h1v1H65z M39 71h1v1H39z M67 77h1v1H67z M40 78h1v1H40z M40 113h1v1H40z M61 113h1v1H61z M66 113h1v1H66z M87 113h1v1H87z M60 114h1v1H60z M83 116h1v1H83z M24 119h1v1H24z M103 119h1v1H103z"/>
<path fill="#000000" fill-opacity="0.878" d="M20 9h1v1H20z M107 9h1v1H107z M38 54h1v1H38z M89 54h1v1H89z M41 57h1v1H41z M86 57h1v1H86z M41 70h1v1H41z M38 73h1v1H38z M37 111h1v1H37z M90 111h1v1H90z M67 114h1v1H67z M30 115h1v1H30z M59 115h1v1H59z M97 115h1v1H97z M44 116h1v1H44z M27 117h1v1H27z M100 117h1v1H100z M18 119h1v1H18z M109 119h1v1H109z M53 120h1v1H53z M74 120h1v1H74z"/>
<path fill="#000000" fill-opacity="0.753" d="M23 7h1v1H23z M104 7h1v1H104z M21 8h1v1H21z M106 8h1v1H106z M38 31h1v1H38z M89 31h1v1H89z M38 32h1v1H38z M89 32h1v1H89z M40 35h1v1H40z M38 52h1v1H38z M89 52h1v1H89z M64 70h1v1H64z M38 75h1v1H38z M89 112h1v1H89z M58 116h1v1H58z M69 116h1v1H69z M45 117h1v1H45z M82 117h1v1H82z"/>
<path fill="#000000" fill-opacity="0.188" d="M41 28h1v1H41z M86 28h1v1H86z M41 35h1v1H41z M86 35h1v1H86z M39 51h1v1H39z M88 51h1v1H88z M67 73h1v1H67z M34 113h1v1H34z M93 113h1v1H93z M40 114h1v1H40z M66 114h1v1H66z M87 114h1v1H87z M47 119h1v1H47z M80 119h1v1H80z M18 120h1v1H18z M109 120h1v1H109z M20 121h1v1H20z M107 121h1v1H107z"/>
<path fill="#000000" fill-opacity="0.816" d="M19 10h1v1H19z M108 10h1v1H108z M39 50h1v1H39z M88 50h1v1H88z M39 77h1v1H39z M36 111h1v1H36z M91 111h1v1H91z M33 113h1v1H33z M94 113h1v1H94z M41 114h1v1H41z M86 114h1v1H86z M68 115h1v1H68z M48 119h1v1H48z M79 119h1v1H79z M19 120h1v1H19z M108 120h1v1H108z"/>
<path fill="#000000" fill-opacity="0.251" d="M25 6h1v1H25z M102 6h1v1H102z M66 77h1v1H66z M65 113h1v1H65z M61 114h1v1H61z M31 115h1v1H31z M96 115h1v1H96z M43 116h1v1H43z M28 117h1v1H28z M99 117h1v1H99z M54 120h1v1H54z M73 120h1v1H73z M51 121h2v1H51z M75 121h2v1H75z"/>
<path fill="#000000" fill-opacity="0.314" d="M26 6h76v1H26z M22 7h1v1H22z M105 7h1v1H105z M17 13h1v1H17z M110 13h1v1H110z M43 49h42v1H43z M39 55h1v1H39z M43 78h21v1H43z M62 113h1v1H62z M84 116h1v1H84z M25 119h1v1H25z M102 119h1v1H102z M21 121h1v1H21z M106 121h1v1H106z"/>
<path fill="#000000" fill-opacity="0.125" d="M19 9h1v1H19z M108 9h1v1H108z M40 50h1v1H40z M67 75h1v1H67z M39 76h1v1H39z M40 77h1v1H40z M90 112h1v1H90z M60 115h1v1H60z M67 115h1v1H67z M44 117h1v1H44z M83 117h1v1H83z M22 121h1v1H22z M50 121h1v1H50z M105 121h1v1H105z"/>
<path fill="#000000" fill-opacity="0.627" d="M17 15h1v1H17z M110 15h1v1H110z M39 29h1v1H39z M88 29h1v1H88z M88 34h1v1H88z M65 78h1v1H65z M32 114h1v1H32z M85 115h1v1H85z M29 116h1v1H29z M17 117h1v1H17z M110 117h1v1H110z M26 118h1v1H26z M101 118h1v1H101z"/>
<path fill="#000000" fill-opacity="0.376" d="M42 49h1v1H42z M85 49h1v1H85z M88 55h1v1H88z M40 56h1v1H40z M87 56h1v1H87z M40 71h1v1H40z M39 72h1v1H39z M42 78h1v1H42z M64 78h1v1H64z M64 112h1v1H64z M39 113h1v1H39z"/>
<path fill="#000000" fill-opacity="0.502" d="M18 11h1v1H18z M17 14h1v1H17z M110 14h1v1H110z M41 49h1v1H41z M86 49h1v1H86z M67 76h1v1H67z M41 78h1v1H41z M35 112h1v1H35z M95 114h1v1H95z M42 115h1v1H42z"/>
<path fill="#000000" fill-opacity="0.439" d="M109 11h1v1H109z M63 112h1v1H63z M92 112h1v1H92z M88 113h1v1H88z M17 118h1v1H17z M46 118h1v1H46z M81 118h1v1H81z M110 118h1v1H110z M55 119h1v1H55z M72 119h1v1H72z"/>
<path fill="#000000" fill-opacity="0.565" d="M39 34h1v1H39z M66 71h1v1H66z M98 116h1v1H98z M56 118h1v1H56z M71 118h1v1H71z M49 120h1v1H49z M78 120h1v1H78z"/>
</svg>
