<svg xmlns="http://www.w3.org/2000/svg" viewBox="0 0 128 128" width="128" height="128" role="img">
<path fill="#000000" d="M58 8h12v1H58z M54 9h20v1H54z M51 10h26v1H51z M49 11h30v1H49z M48 12h33v1H48z M46 13h36v1H46z M44 14h40v1H44z M42 15h44v1H42z M40 16h48v1H40z M39 17h50v1H39z M37 18h54v1H37z M35 19h58v1H35z M33 20h62v1H33z M32 21h65v1H32z M30 22h68v1H30z M28 23h72v1H28z M26 24h76v1H26z M24 25h80v1H24z M23 26h82v1H23z M21 27h86v1H21z M19 28h90v1H19z M17 29h94v1H17z M16 30h97v1H16z M14 31h100v1H14z M12 32h104v1H12z M10 33h108v1H10z M9 34h110v1H9z M7 35h114v1H7z M6 36h116v1H6z M6 37h116v1H6z M5 38h118v1H5z M5 39h118v1H5z M4 40h120v1H4z M4 41h120v1H4z M4 42h120v1H4z M4 43h120v1H4z M4 44h120v1H4z M4 45h120v1H4z M4 46h120v1H4z M4 47h120v1H4z M5 48h118v1H5z M5 49h118v1H5z M6 50h116v1H6z M7 51h114v1H7z M8 52h112v1H8z M9 53h110v1H9z M11 54h106v1H11z M13 55h102v1H13z M15 56h98v1H15z M16 57h96v1H16z M18 58h92v1H18z M20 59h88v1H20z M4 60h2v1H4z M22 60h84v1H22z M122 60h2v1H122z M4 61h3v1H4z M24 61h80v1H24z M121 61h3v1H121z M4 62h5v1H4z M25 62h78v1H25z M119 62h5v1H119z M4 63h7v1H4z M27 63h74v1H27z M117 63h7v1H117z M4 64h8v1H4z M29 64h70v1H29z M116 64h8v1H116z M4 65h10v1H4z M31 65h66v1H31z M114 65h10v1H114z M4 66h12v1H4z M32 66h64v1H32z M112 66h12v1H112z M4 67h14v1H4z M34 67h60v1H34z M110 67h14v1H110z M5 68h14v1H5z M36 68h56v1H36z M109 68h14v1H109z M5 69h16v1H5z M38 69h52v1H38z M107 69h16v1H107z M6 70h17v1H6z M40 70h49v1H40z M105 70h17v1H105z M7 71h18v1H7z M41 71h46v1H41z M103 71h18v1H103z M8 72h19v1H8z M43 72h42v1H43z M101 72h19v1H101z M9 73h19v1H9z M45 73h38v1H45z M100 73h19v1H100z M11 74h19v1H11z M47 74h34v1H47z M98 74h19v1H98z M12 75h20v1H12z M48 75h32v1H48z M96 75h20v1H96z M14 76h20v1H14z M50 76h28v1H50z M94 76h20v1H94z M16 77h19v1H16z M53 77h22v1H53z M93 77h19v1H93z M18 78h19v1H18z M56 78h16v1H56z M91 78h19v1H91z M20 79h19v1H20z M61 79h6v1H61z M89 79h19v1H89z M4 80h2v1H4z M21 80h20v1H21z M87 80h20v1H87z M122 80h2v1H122z M4 81h3v1H4z M23 81h20v1H23z M85 81h20v1H85z M121 81h3v1H121z M4 82h4v1H4z M25 82h19v1H25z M84 82h19v1H84z M120 82h4v1H120z M4 83h6v1H4z M27 83h19v1H27z M82 83h19v1H82z M118 83h6v1H118z M4 84h8v1H4z M28 84h20v1H28z M80 84h20v1H80z M116 84h8v1H116z M4 85h10v1H4z M30 85h20v1H30z M78 85h20v1H78z M114 85h10v1H114z M4 86h11v1H4z M32 86h20v1H32z M76 86h20v1H76z M113 86h11v1H113z M4 87h13v1H4z M34 87h21v1H34z M73 87h21v1H73z M111 87h13v1H111z M5 88h14v1H5z M36 88h24v1H36z M68 88h24v1H68z M109 88h14v1H109z M5 89h16v1H5z M37 89h54v1H37z M107 89h16v1H107z M6 90h17v1H6z M39 90h50v1H39z M105 90h17v1H105z M6 91h18v1H6z M41 91h46v1H41z M104 91h18v1H104z M7 92h19v1H7z M43 92h42v1H43z M102 92h19v1H102z M9 93h19v1H9z M44 93h40v1H44z M100 93h19v1H100z M10 94h20v1H10z M46 94h36v1H46z M98 94h20v1H98z M12 95h19v1H12z M48 95h32v1H48z M97 95h19v1H97z M14 96h19v1H14z M50 96h28v1H50z M95 96h19v1H95z M16 97h19v1H16z M52 97h24v1H52z M93 97h20v1H93z M17 98h20v1H17z M55 98h18v1H55z M91 98h20v1H91z M19 99h20v1H19z M59 99h10v1H59z M89 99h20v1H89z M21 100h19v1H21z M88 100h19v1H88z M23 101h19v1H23z M86 101h19v1H86z M24 102h20v1H24z M84 102h20v1H84z M26 103h20v1H26z M82 103h20v1H82z M28 104h19v1H28z M81 104h19v1H81z M30 105h19v1H30z M79 105h19v1H79z M31 106h20v1H31z M77 106h20v1H77z M33 107h21v1H33z M74 107h21v1H74z M35 108h24v1H35z M69 108h24v1H69z M37 109h54v1H37z M39 110h50v1H39z M40 111h48v1H40z M42 112h44v1H42z M44 113h40v1H44z M46 114h36v1H46z M48 115h33v1H48z M49 116h30v1H49z M52 117h25v1H52z M54 118h20v1H54z M58 119h12v1H58z"/>
<path fill="#000000" fill-opacity="0.941" d="M57 8h1v1H57z M70 8h1v1H70z M47 12h1v1H47z M45 13h1v1H45z M82 13h1v1H82z M38 17h1v1H38z M89 17h1v1H89z M31 21h1v1H31z M98 22h1v1H98z M22 26h1v1H22z M105 26h1v1H105z M15 30h1v1H15z M114 31h1v1H114z M8 34h1v1H8z M119 34h1v1H119z M5 37h1v1H5z M122 37h1v1H122z M4 39h1v1H4z M123 39h1v1H123z M14 56h1v1H14z M113 56h1v1H113z M7 61h1v1H7z M23 61h1v1H23z M104 61h1v1H104z M120 61h1v1H120z M12 64h1v1H12z M115 64h1v1H115z M30 65h1v1H30z M97 65h1v1H97z M19 68h1v1H19z M108 68h1v1H108z M90 69h1v1H90z M39 70h1v1H39z M6 71h1v1H6z M121 71h1v1H121z M7 72h1v1H7z M120 72h1v1H120z M28 73h1v1H28z M99 73h1v1H99z M10 74h1v1H10z M46 74h1v1H46z M81 74h1v1H81z M117 74h1v1H117z M35 77h1v1H35z M52 77h1v1H52z M75 77h1v1H75z M92 77h1v1H92z M17 78h1v1H17z M55 78h1v1H55z M72 78h1v1H72z M110 78h1v1H110z M19 79h1v1H19z M60 79h1v1H60z M67 79h1v1H67z M108 79h1v1H108z M8 82h1v1H8z M44 82h1v1H44z M83 82h1v1H83z M119 82h1v1H119z M26 83h1v1H26z M101 83h1v1H101z M15 86h1v1H15z M112 86h1v1H112z M33 87h1v1H33z M94 87h1v1H94z M4 88h1v1H4z M35 88h1v1H35z M60 88h1v1H60z M67 88h1v1H67z M92 88h1v1H92z M123 88h1v1H123z M5 90h1v1H5z M122 90h1v1H122z M24 91h1v1H24z M103 91h1v1H103z M42 92h1v1H42z M85 92h1v1H85z M8 93h1v1H8z M119 93h1v1H119z M31 95h1v1H31z M96 95h1v1H96z M13 96h1v1H13z M114 96h1v1H114z M15 97h1v1H15z M40 100h1v1H40z M87 100h1v1H87z M22 101h1v1H22z M105 101h1v1H105z M47 104h1v1H47z M80 104h1v1H80z M49 105h1v1H49z M78 105h1v1H78z M98 105h1v1H98z M51 106h1v1H51z M76 106h1v1H76z M54 107h1v1H54z M73 107h1v1H73z M38 110h1v1H38z M89 110h1v1H89z M82 114h1v1H82z M47 115h1v1H47z M51 117h1v1H51z M57 119h1v1H57z M70 119h1v1H70z"/>
<path fill="#000000" fill-opacity="0.125" d="M51 9h1v1H51z M76 9h1v1H76z M49 10h1v1H49z M78 10h1v1H78z M47 11h1v1H47z M80 11h1v1H80z M31 20h1v1H31z M96 20h1v1H96z M24 24h1v1H24z M15 29h1v1H15z M112 29h1v1H112z M8 33h1v1H8z M119 33h1v1H119z M3 47h1v1H3z M6 52h1v1H6z M16 58h1v1H16z M6 59h1v1H6z M121 59h1v1H121z M7 60h1v1H7z M120 60h1v1H120z M10 62h1v1H10z M23 62h1v1H23z M104 62h1v1H104z M117 62h1v1H117z M19 67h1v1H19z M108 67h1v1H108z M26 71h1v1H26z M39 71h1v1H39z M88 71h1v1H88z M101 71h1v1H101z M122 71h1v1H122z M117 75h1v1H117z M35 76h1v1H35z M48 76h1v1H48z M79 76h1v1H79z M92 76h1v1H92z M50 77h1v1H50z M77 77h1v1H77z M5 78h1v1H5z M122 78h1v1H122z M19 80h1v1H19z M42 80h1v1H42z M63 80h2v1H63z M85 80h1v1H85z M108 80h1v1H108z M124 80h1v1H124z M8 81h1v1H8z M119 81h1v1H119z M15 85h1v1H15z M112 85h1v1H112z M22 89h1v1H22z M35 89h1v1H35z M92 89h1v1H92z M105 89h1v1H105z M8 94h1v1H8z M31 94h1v1H31z M96 94h1v1H96z M119 94h1v1H119z M15 98h1v1H15z M38 98h1v1H38z M89 98h1v1H89z M112 98h1v1H112z M105 102h1v1H105z M24 103h1v1H24z M47 103h1v1H47z M51 105h1v1H51z M31 107h1v1H31z M96 107h1v1H96z M89 111h1v1H89z M47 116h1v1H47z M80 116h1v1H80z M49 117h1v1H49z M78 117h1v1H78z M51 118h1v1H51z M76 118h1v1H76z M58 120h1v1H58z M69 120h1v1H69z"/>
<path fill="#000000" fill-opacity="0.878" d="M53 9h1v1H53z M74 9h1v1H74z M36 18h1v1H36z M91 18h1v1H91z M29 22h1v1H29z M20 27h1v1H20z M107 27h1v1H107z M13 31h1v1H13z M12 55h1v1H12z M115 55h1v1H115z M4 59h2v1H4z M122 59h2v1H122z M6 60h1v1H6z M21 60h1v1H21z M106 60h1v1H106z M121 60h1v1H121z M28 64h1v1H28z M99 64h1v1H99z M14 65h1v1H14z M113 65h1v1H113z M4 68h1v1H4z M123 68h1v1H123z M21 69h1v1H21z M37 69h1v1H37z M106 69h1v1H106z M44 73h1v1H44z M83 73h1v1H83z M30 74h1v1H30z M97 74h1v1H97z M37 78h1v1H37z M90 78h1v1H90z M24 82h1v1H24z M103 82h1v1H103z M10 83h1v1H10z M46 83h1v1H46z M52 86h1v1H52z M75 86h1v1H75z M96 86h1v1H96z M17 87h1v1H17z M55 87h1v1H55z M72 87h1v1H72z M110 87h1v1H110z M61 88h1v1H61z M66 88h1v1H66z M40 91h1v1H40z M87 91h1v1H87z M26 92h1v1H26z M101 92h1v1H101z M80 95h1v1H80z M116 95h1v1H116z M33 96h1v1H33z M49 96h1v1H49z M78 96h1v1H78z M94 96h1v1H94z M54 98h1v1H54z M73 98h1v1H73z M58 99h1v1H58z M69 99h1v1H69z M20 100h1v1H20z M107 100h1v1H107z M42 101h1v1H42z M29 105h1v1H29z M36 109h1v1H36z M91 109h1v1H91z M84 113h1v1H84z M45 114h1v1H45z M53 118h1v1H53z M74 118h1v1H74z"/>
<path fill="#000000" fill-opacity="0.251" d="M42 14h1v1H42z M94 19h1v1H94z M26 23h1v1H26z M110 28h1v1H110z M10 32h1v1H10z M123 49h1v1H123z M122 58h1v1H122z M18 59h1v1H18z M109 59h1v1H109z M3 60h1v1H3z M124 60h1v1H124z M102 63h1v1H102z M17 66h1v1H17z M3 67h1v1H3z M124 67h1v1H124z M34 68h1v1H34z M93 68h1v1H93z M24 70h1v1H24z M103 70h1v1H103z M6 72h1v1H6z M121 72h1v1H121z M33 75h1v1H33z M14 77h1v1H14z M113 77h1v1H113z M4 78h1v1H4z M123 78h1v1H123z M40 79h1v1H40z M56 79h1v1H56z M71 79h1v1H71z M87 79h1v1H87z M21 81h1v1H21z M106 81h1v1H106z M80 83h1v1H80z M116 83h1v1H116z M49 84h1v1H49z M78 84h1v1H78z M30 86h1v1H30z M54 86h1v1H54z M73 86h1v1H73z M58 87h1v1H58z M69 87h1v1H69z M20 88h1v1H20z M107 88h1v1H107z M37 90h1v1H37z M90 90h1v1H90z M10 95h1v1H10z M46 95h1v1H46z M36 97h1v1H36z M52 98h1v1H52z M75 98h1v1H75z M17 99h1v1H17z M55 99h1v1H55z M72 99h1v1H72z M110 99h1v1H110z M61 100h1v1H61z M66 100h1v1H66z M84 101h1v1H84z M33 108h1v1H33z M94 108h1v1H94z M42 113h1v1H42z"/>
<path fill="#000000" fill-opacity="0.627" d="M62 7h1v1H62z M65 7h1v1H65z M50 10h1v1H50z M77 10h1v1H77z M48 11h1v1H48z M79 11h1v1H79z M88 16h1v1H88z M32 20h1v1H32z M104 25h1v1H104z M16 29h1v1H16z M3 45h1v1H3z M124 45h1v1H124z M5 50h1v1H5z M122 50h1v1H122z M24 62h1v1H24z M103 62h1v1H103z M11 63h1v1H11z M96 66h1v1H96z M18 67h1v1H18z M109 67h1v1H109z M40 71h1v1H40z M87 71h1v1H87z M80 75h1v1H80z M116 75h1v1H116z M34 76h1v1H34z M49 76h1v1H49z M78 76h1v1H78z M93 76h1v1H93z M73 78h1v1H73z M58 79h1v1H58z M69 79h1v1H69z M20 80h1v1H20z M107 80h1v1H107z M3 82h1v1H3z M124 82h1v1H124z M100 84h1v1H100z M14 85h1v1H14z M113 85h1v1H113z M56 87h1v1H56z M71 87h1v1H71z M36 89h1v1H36z M106 89h1v1H106z M43 93h1v1H43z M84 93h1v1H84z M30 94h1v1H30z M97 94h1v1H97z M104 102h1v1H104z M52 106h1v1H52z M75 106h1v1H75z M55 107h1v1H55z M72 107h1v1H72z M61 108h1v1H61z M66 108h1v1H66z M88 111h1v1H88z M48 116h1v1H48z M79 116h1v1H79z M77 117h1v1H77z M62 120h1v1H62z M65 120h1v1H65z"/>
<path fill="#000000" fill-opacity="0.753" d="M56 8h1v1H56z M71 8h1v1H71z M86 15h1v1H86z M34 19h1v1H34z M102 24h1v1H102z M18 28h1v1H18z M3 42h1v1H3z M3 43h1v1H3z M124 43h1v1H124z M3 44h1v1H3z M124 44h1v1H124z M123 48h1v1H123z M10 54h1v1H10z M117 54h1v1H117z M110 58h1v1H110z M3 63h1v1H3z M26 63h1v1H26z M124 63h1v1H124z M3 64h1v1H3z M124 64h1v1H124z M16 66h1v1H16z M104 70h1v1H104z M42 72h1v1H42z M85 72h1v1H85z M32 75h1v1H32z M114 76h1v1H114z M5 79h1v1H5z M123 79h1v1H123z M7 81h1v1H7z M22 81h1v1H22z M105 81h1v1H105z M120 81h1v1H120z M3 83h1v1H3z M124 83h1v1H124z M3 84h1v1H3z M12 84h1v1H12z M48 84h1v1H48z M79 84h1v1H79z M115 84h1v1H115z M124 84h1v1H124z M29 85h1v1H29z M98 85h1v1H98z M63 88h2v1H63z M38 90h1v1H38z M89 90h1v1H89z M28 93h1v1H28z M99 93h1v1H99z M9 94h1v1H9z M45 94h1v1H45z M82 94h1v1H82z M118 94h1v1H118z M92 97h1v1H92z M18 99h1v1H18z M44 102h1v1H44z M102 103h1v1H102z M34 108h1v1H34z M86 112h1v1H86z M56 119h1v1H56z M71 119h1v1H71z"/>
<path fill="#000000" fill-opacity="0.502" d="M60 7h1v1H60z M67 7h1v1H67z M55 8h1v1H55z M72 8h1v1H72z M52 9h1v1H52z M75 9h1v1H75z M46 12h1v1H46z M90 17h1v1H90z M30 21h1v1H30z M106 26h1v1H106z M14 30h1v1H14z M114 56h1v1H114z M3 61h1v1H3z M22 61h1v1H22z M105 61h1v1H105z M124 61h1v1H124z M116 63h1v1H116z M3 66h1v1H3z M31 66h1v1H31z M124 66h1v1H124z M20 68h1v1H20z M107 68h1v1H107z M38 70h1v1H38z M118 74h1v1H118z M47 75h1v1H47z M36 77h1v1H36z M91 77h1v1H91z M18 79h1v1H18z M109 79h1v1H109z M102 83h1v1H102z M16 86h1v1H16z M74 86h1v1H74z M34 88h1v1H34z M93 88h1v1H93z M41 92h1v1H41z M86 92h1v1H86z M32 95h1v1H32z M14 97h1v1H14z M56 99h1v1H56z M71 99h1v1H71z M106 101h1v1H106z M48 104h1v1H48z M79 104h1v1H79z M77 105h1v1H77z M63 108h2v1H63z M90 110h1v1H90z M46 115h1v1H46z M52 118h1v1H52z M75 118h1v1H75z M55 119h1v1H55z M72 119h1v1H72z M60 120h1v1H60z M67 120h1v1H67z"/>
<path fill="#000000" fill-opacity="0.816" d="M43 14h1v1H43z M84 14h1v1H84z M93 19h1v1H93z M27 23h1v1H27z M100 23h1v1H100z M109 28h1v1H109z M11 32h1v1H11z M116 32h1v1H116z M4 48h1v1H4z M6 51h1v1H6z M121 51h1v1H121z M7 52h1v1H7z M120 52h1v1H120z M19 59h1v1H19z M108 59h1v1H108z M101 63h1v1H101z M35 68h1v1H35z M92 68h1v1H92z M5 70h1v1H5z M23 70h1v1H23z M122 70h1v1H122z M8 73h1v1H8z M119 73h1v1H119z M15 77h1v1H15z M112 77h1v1H112z M4 79h1v1H4z M39 79h1v1H39z M59 79h1v1H59z M68 79h1v1H68z M88 79h1v1H88z M122 79h1v1H122z M81 83h1v1H81z M117 83h1v1H117z M50 85h1v1H50z M77 85h1v1H77z M31 86h1v1H31z M19 88h1v1H19z M62 88h1v1H62z M65 88h1v1H65z M108 88h1v1H108z M11 95h1v1H11z M47 95h1v1H47z M35 97h1v1H35z M51 97h1v1H51z M76 97h1v1H76z M109 99h1v1H109z M85 101h1v1H85z M27 104h1v1H27z M100 104h1v1H100z M59 108h1v1H59z M68 108h1v1H68z M93 108h1v1H93z M43 113h1v1H43z"/>
<path fill="#000000" fill-opacity="0.565" d="M61 7h1v1H61z M66 7h1v1H66z M81 12h1v1H81z M39 16h1v1H39z M97 21h1v1H97z M23 25h1v1H23z M113 30h1v1H113z M4 38h1v1H4z M123 38h1v1H123z M3 41h1v1H3z M124 41h1v1H124z M8 53h1v1H8z M119 53h1v1H119z M15 57h1v1H15z M112 57h1v1H112z M89 70h1v1H89z M27 72h1v1H27z M100 72h1v1H100z M11 75h1v1H11z M51 77h1v1H51z M76 77h1v1H76z M43 81h1v1H43z M84 81h1v1H84z M27 84h1v1H27z M3 86h1v1H3z M53 86h1v1H53z M124 86h1v1H124z M4 89h1v1H4z M123 89h1v1H123z M23 90h1v1H23z M104 90h1v1H104z M113 97h1v1H113z M53 98h1v1H53z M74 98h1v1H74z M39 99h1v1H39z M88 99h1v1H88z M23 102h1v1H23z M81 103h1v1H81z M50 105h1v1H50z M30 106h1v1H30z M97 106h1v1H97z M62 108h1v1H62z M65 108h1v1H65z M39 111h1v1H39z M81 115h1v1H81z M50 117h1v1H50z M61 120h1v1H61z M66 120h1v1H66z"/>
<path fill="#000000" fill-opacity="0.439" d="M83 13h1v1H83z M37 17h1v1H37z M99 22h1v1H99z M21 26h1v1H21z M115 31h1v1H115z M6 35h1v1H6z M121 35h1v1H121z M3 46h1v1H3z M124 46h1v1H124z M13 56h1v1H13z M4 58h1v1H4z M13 64h1v1H13z M29 65h1v1H29z M98 65h1v1H98z M4 69h1v1H4z M91 69h1v1H91z M123 69h1v1H123z M29 73h1v1H29z M98 73h1v1H98z M9 74h1v1H9z M45 74h1v1H45z M82 74h1v1H82z M57 79h1v1H57z M70 79h1v1H70z M3 81h1v1H3z M124 81h1v1H124z M9 82h1v1H9z M45 82h1v1H45z M82 82h1v1H82z M118 82h1v1H118z M25 83h1v1H25z M111 86h1v1H111z M57 87h1v1H57z M70 87h1v1H70z M25 91h1v1H25z M102 91h1v1H102z M6 92h1v1H6z M121 92h1v1H121z M95 95h1v1H95z M12 96h1v1H12z M115 96h1v1H115z M41 100h1v1H41z M86 100h1v1H86z M21 101h1v1H21z M99 105h1v1H99z M37 110h1v1H37z M83 114h1v1H83z"/>
<path fill="#000000" fill-opacity="0.314" d="M85 14h1v1H85z M35 18h1v1H35z M101 23h1v1H101z M19 27h1v1H19z M117 32h1v1H117z M5 36h1v1H5z M122 36h1v1H122z M3 40h1v1H3z M124 40h1v1H124z M4 49h1v1H4z M11 55h1v1H11z M5 58h1v1H5z M8 61h1v1H8z M119 61h1v1H119z M27 64h1v1H27z M15 65h1v1H15z M112 65h1v1H112z M105 69h1v1H105z M43 73h1v1H43z M84 73h1v1H84z M31 74h1v1H31z M96 74h1v1H96z M53 78h1v1H53z M74 78h1v1H74z M11 83h1v1H11z M47 83h1v1H47z M51 85h1v1H51z M76 85h1v1H76z M97 86h1v1H97z M3 87h1v1H3z M124 87h1v1H124z M5 91h1v1H5z M122 91h1v1H122z M27 92h1v1H27z M100 92h1v1H100z M81 95h1v1H81z M117 95h1v1H117z M50 97h1v1H50z M62 100h1v1H62z M65 100h1v1H65z M43 101h1v1H43z M26 104h1v1H26z M101 104h1v1H101z M53 106h1v1H53z M74 106h1v1H74z M35 109h1v1H35z M85 113h1v1H85z"/>
<path fill="#000000" fill-opacity="0.188" d="M58 7h1v1H58z M69 7h1v1H69z M54 8h1v1H54z M73 8h1v1H73z M40 15h1v1H40z M87 15h1v1H87z M33 19h1v1H33z M103 24h1v1H103z M17 28h1v1H17z M124 47h1v1H124z M9 54h1v1H9z M118 54h1v1H118z M111 58h1v1H111z M25 63h1v1H25z M110 66h1v1H110z M32 67h1v1H32z M95 67h1v1H95z M5 71h1v1H5z M41 72h1v1H41z M86 72h1v1H86z M7 73h1v1H7z M120 73h1v1H120z M94 75h1v1H94z M12 76h1v1H12z M115 76h1v1H115z M3 80h1v1H3z M13 84h1v1H13z M114 84h1v1H114z M28 85h1v1H28z M99 85h1v1H99z M29 93h1v1H29z M98 93h1v1H98z M44 94h1v1H44z M83 94h1v1H83z M91 97h1v1H91z M60 100h1v1H60z M67 100h1v1H67z M45 102h1v1H45z M82 102h1v1H82z M103 103h1v1H103z M57 107h1v1H57z M70 107h1v1H70z M40 112h1v1H40z M87 112h1v1H87z M54 119h1v1H54z M73 119h1v1H73z"/>
<path fill="#000000" fill-opacity="0.376" d="M59 7h1v1H59z M68 7h1v1H68z M44 13h1v1H44z M92 18h1v1H92z M28 22h1v1H28z M108 27h1v1H108z M12 31h1v1H12z M7 34h1v1H7z M120 34h1v1H120z M116 55h1v1H116z M123 58h1v1H123z M20 60h1v1H20z M107 60h1v1H107z M100 64h1v1H100z M114 64h1v1H114z M22 69h1v1H22z M36 69h1v1H36z M16 78h1v1H16z M38 78h1v1H38z M89 78h1v1H89z M111 78h1v1H111z M23 82h1v1H23z M104 82h1v1H104z M18 87h1v1H18z M32 87h1v1H32z M95 87h1v1H95z M109 87h1v1H109z M39 91h1v1H39z M88 91h1v1H88z M7 93h1v1H7z M120 93h1v1H120z M34 96h1v1H34z M48 96h1v1H48z M79 96h1v1H79z M93 96h1v1H93z M77 97h1v1H77z M19 100h1v1H19z M63 100h2v1H63z M108 100h1v1H108z M28 105h1v1H28z M56 107h1v1H56z M71 107h1v1H71z M92 109h1v1H92z M44 114h1v1H44z M59 120h1v1H59z M68 120h1v1H68z"/>
<path fill="#000000" fill-opacity="0.690" d="M63 7h2v1H63z M41 15h1v1H41z M95 20h1v1H95z M25 24h1v1H25z M111 29h1v1H111z M9 33h1v1H9z M118 33h1v1H118z M124 42h1v1H124z M17 58h1v1H17z M3 62h1v1H3z M9 62h1v1H9z M118 62h1v1H118z M124 62h1v1H124z M3 65h1v1H3z M124 65h1v1H124z M111 66h1v1H111z M33 67h1v1H33z M94 67h1v1H94z M25 71h1v1H25z M102 71h1v1H102z M95 75h1v1H95z M13 76h1v1H13z M54 78h1v1H54z M6 80h1v1H6z M41 80h1v1H41z M86 80h1v1H86z M121 80h1v1H121z M3 85h1v1H3z M124 85h1v1H124z M21 89h1v1H21z M91 89h1v1H91z M16 98h1v1H16z M37 98h1v1H37z M90 98h1v1H90z M111 98h1v1H111z M57 99h1v1H57z M70 99h1v1H70z M83 102h1v1H83z M25 103h1v1H25z M46 103h1v1H46z M32 107h1v1H32z M95 107h1v1H95z M60 108h1v1H60z M67 108h1v1H67z M41 112h1v1H41z M63 120h2v1H63z"/>
</svg>
