<svg xmlns="http://www.w3.org/2000/svg" viewBox="0 0 128 128" width="128" height="128" role="img">
<path fill="#000000" d="M94 1h4v1H94z M93 2h6v1H93z M92 3h8v1H92z M91 4h10v1H91z M90 5h12v1H90z M89 6h14v1H89z M88 7h16v1H88z M87 8h18v1H87z M86 9h20v1H86z M85 10h22v1H85z M84 11h24v1H84z M83 12h26v1H83z M82 13h28v1H82z M81 14h30v1H81z M80 15h32v1H80z M79 16h34v1H79z M78 17h36v1H78z M77 18h38v1H77z M76 19h40v1H76z M75 20h42v1H75z M74 21h44v1H74z M73 22h46v1H73z M72 23h48v1H72z M71 24h50v1H71z M70 25h52v1H70z M69 26h54v1H69z M68 27h56v1H68z M67 28h58v1H67z M66 29h60v1H66z M65 30h62v1H65z M65 31h62v1H65z M65 32h62v1H65z M65 33h62v1H65z M66 34h60v1H66z M81 35h31v1H81z M81 36h30v1H81z M81 37h30v1H81z M81 38h30v1H81z M81 39h30v1H81z M81 40h30v1H81z M81 41h30v1H81z M81 42h30v1H81z M81 43h30v1H81z M81 44h30v1H81z M81 45h30v1H81z M81 46h30v1H81z M81 47h30v1H81z M81 48h30v1H81z M81 49h30v1H81z M81 50h30v1H81z M81 51h30v1H81z M81 52h30v1H81z M42 53h28v1H42z M81 53h30v1H81z M41 54h30v1H41z M81 54h30v1H81z M41 55h30v1H41z M81 55h30v1H81z M41 56h30v1H41z M81 56h30v1H81z M41 57h30v1H41z M81 57h30v1H81z M41 58h30v1H41z M81 58h30v1H81z M41 59h30v1H41z M81 59h30v1H81z M41 60h30v1H41z M81 60h30v1H81z M41 61h30v1H41z M81 61h30v1H81z M41 62h30v1H41z M81 62h30v1H81z M41 63h30v1H41z M81 63h30v1H81z M41 64h30v1H41z M81 64h30v1H81z M41 65h30v1H41z M81 65h30v1H81z M41 66h30v1H41z M81 66h30v1H81z M41 67h30v1H41z M81 67h30v1H81z M41 68h30v1H41z M81 68h30v1H81z M41 69h30v1H41z M81 69h30v1H81z M41 70h30v1H41z M81 70h30v1H81z M41 71h30v1H41z M81 71h30v1H81z M41 72h30v1H41z M81 72h30v1H81z M41 73h30v1H41z M81 73h30v1H81z M41 74h30v1H41z M81 74h30v1H81z M41 75h30v1H41z M81 75h30v1H81z M41 76h30v1H41z M81 76h30v1H81z M41 77h30v1H41z M81 77h30v1H81z M41 78h30v1H41z M81 78h30v1H81z M41 79h30v1H41z M81 79h30v1H81z M41 80h30v1H41z M81 80h30v1H81z M41 81h30v1H41z M81 81h30v1H81z M41 82h30v1H41z M81 82h30v1H81z M41 83h30v1H41z M81 83h30v1H81z M41 84h30v1H41z M81 84h30v1H81z M2 85h28v1H2z M41 85h30v1H41z M81 85h30v1H81z M1 86h30v1H1z M41 86h30v1H41z M81 86h30v1H81z M1 87h30v1H1z M41 87h30v1H41z M81 87h30v1H81z M0 88h31v1H0z M41 88h30v1H41z M81 88h30v1H81z M0 89h31v1H0z M41 89h30v1H41z M81 89h30v1H81z M0 90h31v1H0z M41 90h30v1H41z M81 90h30v1H81z M0 91h31v1H0z M41 91h30v1H41z M81 91h30v1H81z M0 92h31v1H0z M41 92h30v1H41z M81 92h30v1H81z M0 93h31v1H0z M41 93h30v1H41z M81 93h30v1H81z M0 94h31v1H0z M41 94h30v1H41z M81 94h30v1H81z M0 95h31v1H0z M41 95h30v1H41z M81 95h30v1H81z M0 96h31v1H0z M41 96h30v1H41z M81 96h30v1H81z M0 97h31v1H0z M41 97h30v1H41z M81 97h30v1H81z M0 98h31v1H0z M41 98h30v1H41z M81 98h30v1H81z M0 99h31v1H0z M41 99h30v1H41z M81 99h30v1H81z M0 100h31v1H0z M41 100h30v1H41z M81 100h30v1H81z M0 101h31v1H0z M41 101h30v1H41z M81 101h30v1H81z M0 102h31v1H0z M41 102h30v1H41z M81 102h30v1H81z M0 103h31v1H0z M41 103h30v1H41z M81 103h30v1H81z M0 104h31v1H0z M41 104h30v1H41z M81 104h30v1H81z M0 105h31v1H0z M41 105h30v1H41z M81 105h30v1H81z M0 106h31v1H0z M41 106h30v1H41z M81 106h30v1H81z M0 107h31v1H0z M41 107h30v1H41z M81 107h30v1H81z M0 108h31v1H0z M41 108h30v1H41z M81 108h30v1H81z M0 109h31v1H0z M41 109h30v1H41z M81 109h30v1H81z M0 110h31v1H0z M41 110h30v1H41z M81 110h30v1H81z M0 111h31v1H0z M41 111h30v1H41z M81 111h30v1H81z M0 112h31v1H0z M41 112h30v1H41z M81 112h30v1H81z M0 113h31v1H0z M41 113h30v1H41z M81 113h30v1H81z M0 114h31v1H0z M41 114h30v1H41z M81 114h30v1H81z M0 115h31v1H0z M41 115h30v1H41z M81 115h30v1H81z M0 116h31v1H0z M41 116h30v1H41z M81 116h30v1H81z M0 117h31v1H0z M41 117h30v1H41z M81 117h30v1H81z M0 118h31v1H0z M41 118h30v1H41z M81 118h30v1H81z M0 119h31v1H0z M41 119h30v1H41z M81 119h30v1H81z M0 120h31v1H0z M41 120h30v1H41z M81 120h30v1H81z M0 121h31v1H0z M41 121h30v1H41z M81 121h30v1H81z M0 122h31v1H0z M41 122h30v1H41z M81 122h30v1H81z M0 123h31v1H0z M41 123h30v1H41z M81 123h30v1H81z M0 124h31v1H0z M41 124h30v1H41z M81 124h30v1H81z M1 125h30v1H1z M41 125h30v1H41z M81 125h30v1H81z M1 126h29v1H1z M42 126h28v1H42z M82 126h28v1H82z M4 127h24v1H4z M44 127h24v1H44z M84 127h24v1H84z"/>
<path fill="#000000" fill-opacity="0.941" d="M96 0h1v1H96z M98 1h1v1H98z M99 2h1v1H99z M100 3h1v1H100z M101 4h1v1H101z M102 5h1v1H102z M103 6h1v1H103z M104 7h1v1H104z M105 8h1v1H105z M106 9h1v1H106z M107 10h1v1H107z M108 11h1v1H108z M109 12h1v1H109z M110 13h1v1H110z M111 14h1v1H111z M112 15h1v1H112z M113 16h1v1H113z M114 17h1v1H114z M115 18h1v1H115z M116 19h1v1H116z M117 20h1v1H117z M118 21h1v1H118z M119 22h1v1H119z M120 23h1v1H120z M121 24h1v1H121z M122 25h1v1H122z M123 26h1v1H123z M124 27h1v1H124z M125 28h1v1H125z M126 29h1v1H126z M127 31h1v1H127z M111 36h1v1H111z M111 37h1v1H111z M111 38h1v1H111z M111 39h1v1H111z M111 40h1v1H111z M111 41h1v1H111z M111 42h1v1H111z M111 43h1v1H111z M111 44h1v1H111z M111 45h1v1H111z M111 46h1v1H111z M111 47h1v1H111z M111 48h1v1H111z M111 49h1v1H111z M111 50h1v1H111z M111 51h1v1H111z M111 52h1v1H111z M111 53h1v1H111z M111 54h1v1H111z M111 55h1v1H111z M111 56h1v1H111z M111 57h1v1H111z M111 58h1v1H111z M111 59h1v1H111z M111 60h1v1H111z M111 61h1v1H111z M111 62h1v1H111z M111 63h1v1H111z M111 64h1v1H111z M111 65h1v1H111z M111 66h1v1H111z M111 67h1v1H111z M111 68h1v1H111z M111 69h1v1H111z M111 70h1v1H111z M111 71h1v1H111z M111 72h1v1H111z M111 73h1v1H111z M111 74h1v1H111z M111 75h1v1H111z M111 76h1v1H111z M111 77h1v1H111z M111 78h1v1H111z M111 79h1v1H111z M111 80h1v1H111z M111 81h1v1H111z M111 82h1v1H111z M111 83h1v1H111z M111 84h1v1H111z M111 85h1v1H111z M111 86h1v1H111z M0 87h1v1H0z M111 87h1v1H111z M111 88h1v1H111z M111 89h1v1H111z M111 90h1v1H111z M111 91h1v1H111z M111 92h1v1H111z M111 93h1v1H111z M111 94h1v1H111z M111 95h1v1H111z M111 96h1v1H111z M111 97h1v1H111z M111 98h1v1H111z M111 99h1v1H111z M111 100h1v1H111z M111 101h1v1H111z M111 102h1v1H111z M111 103h1v1H111z M111 104h1v1H111z M111 105h1v1H111z M111 106h1v1H111z M111 107h1v1H111z M111 108h1v1H111z M111 109h1v1H111z M111 110h1v1H111z M111 111h1v1H111z M111 112h1v1H111z M111 113h1v1H111z M111 114h1v1H111z M111 115h1v1H111z M111 116h1v1H111z M111 117h1v1H111z M111 118h1v1H111z M111 119h1v1H111z M111 120h1v1H111z M111 121h1v1H111z M111 122h1v1H111z M111 123h1v1H111z M41 126h1v1H41z M110 126h1v1H110z M3 127h1v1H3z M43 127h1v1H43z M68 127h1v1H68z M83 127h1v1H83z M108 127h1v1H108z"/>
<path fill="#000000" fill-opacity="0.816" d="M93 1h1v1H93z M92 2h1v1H92z M91 3h1v1H91z M90 4h1v1H90z M89 5h1v1H89z M88 6h1v1H88z M87 7h1v1H87z M86 8h1v1H86z M85 9h1v1H85z M84 10h1v1H84z M83 11h1v1H83z M82 12h1v1H82z M81 13h1v1H81z M80 14h1v1H80z M79 15h1v1H79z M78 16h1v1H78z M77 17h1v1H77z M76 18h1v1H76z M75 19h1v1H75z M74 20h1v1H74z M73 21h1v1H73z M72 22h1v1H72z M71 23h1v1H71z M70 24h1v1H70z M69 25h1v1H69z M68 26h1v1H68z M67 27h1v1H67z M66 28h1v1H66z M65 29h1v1H65z M44 52h24v1H44z M41 53h1v1H41z M40 56h1v1H40z M40 57h1v1H40z M40 58h1v1H40z M40 59h1v1H40z M40 60h1v1H40z M40 61h1v1H40z M40 62h1v1H40z M40 63h1v1H40z M40 64h1v1H40z M40 65h1v1H40z M40 66h1v1H40z M40 67h1v1H40z M40 68h1v1H40z M40 69h1v1H40z M40 70h1v1H40z M40 71h1v1H40z M40 72h1v1H40z M40 73h1v1H40z M40 74h1v1H40z M40 75h1v1H40z M40 76h1v1H40z M40 77h1v1H40z M40 78h1v1H40z M40 79h1v1H40z M40 80h1v1H40z M40 81h1v1H40z M40 82h1v1H40z M40 83h1v1H40z M40 84h1v1H40z M1 85h1v1H1z M40 85h1v1H40z M40 86h1v1H40z M40 87h1v1H40z M40 88h1v1H40z M40 89h1v1H40z M40 90h1v1H40z M40 91h1v1H40z M40 92h1v1H40z M40 93h1v1H40z M40 94h1v1H40z M40 95h1v1H40z M40 96h1v1H40z M40 97h1v1H40z M40 98h1v1H40z M40 99h1v1H40z M40 100h1v1H40z M40 101h1v1H40z M40 102h1v1H40z M40 103h1v1H40z M40 104h1v1H40z M40 105h1v1H40z M40 106h1v1H40z M40 107h1v1H40z M40 108h1v1H40z M40 109h1v1H40z M40 110h1v1H40z M40 111h1v1H40z M40 112h1v1H40z M40 113h1v1H40z M40 114h1v1H40z M40 115h1v1H40z M40 116h1v1H40z M40 117h1v1H40z M40 118h1v1H40z M40 119h1v1H40z M40 120h1v1H40z M40 121h1v1H40z M40 122h1v1H40z M40 123h1v1H40z M40 124h1v1H40z M81 126h1v1H81z"/>
<path fill="#000000" fill-opacity="0.690" d="M97 0h1v1H97z M127 30h1v1H127z M64 31h1v1H64z M80 36h1v1H80z M80 37h1v1H80z M80 38h1v1H80z M80 39h1v1H80z M80 40h1v1H80z M80 41h1v1H80z M80 42h1v1H80z M80 43h1v1H80z M80 44h1v1H80z M80 45h1v1H80z M80 46h1v1H80z M80 47h1v1H80z M80 48h1v1H80z M80 49h1v1H80z M80 50h1v1H80z M80 51h1v1H80z M80 52h1v1H80z M80 53h1v1H80z M80 54h1v1H80z M71 55h1v1H71z M80 55h1v1H80z M80 56h1v1H80z M80 57h1v1H80z M80 58h1v1H80z M80 59h1v1H80z M80 60h1v1H80z M80 61h1v1H80z M80 62h1v1H80z M80 63h1v1H80z M80 64h1v1H80z M80 65h1v1H80z M80 66h1v1H80z M80 67h1v1H80z M80 68h1v1H80z M80 69h1v1H80z M80 70h1v1H80z M80 71h1v1H80z M80 72h1v1H80z M80 73h1v1H80z M80 74h1v1H80z M80 75h1v1H80z M80 76h1v1H80z M80 77h1v1H80z M80 78h1v1H80z M80 79h1v1H80z M80 80h1v1H80z M80 81h1v1H80z M80 82h1v1H80z M80 83h1v1H80z M4 84h24v1H4z M80 84h1v1H80z M80 85h1v1H80z M80 86h1v1H80z M80 87h1v1H80z M80 88h1v1H80z M80 89h1v1H80z M80 90h1v1H80z M80 91h1v1H80z M80 92h1v1H80z M80 93h1v1H80z M80 94h1v1H80z M80 95h1v1H80z M80 96h1v1H80z M80 97h1v1H80z M80 98h1v1H80z M80 99h1v1H80z M80 100h1v1H80z M80 101h1v1H80z M80 102h1v1H80z M80 103h1v1H80z M80 104h1v1H80z M80 105h1v1H80z M80 106h1v1H80z M80 107h1v1H80z M80 108h1v1H80z M80 109h1v1H80z M80 110h1v1H80z M80 111h1v1H80z M80 112h1v1H80z M80 113h1v1H80z M80 114h1v1H80z M80 115h1v1H80z M80 116h1v1H80z M80 117h1v1H80z M80 118h1v1H80z M80 119h1v1H80z M80 120h1v1H80z M80 121h1v1H80z M80 122h1v1H80z M80 123h1v1H80z M111 125h1v1H111z M42 127h1v1H42z M109 127h1v1H109z"/>
<path fill="#000000" fill-opacity="0.753" d="M126 34h1v1H126z M43 52h1v1H43z M68 52h1v1H68z M70 53h1v1H70z M40 55h1v1H40z M71 56h1v1H71z M71 57h1v1H71z M71 58h1v1H71z M71 59h1v1H71z M71 60h1v1H71z M71 61h1v1H71z M71 62h1v1H71z M71 63h1v1H71z M71 64h1v1H71z M71 65h1v1H71z M71 66h1v1H71z M71 67h1v1H71z M71 68h1v1H71z M71 69h1v1H71z M71 70h1v1H71z M71 71h1v1H71z M71 72h1v1H71z M71 73h1v1H71z M71 74h1v1H71z M71 75h1v1H71z M71 76h1v1H71z M71 77h1v1H71z M71 78h1v1H71z M71 79h1v1H71z M71 80h1v1H71z M71 81h1v1H71z M71 82h1v1H71z M71 83h1v1H71z M71 84h1v1H71z M71 85h1v1H71z M71 86h1v1H71z M71 87h1v1H71z M71 88h1v1H71z M71 89h1v1H71z M71 90h1v1H71z M71 91h1v1H71z M71 92h1v1H71z M71 93h1v1H71z M71 94h1v1H71z M71 95h1v1H71z M71 96h1v1H71z M71 97h1v1H71z M71 98h1v1H71z M71 99h1v1H71z M71 100h1v1H71z M71 101h1v1H71z M71 102h1v1H71z M71 103h1v1H71z M71 104h1v1H71z M71 105h1v1H71z M71 106h1v1H71z M71 107h1v1H71z M71 108h1v1H71z M71 109h1v1H71z M71 110h1v1H71z M71 111h1v1H71z M71 112h1v1H71z M71 113h1v1H71z M71 114h1v1H71z M71 115h1v1H71z M71 116h1v1H71z M71 117h1v1H71z M71 118h1v1H71z M71 119h1v1H71z M71 120h1v1H71z M71 121h1v1H71z M71 122h1v1H71z M71 123h1v1H71z M71 124h1v1H71z M0 125h1v1H0z M30 126h1v1H30z M2 127h1v1H2z"/>
<path fill="#000000" fill-opacity="0.627" d="M94 0h1v1H94z M64 32h1v1H64z M68 35h12v1H68z M112 35h12v1H112z M3 84h1v1H3z M0 86h1v1H0z M31 88h1v1H31z M31 89h1v1H31z M31 90h1v1H31z M31 91h1v1H31z M31 92h1v1H31z M31 93h1v1H31z M31 94h1v1H31z M31 95h1v1H31z M31 96h1v1H31z M31 97h1v1H31z M31 98h1v1H31z M31 99h1v1H31z M31 100h1v1H31z M31 101h1v1H31z M31 102h1v1H31z M31 103h1v1H31z M31 104h1v1H31z M31 105h1v1H31z M31 106h1v1H31z M31 107h1v1H31z M31 108h1v1H31z M31 109h1v1H31z M31 110h1v1H31z M31 111h1v1H31z M31 112h1v1H31z M31 113h1v1H31z M31 114h1v1H31z M31 115h1v1H31z M31 116h1v1H31z M31 117h1v1H31z M31 118h1v1H31z M31 119h1v1H31z M31 120h1v1H31z M31 121h1v1H31z M31 122h1v1H31z M31 123h1v1H31z M80 124h1v1H80z M69 127h1v1H69z"/>
<path fill="#000000" fill-opacity="0.251" d="M99 1h1v1H99z M100 2h1v1H100z M101 3h1v1H101z M102 4h1v1H102z M103 5h1v1H103z M104 6h1v1H104z M105 7h1v1H105z M106 8h1v1H106z M107 9h1v1H107z M108 10h1v1H108z M109 11h1v1H109z M110 12h1v1H110z M111 13h1v1H111z M112 14h1v1H112z M113 15h1v1H113z M114 16h1v1H114z M115 17h1v1H115z M116 18h1v1H116z M117 19h1v1H117z M118 20h1v1H118z M119 21h1v1H119z M120 22h1v1H120z M121 23h1v1H121z M122 24h1v1H122z M123 25h1v1H123z M124 26h1v1H124z M125 27h1v1H125z M126 28h1v1H126z M66 35h1v1H66z M29 84h1v1H29z"/>
<path fill="#000000" fill-opacity="0.565" d="M127 33h1v1H127z M65 34h1v1H65z M124 35h1v1H124z M28 84h1v1H28z M31 124h1v1H31z M40 125h1v1H40z M29 127h1v1H29z M82 127h1v1H82z"/>
<path fill="#000000" fill-opacity="0.878" d="M95 0h1v1H95z M127 32h1v1H127z M80 35h1v1H80z M111 124h1v1H111z M70 126h1v1H70z M28 127h1v1H28z"/>
<path fill="#000000" fill-opacity="0.502" d="M67 35h1v1H67z M42 52h1v1H42z M40 54h1v1H40z M30 85h1v1H30z M31 87h1v1H31z M71 125h1v1H71z"/>
<path fill="#000000" fill-opacity="0.188" d="M98 0h1v1H98z M127 29h1v1H127z M31 86h1v1H31z M0 126h1v1H0z M1 127h1v1H1z"/>
<path fill="#000000" fill-opacity="0.439" d="M64 30h1v1H64z M69 52h1v1H69z M71 54h1v1H71z M2 84h1v1H2z M80 125h1v1H80z"/>
<path fill="#000000" fill-opacity="0.125" d="M111 126h1v1H111z M41 127h1v1H41z M110 127h1v1H110z"/>
<path fill="#000000" fill-opacity="0.376" d="M125 35h1v1H125z M31 125h1v1H31z"/>
<path fill="#000000" fill-opacity="0.314" d="M64 33h1v1H64z"/>
</svg>
