<svg xmlns="http://www.w3.org/2000/svg" viewBox="0 0 128 128" width="128" height="128" role="img">
<path fill="#000000" d="M63 4h2v1H63z M53 5h22v1H53z M49 6h30v1H49z M45 7h38v1H45z M43 8h42v1H43z M40 9h48v1H40z M38 10h52v1H38z M36 11h56v1H36z M34 12h60v1H34z M33 13h62v1H33z M31 14h66v1H31z M30 15h68v1H30z M28 16h72v1H28z M27 17h74v1H27z M26 18h76v1H26z M25 19h78v1H25z M24 20h80v1H24z M22 21h84v1H22z M21 22h86v1H21z M21 23h86v1H21z M20 24h88v1H20z M19 25h90v1H19z M18 26h92v1H18z M17 27h94v1H17z M16 28h23v1H16z M49 28h63v1H49z M16 29h21v1H16z M51 29h61v1H51z M15 30h21v1H15z M52 30h61v1H52z M14 31h21v1H14z M53 31h61v1H53z M14 32h20v1H14z M54 32h60v1H54z M13 33h20v1H13z M55 33h60v1H55z M12 34h21v1H12z M55 34h61v1H55z M12 35h20v1H12z M56 35h60v1H56z M11 36h21v1H11z M56 36h61v1H56z M11 37h21v1H11z M56 37h61v1H56z M10 38h22v1H10z M56 38h62v1H56z M10 39h22v1H10z M56 39h62v1H56z M9 40h23v1H9z M56 40h63v1H56z M9 41h23v1H9z M56 41h63v1H56z M9 42h23v1H9z M56 42h63v1H56z M8 43h24v1H8z M56 43h64v1H56z M8 44h24v1H8z M56 44h64v1H56z M7 45h26v1H7z M55 45h66v1H55z M7 46h26v1H7z M55 46h66v1H55z M7 47h27v1H7z M54 47h67v1H54z M7 48h28v1H7z M53 48h68v1H53z M6 49h30v1H6z M52 49h70v1H52z M6 50h31v1H6z M51 50h34v1H51z M95 50h27v1H95z M6 51h33v1H6z M49 51h34v1H49z M97 51h25v1H97z M6 52h76v1H6z M98 52h24v1H98z M5 53h76v1H5z M99 53h24v1H99z M5 54h75v1H5z M100 54h23v1H100z M5 55h74v1H5z M101 55h22v1H101z M5 56h74v1H5z M101 56h22v1H101z M5 57h73v1H5z M102 57h21v1H102z M5 58h36v1H5z M102 58h21v1H102z M5 59h35v1H5z M102 59h21v1H102z M5 60h35v1H5z M102 60h21v1H102z M5 61h35v1H5z M102 61h21v1H102z M5 62h35v1H5z M102 62h21v1H102z M4 63h36v1H4z M102 63h22v1H102z M4 64h36v1H4z M102 64h22v1H102z M5 65h35v1H5z M102 65h21v1H102z M5 66h35v1H5z M48 66h30v1H48z M102 66h21v1H102z M5 67h35v1H5z M48 67h31v1H48z M101 67h22v1H101z M5 68h35v1H5z M48 68h31v1H48z M101 68h22v1H101z M5 69h35v1H5z M48 69h32v1H48z M100 69h23v1H100z M5 70h35v1H5z M48 70h33v1H48z M99 70h24v1H99z M5 71h35v1H5z M48 71h34v1H48z M98 71h25v1H98z M5 72h35v1H5z M48 72h35v1H48z M97 72h26v1H97z M5 73h35v1H5z M48 73h37v1H48z M95 73h28v1H95z M5 74h35v1H5z M48 74h75v1H48z M6 75h34v1H6z M48 75h74v1H48z M6 76h34v1H6z M48 76h74v1H48z M6 77h34v1H6z M48 77h74v1H48z M6 78h34v1H6z M48 78h74v1H48z M7 79h33v1H7z M48 79h73v1H48z M7 80h33v1H7z M48 80h73v1H48z M7 81h31v1H7z M50 81h71v1H50z M7 82h30v1H7z M51 82h70v1H51z M8 83h28v1H8z M52 83h68v1H52z M8 84h27v1H8z M53 84h67v1H53z M9 85h26v1H9z M53 85h66v1H53z M9 86h25v1H9z M54 86h65v1H54z M9 87h25v1H9z M54 87h65v1H54z M10 88h24v1H10z M54 88h64v1H54z M10 89h24v1H10z M54 89h64v1H54z M11 90h23v1H11z M54 90h63v1H54z M11 91h23v1H11z M54 91h63v1H54z M12 92h22v1H12z M54 92h62v1H54z M12 93h22v1H12z M54 93h62v1H54z M13 94h22v1H13z M53 94h62v1H53z M14 95h21v1H14z M53 95h61v1H53z M14 96h22v1H14z M52 96h62v1H52z M15 97h22v1H15z M51 97h62v1H51z M16 98h22v1H16z M50 98h62v1H50z M16 99h24v1H16z M48 99h64v1H48z M17 100h94v1H17z M18 101h92v1H18z M19 102h90v1H19z M20 103h88v1H20z M21 104h86v1H21z M21 105h86v1H21z M22 106h84v1H22z M24 107h80v1H24z M25 108h78v1H25z M26 109h76v1H26z M27 110h74v1H27z M28 111h72v1H28z M30 112h68v1H30z M31 113h66v1H31z M33 114h62v1H33z M34 115h60v1H34z M36 116h56v1H36z M38 117h52v1H38z M40 118h48v1H40z M43 119h42v1H43z M45 120h38v1H45z M49 121h30v1H49z M53 122h22v1H53z M63 123h2v1H63z"/>
<path fill="#000000" fill-opacity="0.878" d="M60 4h1v1H60z M67 4h1v1H67z M52 5h1v1H52z M75 5h1v1H75z M48 6h1v1H48z M79 6h1v1H79z M25 18h1v1H25z M102 18h1v1H102z M18 25h1v1H18z M109 25h1v1H109z M39 28h1v1H39z M48 28h1v1H48z M37 29h1v1H37z M50 29h1v1H50z M33 33h1v1H33z M54 33h1v1H54z M32 35h1v1H32z M55 35h1v1H55z M32 44h1v1H32z M55 44h1v1H55z M33 46h1v1H33z M54 46h1v1H54z M6 48h1v1H6z M37 50h1v1H37z M50 50h1v1H50z M85 50h1v1H85z M94 50h1v1H94z M39 51h1v1H39z M48 51h1v1H48z M83 51h1v1H83z M96 51h1v1H96z M5 52h1v1H5z M122 52h1v1H122z M79 55h1v1H79z M100 55h1v1H100z M78 57h1v1H78z M101 57h1v1H101z M41 58h1v1H41z M40 59h1v1H40z M4 60h1v1H4z M123 60h1v1H123z M78 66h1v1H78z M101 66h1v1H101z M4 67h1v1H4z M123 67h1v1H123z M79 68h1v1H79z M100 68h1v1H100z M83 72h1v1H83z M96 72h1v1H96z M85 73h1v1H85z M94 73h1v1H94z M5 75h1v1H5z M122 75h1v1H122z M6 79h1v1H6z M18 102h1v1H18z M109 102h1v1H109z M25 109h1v1H25z M102 109h1v1H102z M29 112h1v1H29z M52 122h1v1H52z M75 122h1v1H75z M60 123h1v1H60z M67 123h1v1H67z"/>
<path fill="#000000" fill-opacity="0.941" d="M61 4h2v1H61z M65 4h2v1H65z M42 8h1v1H42z M85 8h1v1H85z M32 13h1v1H32z M95 13h1v1H95z M29 15h1v1H29z M98 15h1v1H98z M24 19h1v1H24z M103 19h1v1H103z M23 20h1v1H23z M104 20h1v1H104z M20 23h1v1H20z M107 23h1v1H107z M19 24h1v1H19z M108 24h1v1H108z M15 29h1v1H15z M112 29h1v1H112z M13 32h1v1H13z M114 32h1v1H114z M8 42h1v1H8z M119 42h1v1H119z M121 48h1v1H121z M4 61h1v1H4z M123 61h1v1H123z M4 62h1v1H4z M123 62h1v1H123z M4 65h1v1H4z M123 65h1v1H123z M4 66h1v1H4z M123 66h1v1H123z M121 79h1v1H121z M8 85h1v1H8z M119 85h1v1H119z M13 95h1v1H13z M114 95h1v1H114z M15 98h1v1H15z M112 98h1v1H112z M19 103h1v1H19z M108 103h1v1H108z M20 104h1v1H20z M107 104h1v1H107z M23 107h1v1H23z M104 107h1v1H104z M24 108h1v1H24z M103 108h1v1H103z M98 112h1v1H98z M32 114h1v1H32z M95 114h1v1H95z M42 119h1v1H42z M85 119h1v1H85z M48 121h1v1H48z M79 121h1v1H79z M61 123h2v1H61z M65 123h2v1H65z"/>
<path fill="#000000" fill-opacity="0.690" d="M51 5h1v1H51z M76 5h1v1H76z M44 7h1v1H44z M39 9h1v1H39z M36 30h1v1H36z M51 30h1v1H51z M34 32h1v1H34z M53 32h1v1H53z M7 44h1v1H7z M120 44h1v1H120z M34 47h1v1H34z M53 47h1v1H53z M121 47h1v1H121z M36 49h1v1H36z M51 49h1v1H51z M5 51h1v1H5z M122 51h1v1H122z M82 52h1v1H82z M97 52h1v1H97z M99 54h1v1H99z M99 69h1v1H99z M82 71h1v1H82z M97 71h1v1H97z M5 76h1v1H5z M122 76h1v1H122z M121 80h1v1H121z M38 81h1v1H38z M49 81h1v1H49z M7 83h1v1H7z M120 83h1v1H120z M35 84h1v1H35z M52 84h1v1H52z M53 86h1v1H53z M34 93h1v1H34z M53 93h1v1H53z M35 95h1v1H35z M52 95h1v1H52z M38 98h1v1H38z M49 98h1v1H49z M40 99h1v1H40z M47 99h1v1H47z M39 118h1v1H39z M44 120h1v1H44z M47 121h1v1H47z M80 121h1v1H80z M51 122h1v1H51z M76 122h1v1H76z"/>
<path fill="#000000" fill-opacity="0.125" d="M29 14h1v1H29z M98 14h1v1H98z M25 17h1v1H25z M102 17h1v1H102z M17 25h1v1H17z M110 25h1v1H110z M42 28h1v1H42z M45 28h1v1H45z M14 29h1v1H14z M113 29h1v1H113z M32 38h1v1H32z M55 38h1v1H55z M32 41h1v1H32z M55 41h1v1H55z M88 50h1v1H88z M91 50h1v1H91z M42 51h1v1H42z M45 51h1v1H45z M101 60h1v1H101z M101 63h1v1H101z M88 73h1v1H88z M91 73h1v1H91z M39 81h1v1H39z M48 81h1v1H48z M35 85h1v1H35z M52 85h1v1H52z M34 88h1v1H34z M53 88h1v1H53z M34 91h1v1H34z M53 91h1v1H53z M35 94h1v1H35z M52 94h1v1H52z M14 98h1v1H14z M39 98h1v1H39z M48 98h1v1H48z M113 98h1v1H113z M42 99h1v1H42z M45 99h1v1H45z M17 102h1v1H17z M110 102h1v1H110z M18 103h1v1H18z M109 103h1v1H109z M103 109h1v1H103z M25 110h1v1H25z M102 110h1v1H102z M29 113h1v1H29z M98 113h1v1H98z"/>
<path fill="#000000" fill-opacity="0.314" d="M55 4h1v1H55z M72 4h1v1H72z M43 7h1v1H43z M89 9h1v1H89z M91 10h1v1H91z M28 15h1v1H28z M99 15h1v1H99z M105 20h1v1H105z M20 22h1v1H20z M107 22h1v1H107z M15 28h1v1H15z M112 28h1v1H112z M49 29h1v1H49z M10 36h1v1H10z M55 37h1v1H55z M55 42h1v1H55z M7 43h1v1H7z M120 43h1v1H120z M87 50h1v1H87z M41 51h1v1H41z M46 51h1v1H46z M4 55h1v1H4z M123 55h1v1H123z M42 58h1v1H42z M101 59h1v1H101z M101 64h1v1H101z M4 72h1v1H4z M123 72h1v1H123z M87 73h1v1H87z M92 73h1v1H92z M7 84h1v1H7z M120 84h1v1H120z M34 87h1v1H34z M53 87h1v1H53z M10 91h1v1H10z M15 99h1v1H15z M112 99h1v1H112z M106 106h1v1H106z M105 107h1v1H105z M99 112h1v1H99z M91 117h1v1H91z M43 120h1v1H43z M55 123h1v1H55z M72 123h1v1H72z"/>
<path fill="#000000" fill-opacity="0.753" d="M58 4h1v1H58z M69 4h1v1H69z M83 7h1v1H83z M88 9h1v1H88z M37 10h1v1H37z M30 14h1v1H30z M97 14h1v1H97z M101 17h1v1H101z M17 26h1v1H17z M14 30h1v1H14z M113 30h1v1H113z M10 37h1v1H10z M117 37h1v1H117z M9 39h1v1H9z M118 39h1v1H118z M4 58h1v1H4z M123 58h1v1H123z M4 69h1v1H4z M123 69h1v1H123z M9 88h1v1H9z M118 88h1v1H118z M10 90h1v1H10z M117 90h1v1H117z M116 92h1v1H116z M14 97h1v1H14z M113 97h1v1H113z M17 101h1v1H17z M110 101h1v1H110z M26 110h1v1H26z M101 110h1v1H101z M30 113h1v1H30z M97 113h1v1H97z M92 116h1v1H92z M37 117h1v1H37z M90 117h1v1H90z M88 118h1v1H88z M83 120h1v1H83z M58 123h1v1H58z M69 123h1v1H69z"/>
<path fill="#000000" fill-opacity="0.376" d="M46 6h1v1H46z M81 6h1v1H81z M84 7h1v1H84z M31 13h1v1H31z M21 21h1v1H21z M106 21h1v1H106z M38 29h1v1H38z M13 31h1v1H13z M114 31h1v1H114z M33 34h1v1H33z M54 34h1v1H54z M33 45h1v1H33z M54 45h1v1H54z M6 46h1v1H6z M121 46h1v1H121z M38 50h1v1H38z M49 50h1v1H49z M84 51h1v1H84z M95 51h1v1H95z M79 56h1v1H79z M100 56h1v1H100z M40 60h1v1H40z M79 67h1v1H79z M100 67h1v1H100z M84 72h1v1H84z M95 72h1v1H95z M6 81h1v1H6z M121 81h1v1H121z M34 92h1v1H34z M53 92h1v1H53z M13 96h1v1H13z M114 96h1v1H114z M41 99h1v1H41z M46 99h1v1H46z M21 106h1v1H21z M31 114h1v1H31z M84 120h1v1H84z M46 121h1v1H46z M81 121h1v1H81z"/>
<path fill="#000000" fill-opacity="0.188" d="M54 4h1v1H54z M73 4h1v1H73z M49 5h1v1H49z M78 5h1v1H78z M40 8h1v1H40z M87 8h1v1H87z M24 18h1v1H24z M103 18h1v1H103z M23 19h1v1H23z M19 23h1v1H19z M18 24h1v1H18z M109 24h1v1H109z M8 40h1v1H8z M119 40h1v1H119z M5 49h1v1H5z M4 54h1v1H4z M123 54h1v1H123z M4 73h1v1H4z M123 73h1v1H123z M5 78h1v1H5z M122 78h1v1H122z M8 87h1v1H8z M119 87h1v1H119z M116 93h1v1H116z M19 104h1v1H19z M23 108h1v1H23z M24 109h1v1H24z M34 116h1v1H34z M93 116h1v1H93z M40 119h1v1H40z M87 119h1v1H87z M54 123h1v1H54z M73 123h1v1H73z"/>
<path fill="#000000" fill-opacity="0.251" d="M38 9h1v1H38z M36 10h1v1H36z M34 11h1v1H34z M93 11h1v1H93z M104 19h1v1H104z M22 20h1v1H22z M108 23h1v1H108z M41 28h1v1H41z M46 28h1v1H46z M11 34h1v1H11z M116 34h1v1H116z M117 36h1v1H117z M32 37h1v1H32z M9 38h1v1H9z M118 38h1v1H118z M32 42h1v1H32z M122 49h1v1H122z M92 50h1v1H92z M9 89h1v1H9z M118 89h1v1H118z M117 91h1v1H117z M11 93h1v1H11z M108 104h1v1H108z M20 105h1v1H20z M107 105h1v1H107z M22 107h1v1H22z M104 108h1v1H104z M28 112h1v1H28z M36 117h1v1H36z M38 118h1v1H38z M89 118h1v1H89z M49 122h1v1H49z M78 122h1v1H78z"/>
<path fill="#000000" fill-opacity="0.565" d="M33 12h1v1H33z M100 16h1v1H100z M16 27h1v1H16z M111 27h1v1H111z M40 28h1v1H40z M47 28h1v1H47z M35 31h1v1H35z M52 31h1v1H52z M32 36h1v1H32z M55 36h1v1H55z M119 41h1v1H119z M32 43h1v1H32z M55 43h1v1H55z M35 48h1v1H35z M52 48h1v1H52z M93 50h1v1H93z M40 51h1v1H40z M47 51h1v1H47z M81 53h1v1H81z M98 53h1v1H98z M101 58h1v1H101z M101 65h1v1H101z M81 70h1v1H81z M98 70h1v1H98z M86 73h1v1H86z M93 73h1v1H93z M119 86h1v1H119z M115 94h1v1H115z M16 100h1v1H16z M100 111h1v1H100z M33 115h1v1H33z M86 119h1v1H86z"/>
<path fill="#000000" fill-opacity="0.627" d="M57 4h1v1H57z M70 4h1v1H70z M47 6h1v1H47z M80 6h1v1H80z M41 8h1v1H41z M86 8h1v1H86z M94 12h1v1H94z M12 33h1v1H12z M115 33h1v1H115z M8 41h1v1H8z M6 47h1v1H6z M80 54h1v1H80z M4 57h1v1H4z M123 57h1v1H123z M80 69h1v1H80z M4 70h1v1H4z M123 70h1v1H123z M6 80h1v1H6z M8 86h1v1H8z M34 86h1v1H34z M12 94h1v1H12z M94 115h1v1H94z M41 119h1v1H41z M57 123h1v1H57z M70 123h1v1H70z"/>
<path fill="#000000" fill-opacity="0.439" d="M50 5h1v1H50z M77 5h1v1H77z M96 13h1v1H96z M5 50h1v1H5z M122 50h1v1H122z M5 77h1v1H5z M122 77h1v1H122z M37 82h1v1H37z M50 82h1v1H50z M36 83h1v1H36z M51 83h1v1H51z M36 96h1v1H36z M51 96h1v1H51z M37 97h1v1H37z M50 97h1v1H50z M96 114h1v1H96z M50 122h1v1H50z M77 122h1v1H77z"/>
<path fill="#000000" fill-opacity="0.816" d="M59 4h1v1H59z M68 4h1v1H68z M90 10h1v1H90z M35 11h1v1H35z M92 11h1v1H92z M26 17h1v1H26z M110 26h1v1H110z M11 35h1v1H11z M116 35h1v1H116z M4 59h1v1H4z M123 59h1v1H123z M4 68h1v1H4z M123 68h1v1H123z M11 92h1v1H11z M35 116h1v1H35z M59 123h1v1H59z M68 123h1v1H68z"/>
<path fill="#000000" fill-opacity="0.502" d="M56 4h1v1H56z M71 4h1v1H71z M27 16h1v1H27z M86 50h1v1H86z M4 56h1v1H4z M123 56h1v1H123z M4 71h1v1H4z M123 71h1v1H123z M111 100h1v1H111z M27 111h1v1H27z M56 123h1v1H56z M71 123h1v1H71z"/>
</svg>
