<svg xmlns="http://www.w3.org/2000/svg" viewBox="0 0 128 128" width="128" height="128" role="img">
<path fill="#000000" d="M54 3h20v1H54z M52 4h24v1H52z M50 5h28v1H50z M49 6h30v1H49z M49 7h30v1H49z M48 8h32v1H48z M48 9h32v1H48z M48 10h32v1H48z M48 11h32v1H48z M47 12h34v1H47z M47 13h34v1H47z M47 14h34v1H47z M47 15h34v1H47z M47 16h34v1H47z M46 17h36v1H46z M46 18h36v1H46z M45 19h38v1H45z M45 20h38v1H45z M44 21h40v1H44z M22 22h1v1H22z M43 22h42v1H43z M105 22h1v1H105z M19 23h8v1H19z M41 23h46v1H41z M101 23h8v1H101z M17 24h12v1H17z M39 24h50v1H39z M99 24h12v1H99z M16 25h96v1H16z M15 26h98v1H15z M15 27h98v1H15z M14 28h100v1H14z M13 29h102v1H13z M13 30h102v1H13z M12 31h104v1H12z M11 32h106v1H11z M11 33h106v1H11z M10 34h108v1H10z M10 35h108v1H10z M9 36h110v1H9z M9 37h110v1H9z M8 38h112v1H8z M8 39h112v1H8z M7 40h114v1H7z M7 41h114v1H7z M7 42h114v1H7z M6 43h116v1H6z M6 44h116v1H6z M6 45h54v1H6z M68 45h54v1H68z M6 46h51v1H6z M71 46h51v1H71z M7 47h48v1H7z M73 47h48v1H73z M7 48h46v1H7z M75 48h46v1H75z M8 49h44v1H8z M76 49h44v1H76z M9 50h42v1H9z M77 50h42v1H77z M10 51h40v1H10z M78 51h40v1H78z M11 52h38v1H11z M79 52h38v1H79z M13 53h35v1H13z M80 53h35v1H80z M14 54h34v1H14z M80 54h34v1H80z M15 55h32v1H15z M81 55h32v1H81z M15 56h32v1H15z M81 56h32v1H81z M16 57h30v1H16z M82 57h30v1H82z M16 58h30v1H16z M82 58h30v1H82z M17 59h29v1H17z M82 59h29v1H82z M17 60h28v1H17z M83 60h28v1H83z M17 61h28v1H17z M83 61h28v1H83z M17 62h28v1H17z M83 62h28v1H83z M17 63h28v1H17z M83 63h28v1H83z M17 64h28v1H17z M83 64h28v1H83z M17 65h28v1H17z M83 65h28v1H83z M17 66h28v1H17z M83 66h28v1H83z M17 67h28v1H17z M83 67h28v1H83z M17 68h29v1H17z M82 68h29v1H82z M16 69h30v1H16z M82 69h30v1H82z M16 70h30v1H16z M82 70h30v1H82z M15 71h32v1H15z M81 71h32v1H81z M15 72h32v1H15z M81 72h32v1H81z M14 73h34v1H14z M80 73h34v1H80z M13 74h35v1H13z M80 74h35v1H80z M11 75h38v1H11z M79 75h38v1H79z M10 76h40v1H10z M78 76h40v1H78z M9 77h42v1H9z M77 77h42v1H77z M8 78h44v1H8z M76 78h44v1H76z M7 79h46v1H7z M75 79h46v1H75z M7 80h48v1H7z M73 80h48v1H73z M6 81h51v1H6z M71 81h51v1H71z M6 82h54v1H6z M68 82h54v1H68z M6 83h116v1H6z M6 84h116v1H6z M7 85h114v1H7z M7 86h114v1H7z M7 87h114v1H7z M8 88h112v1H8z M8 89h112v1H8z M9 90h110v1H9z M9 91h110v1H9z M10 92h108v1H10z M10 93h108v1H10z M11 94h106v1H11z M11 95h106v1H11z M12 96h104v1H12z M13 97h102v1H13z M13 98h102v1H13z M14 99h100v1H14z M15 100h98v1H15z M15 101h98v1H15z M16 102h96v1H16z M17 103h12v1H17z M39 103h50v1H39z M99 103h12v1H99z M19 104h8v1H19z M41 104h46v1H41z M101 104h8v1H101z M22 105h1v1H22z M43 105h42v1H43z M44 106h40v1H44z M45 107h38v1H45z M45 108h38v1H45z M46 109h36v1H46z M46 110h36v1H46z M47 111h34v1H47z M47 112h34v1H47z M47 113h34v1H47z M47 114h34v1H47z M47 115h34v1H47z M48 116h32v1H48z M48 117h32v1H48z M48 118h32v1H48z M48 119h32v1H48z M49 120h30v1H49z M49 121h30v1H49z M50 122h28v1H50z M52 123h24v1H52z M54 124h20v1H54z"/>
<path fill="#000000" fill-opacity="0.941" d="M62 2h4v1H62z M53 3h1v1H53z M74 3h1v1H74z M51 4h1v1H51z M76 4h1v1H76z M47 11h1v1H47z M80 11h1v1H80z M44 20h1v1H44z M83 20h1v1H83z M43 21h1v1H43z M23 22h1v1H23z M42 22h1v1H42z M85 22h1v1H85z M104 22h1v1H104z M14 27h1v1H14z M113 27h1v1H113z M12 30h1v1H12z M115 30h1v1H115z M9 35h1v1H9z M118 35h1v1H118z M8 37h1v1H8z M119 37h1v1H119z M6 42h1v1H6z M121 42h1v1H121z M60 45h1v1H60z M67 45h1v1H67z M8 50h1v1H8z M119 50h1v1H119z M9 51h1v1H9z M118 51h1v1H118z M12 53h1v1H12z M115 53h1v1H115z M13 54h1v1H13z M114 54h1v1H114z M14 55h1v1H14z M113 55h1v1H113z M45 60h1v1H45z M82 60h1v1H82z M45 67h1v1H45z M82 67h1v1H82z M14 72h1v1H14z M113 72h1v1H113z M13 73h1v1H13z M114 73h1v1H114z M12 74h1v1H12z M115 74h1v1H115z M9 76h1v1H9z M118 76h1v1H118z M8 77h1v1H8z M119 77h1v1H119z M60 82h1v1H60z M67 82h1v1H67z M6 85h1v1H6z M121 85h1v1H121z M8 90h1v1H8z M119 90h1v1H119z M9 92h1v1H9z M118 92h1v1H118z M12 97h1v1H12z M115 97h1v1H115z M14 100h1v1H14z M113 100h1v1H113z M23 105h1v1H23z M42 105h1v1H42z M85 105h1v1H85z M104 105h2v1H104z M44 107h1v1H44z M83 107h1v1H83z M47 116h1v1H47z M80 116h1v1H80z M51 123h1v1H51z M76 123h1v1H76z M53 124h1v1H53z M74 124h1v1H74z M62 125h4v1H62z"/>
<path fill="#000000" fill-opacity="0.188" d="M54 2h1v1H54z M73 2h1v1H73z M48 6h1v1H48z M43 20h1v1H43z M84 20h1v1H84z M42 21h1v1H42z M85 21h1v1H85z M26 22h1v1H26z M101 22h1v1H101z M28 23h1v1H28z M39 23h1v1H39z M88 23h1v1H88z M122 44h1v1H122z M5 45h1v1H5z M122 45h1v1H122z M59 46h1v1H59z M68 46h1v1H68z M7 50h1v1H7z M119 51h1v1H119z M47 56h1v1H47z M81 59h1v1H81z M46 68h1v1H46z M81 68h1v1H81z M47 71h1v1H47z M80 71h1v1H80z M119 76h1v1H119z M7 77h1v1H7z M120 77h1v1H120z M56 80h1v1H56z M71 80h1v1H71z M59 81h1v1H59z M68 81h1v1H68z M5 82h1v1H5z M122 82h1v1H122z M36 103h1v1H36z M91 103h1v1H91z M28 104h1v1H28z M39 104h1v1H39z M88 104h1v1H88z M99 104h1v1H99z M26 105h1v1H26z M101 105h1v1H101z M42 106h1v1H42z M85 106h1v1H85z M43 107h1v1H43z M84 107h1v1H84z M82 110h1v1H82z M48 121h1v1H48z M79 121h1v1H79z M54 125h1v1H54z M73 125h1v1H73z"/>
<path fill="#000000" fill-opacity="0.251" d="M79 6h1v1H79z M46 14h1v1H46z M81 14h1v1H81z M45 17h1v1H45z M82 17h1v1H82z M99 23h1v1H99z M31 24h1v1H31z M36 24h1v1H36z M91 24h1v1H91z M96 24h1v1H96z M5 44h1v1H5z M56 47h1v1H56z M71 47h1v1H71z M54 48h1v1H54z M73 48h1v1H73z M8 51h1v1H8z M12 54h1v1H12z M48 54h1v1H48z M79 54h1v1H79z M115 54h1v1H115z M13 55h1v1H13z M114 55h1v1H114z M80 56h1v1H80z M15 58h1v1H15z M112 58h1v1H112z M16 61h1v1H16z M111 61h1v1H111z M16 66h1v1H16z M111 66h1v1H111z M15 69h1v1H15z M112 69h1v1H112z M13 72h1v1H13z M114 72h1v1H114z M12 73h1v1H12z M48 73h1v1H48z M79 73h1v1H79z M115 73h1v1H115z M8 76h1v1H8z M54 79h1v1H54z M73 79h1v1H73z M5 83h1v1H5z M122 83h1v1H122z M31 103h1v1H31z M96 103h1v1H96z M45 110h1v1H45z M46 113h1v1H46z M81 113h1v1H81z"/>
<path fill="#000000" fill-opacity="0.690" d="M58 2h1v1H58z M69 2h1v1H69z M20 22h1v1H20z M107 22h1v1H107z M27 23h1v1H27z M40 23h1v1H40z M87 23h1v1H87z M100 23h1v1H100z M11 31h1v1H11z M6 41h1v1H6z M121 41h1v1H121z M62 45h1v1H62z M65 45h1v1H65z M55 47h1v1H55z M72 47h1v1H72z M47 55h1v1H47z M80 55h1v1H80z M45 62h1v1H45z M82 62h1v1H82z M45 65h1v1H45z M82 65h1v1H82z M47 72h1v1H47z M80 72h1v1H80z M55 80h1v1H55z M72 80h1v1H72z M62 82h1v1H62z M65 82h1v1H65z M6 86h1v1H6z M121 86h1v1H121z M11 96h1v1H11z M116 96h1v1H116z M27 104h1v1H27z M40 104h1v1H40z M87 104h1v1H87z M100 104h1v1H100z M20 105h1v1H20z M107 105h1v1H107z M58 125h1v1H58z M69 125h1v1H69z"/>
<path fill="#000000" fill-opacity="0.816" d="M59 2h1v1H59z M68 2h1v1H68z M48 7h1v1H48z M79 7h1v1H79z M46 16h1v1H46z M81 16h1v1H81z M24 22h1v1H24z M103 22h1v1H103z M29 24h1v1H29z M98 24h1v1H98z M57 46h1v1H57z M70 46h1v1H70z M7 49h1v1H7z M120 49h1v1H120z M46 57h1v1H46z M81 57h1v1H81z M16 59h1v1H16z M111 59h1v1H111z M82 61h1v1H82z M45 66h1v1H45z M16 68h1v1H16z M111 68h1v1H111z M46 70h1v1H46z M81 70h1v1H81z M7 78h1v1H7z M120 78h1v1H120z M57 81h1v1H57z M70 81h1v1H70z M24 105h1v1H24z M103 105h1v1H103z M46 111h1v1H46z M81 111h1v1H81z M48 120h1v1H48z M79 120h1v1H79z M59 125h1v1H59z M67 125h1v1H67z"/>
<path fill="#000000" fill-opacity="0.878" d="M60 2h2v1H60z M66 2h2v1H66z M47 10h1v1H47z M80 10h1v1H80z M84 21h1v1H84z M21 22h1v1H21z M106 22h1v1H106z M18 23h1v1H18z M109 23h1v1H109z M10 33h1v1H10z M117 33h1v1H117z M7 39h1v1H7z M120 39h1v1H120z M53 48h1v1H53z M74 48h1v1H74z M48 53h1v1H48z M79 53h1v1H79z M48 74h1v1H48z M79 74h1v1H79z M53 79h1v1H53z M74 79h1v1H74z M7 88h1v1H7z M120 88h1v1H120z M10 94h1v1H10z M117 94h1v1H117z M18 104h1v1H18z M109 104h1v1H109z M21 105h1v1H21z M106 105h1v1H106z M43 106h1v1H43z M84 106h1v1H84z M47 117h1v1H47z M80 117h1v1H80z M60 125h2v1H60z M66 125h1v1H66z"/>
<path fill="#000000" fill-opacity="0.753" d="M45 18h1v1H45z M82 18h1v1H82z M38 24h1v1H38z M89 24h1v1H89z M13 28h1v1H13z M114 28h1v1H114z M116 31h1v1H116z M61 45h1v1H61z M66 45h1v1H66z M6 47h1v1H6z M121 47h1v1H121z M10 52h1v1H10z M117 52h1v1H117z M15 57h1v1H15z M112 57h1v1H112z M45 61h1v1H45z M82 66h1v1H82z M15 70h1v1H15z M112 70h1v1H112z M10 75h1v1H10z M117 75h1v1H117z M6 80h1v1H6z M121 80h1v1H121z M61 82h1v1H61z M66 82h1v1H66z M13 99h1v1H13z M114 99h1v1H114z M29 103h1v1H29z M38 103h1v1H38z M89 103h1v1H89z M98 103h1v1H98z M45 109h1v1H45z M82 109h1v1H82z M68 125h1v1H68z"/>
<path fill="#000000" fill-opacity="0.502" d="M56 2h1v1H56z M71 2h1v1H71z M52 3h1v1H52z M46 15h1v1H46z M81 15h1v1H81z M15 25h1v1H15z M112 25h1v1H112z M8 36h1v1H8z M119 36h1v1H119z M58 46h1v1H58z M51 50h1v1H51z M76 50h1v1H76z M50 51h1v1H50z M77 51h1v1H77z M81 58h1v1H81z M16 60h1v1H16z M111 60h1v1H111z M16 67h1v1H16z M111 67h1v1H111z M50 76h1v1H50z M77 76h1v1H77z M51 77h1v1H51z M76 77h1v1H76z M8 91h1v1H8z M119 91h1v1H119z M15 102h1v1H15z M112 102h1v1H112z M46 112h1v1H46z M81 112h1v1H81z M52 124h1v1H52z M75 124h1v1H75z M56 125h1v1H56z M71 125h1v1H71z"/>
<path fill="#000000" fill-opacity="0.376" d="M55 2h1v1H55z M72 2h1v1H72z M49 5h1v1H49z M78 5h1v1H78z M44 19h1v1H44z M83 19h1v1H83z M19 22h1v1H19z M41 22h1v1H41z M86 22h1v1H86z M108 22h1v1H108z M17 23h1v1H17z M110 23h1v1H110z M117 32h1v1H117z M6 48h1v1H6z M116 53h1v1H116z M113 56h1v1H113z M113 71h1v1H113z M116 74h1v1H116z M6 79h1v1H6z M121 79h1v1H121z M10 95h1v1H10z M17 104h1v1H17z M19 105h1v1H19z M41 105h1v1H41z M86 105h1v1H86z M108 105h1v1H108z M44 108h1v1H44z M83 108h1v1H83z M49 122h1v1H49z M78 122h1v1H78z M55 125h1v1H55z M72 125h1v1H72z"/>
<path fill="#000000" fill-opacity="0.439" d="M30 24h1v1H30z M37 24h1v1H37z M90 24h1v1H90z M97 24h1v1H97z M12 29h1v1H12z M115 29h1v1H115z M9 34h1v1H9z M118 34h1v1H118z M7 38h1v1H7z M120 38h1v1H120z M69 46h1v1H69z M11 53h1v1H11z M14 56h1v1H14z M46 58h1v1H46z M46 69h1v1H46z M81 69h1v1H81z M14 71h1v1H14z M11 74h1v1H11z M58 81h1v1H58z M69 81h1v1H69z M7 89h1v1H7z M120 89h1v1H120z M9 93h1v1H9z M118 93h1v1H118z M12 98h1v1H12z M115 98h1v1H115z M30 103h1v1H30z M37 103h1v1H37z M90 103h1v1H90z M97 103h1v1H97z"/>
<path fill="#000000" fill-opacity="0.125" d="M46 13h1v1H46z M81 13h1v1H81z M13 27h1v1H13z M114 27h1v1H114z M11 30h1v1H11z M116 30h1v1H116z M5 43h1v1H5z M122 43h1v1H122z M120 50h1v1H120z M9 52h1v1H9z M118 52h1v1H118z M46 59h1v1H46z M16 62h1v1H16z M16 65h1v1H16z M9 75h1v1H9z M118 75h1v1H118z M5 84h1v1H5z M122 84h1v1H122z M11 97h1v1H11z M116 97h1v1H116z M13 100h1v1H13z M114 100h1v1H114z M46 114h1v1H46z M81 114h1v1H81z"/>
<path fill="#000000" fill-opacity="0.314" d="M50 4h1v1H50z M77 4h1v1H77z M47 8h1v1H47z M80 8h1v1H80z M14 26h1v1H14z M113 26h1v1H113z M10 32h1v1H10z M6 40h1v1H6z M121 40h1v1H121z M121 48h1v1H121z M6 87h1v1H6z M121 87h1v1H121z M117 95h1v1H117z M14 101h1v1H14z M113 101h1v1H113z M110 104h1v1H110z M47 119h1v1H47z M80 119h1v1H80z M50 123h1v1H50z M77 123h1v1H77z"/>
<path fill="#000000" fill-opacity="0.627" d="M70 2h1v1H70z M47 9h1v1H47z M80 9h1v1H80z M63 45h2v1H63z M52 49h1v1H52z M75 49h1v1H75z M49 52h1v1H49z M78 52h1v1H78z M45 63h1v1H45z M82 63h1v1H82z M45 64h1v1H45z M82 64h1v1H82z M49 75h1v1H49z M78 75h1v1H78z M52 78h1v1H52z M75 78h1v1H75z M63 82h2v1H63z M47 118h1v1H47z M80 118h1v1H80z"/>
<path fill="#000000" fill-opacity="0.565" d="M57 2h1v1H57z M75 3h1v1H75z M25 22h1v1H25z M102 22h1v1H102z M16 24h1v1H16z M111 24h1v1H111z M16 103h1v1H16z M111 103h1v1H111z M25 105h1v1H25z M102 105h1v1H102z M57 125h1v1H57z M70 125h1v1H70z"/>
</svg>
