<svg xmlns="http://www.w3.org/2000/svg" viewBox="0 0 128 128" width="128" height="128" role="img">
<path fill="#000000" d="M55 6h18v1H55z M50 7h28v1H50z M47 8h35v1H47z M44 9h40v1H44z M41 10h46v1H41z M39 11h50v1H39z M37 12h54v1H37z M35 13h58v1H35z M34 14h61v1H34z M32 15h64v1H32z M31 16h67v1H31z M29 17h70v1H29z M28 18h72v1H28z M27 19h75v1H27z M26 20h77v1H26z M25 21h79v1H25z M23 22h82v1H23z M22 23h84v1H22z M22 24h85v1H22z M21 25h87v1H21z M20 26h89v1H20z M19 27h90v1H19z M18 28h92v1H18z M17 29h94v1H17z M17 30h95v1H17z M16 31h96v1H16z M15 32h98v1H15z M15 33h99v1H15z M14 34h100v1H14z M13 35h102v1H13z M13 36h102v1H13z M12 37h49v1H12z M67 37h49v1H67z M12 38h48v1H12z M68 38h48v1H68z M11 39h48v1H11z M69 39h48v1H69z M11 40h48v1H11z M70 40h47v1H70z M10 41h48v1H10z M70 41h48v1H70z M10 42h48v1H10z M70 42h48v1H70z M10 43h48v1H10z M70 43h49v1H70z M9 44h49v1H9z M70 44h49v1H70z M9 45h49v1H9z M70 45h49v1H70z M9 46h49v1H9z M70 46h50v1H70z M8 47h50v1H8z M70 47h50v1H70z M8 48h50v1H8z M70 48h50v1H70z M8 49h50v1H8z M70 49h50v1H70z M7 50h51v1H7z M70 50h51v1H70z M7 51h51v1H7z M70 51h51v1H70z M7 52h51v1H7z M70 52h51v1H70z M7 53h51v1H7z M70 53h51v1H70z M7 54h51v1H7z M70 54h52v1H70z M6 55h52v1H6z M70 55h52v1H70z M6 56h52v1H6z M70 56h52v1H70z M6 57h52v1H6z M70 57h52v1H70z M6 58h35v1H6z M87 58h35v1H87z M6 59h33v1H6z M89 59h33v1H89z M6 60h32v1H6z M90 60h32v1H90z M6 61h31v1H6z M91 61h31v1H91z M6 62h31v1H6z M91 62h31v1H91z M6 63h31v1H6z M91 63h31v1H91z M6 64h31v1H6z M91 64h31v1H91z M6 65h31v1H6z M91 65h31v1H91z M6 66h31v1H6z M91 66h31v1H91z M6 67h32v1H6z M90 67h32v1H90z M6 68h32v1H6z M89 68h33v1H89z M6 69h34v1H6z M88 69h34v1H88z M6 70h52v1H6z M70 70h52v1H70z M6 71h52v1H6z M70 71h52v1H70z M6 72h52v1H6z M70 72h52v1H70z M7 73h51v1H7z M70 73h52v1H70z M7 74h51v1H7z M70 74h51v1H70z M7 75h51v1H7z M70 75h51v1H70z M7 76h51v1H7z M70 76h51v1H70z M7 77h51v1H7z M70 77h51v1H70z M8 78h50v1H8z M70 78h50v1H70z M8 79h50v1H8z M70 79h50v1H70z M8 80h50v1H8z M70 80h50v1H70z M8 81h50v1H8z M70 81h50v1H70z M9 82h49v1H9z M70 82h49v1H70z M9 83h49v1H9z M70 83h49v1H70z M10 84h48v1H10z M70 84h49v1H70z M10 85h48v1H10z M70 85h48v1H70z M10 86h48v1H10z M70 86h48v1H70z M11 87h48v1H11z M70 87h47v1H70z M11 88h48v1H11z M69 88h48v1H69z M12 89h48v1H12z M68 89h48v1H68z M12 90h49v1H12z M67 90h49v1H67z M13 91h102v1H13z M13 92h102v1H13z M14 93h100v1H14z M15 94h99v1H15z M15 95h98v1H15z M16 96h96v1H16z M16 97h96v1H16z M17 98h94v1H17z M18 99h92v1H18z M19 100h90v1H19z M20 101h89v1H20z M20 102h88v1H20z M21 103h86v1H21z M22 104h84v1H22z M23 105h82v1H23z M24 106h80v1H24z M25 107h78v1H25z M27 108h75v1H27z M28 109h72v1H28z M29 110h70v1H29z M30 111h68v1H30z M32 112h64v1H32z M33 113h62v1H33z M35 114h58v1H35z M37 115h54v1H37z M39 116h50v1H39z M41 117h46v1H41z M43 118h42v1H43z M46 119h36v1H46z M50 120h29v1H50z M54 121h20v1H54z"/>
<path fill="#000000" fill-opacity="0.753" d="M74 6h1v1H74z M49 7h1v1H49z M82 8h1v1H82z M36 12h1v1H36z M93 13h1v1H93z M31 15h1v1H31z M27 18h1v1H27z M18 27h1v1H18z M110 28h1v1H110z M15 31h1v1H15z M12 36h1v1H12z M11 38h1v1H11z M59 39h1v1H59z M58 42h1v1H58z M58 43h1v1H58z M58 44h1v1H58z M58 45h1v1H58z M58 46h1v1H58z M58 47h1v1H58z M58 48h1v1H58z M7 49h1v1H7z M58 49h1v1H58z M58 50h1v1H58z M58 51h1v1H58z M58 52h1v1H58z M58 53h1v1H58z M58 54h1v1H58z M58 55h1v1H58z M58 56h1v1H58z M58 57h1v1H58z M42 58h16v1H42z M70 58h16v1H70z M122 60h1v1H122z M37 61h1v1H37z M90 66h1v1H90z M122 67h1v1H122z M58 70h1v1H58z M58 71h1v1H58z M58 72h1v1H58z M58 73h1v1H58z M6 74h1v1H6z M58 74h1v1H58z M58 75h1v1H58z M121 75h1v1H121z M58 76h1v1H58z M58 77h1v1H58z M58 78h1v1H58z M58 79h1v1H58z M120 79h1v1H120z M58 80h1v1H58z M58 81h1v1H58z M58 82h1v1H58z M58 83h1v1H58z M58 84h1v1H58z M58 85h1v1H58z M118 85h1v1H118z M10 87h1v1H10z M66 90h1v1H66z M105 105h1v1H105z M34 114h1v1H34z M85 118h1v1H85z M45 119h1v1H45z M79 120h1v1H79z M75 121h1v1H75z M60 122h1v1H60z M67 122h1v1H67z"/>
<path fill="#000000" fill-opacity="0.565" d="M60 5h1v1H60z M67 5h1v1H67z M75 6h1v1H75z M45 8h1v1H45z M85 9h1v1H85z M34 13h1v1H34z M105 22h1v1H105z M17 28h1v1H17z M113 32h1v1H113z M62 37h1v1H62z M67 38h1v1H67z M69 42h1v1H69z M69 43h1v1H69z M69 44h1v1H69z M69 45h1v1H69z M69 46h1v1H69z M69 47h1v1H69z M69 48h1v1H69z M69 49h1v1H69z M69 50h1v1H69z M69 51h1v1H69z M69 52h1v1H69z M69 53h1v1H69z M69 54h1v1H69z M69 55h1v1H69z M69 56h1v1H69z M69 57h1v1H69z M58 58h1v1H58z M122 58h1v1H122z M39 59h1v1H39z M5 60h1v1H5z M5 67h1v1H5z M42 69h1v1H42z M85 69h1v1H85z M69 70h1v1H69z M69 71h1v1H69z M69 72h1v1H69z M69 73h1v1H69z M69 74h1v1H69z M6 75h1v1H6z M69 75h1v1H69z M69 76h1v1H69z M69 77h1v1H69z M69 78h1v1H69z M7 79h1v1H7z M69 79h1v1H69z M69 80h1v1H69z M69 81h1v1H69z M69 82h1v1H69z M69 83h1v1H69z M69 84h1v1H69z M9 85h1v1H9z M69 85h1v1H69z M107 103h1v1H107z M103 107h1v1H103z M90 116h1v1H90z"/>
<path fill="#000000" fill-opacity="0.502" d="M59 5h1v1H59z M68 5h1v1H68z M52 6h1v1H52z M42 9h1v1H42z M95 14h1v1H95z M98 16h1v1H98z M28 17h1v1H28z M104 21h1v1H104z M106 23h1v1H106z M111 29h1v1H111z M65 37h1v1H65z M9 42h1v1H9z M7 48h1v1H7z M121 51h1v1H121z M6 52h1v1H6z M122 57h1v1H122z M5 59h1v1H5z M89 60h1v1H89z M5 68h1v1H5z M43 69h15v1H43z M70 69h15v1H70z M122 70h1v1H122z M121 76h1v1H121z M120 80h1v1H120z M119 83h1v1H119z M117 88h1v1H117z M60 89h1v1H60z M116 90h1v1H116z M115 92h1v1H115z M14 95h1v1H14z M108 102h1v1H108z M22 105h1v1H22z M102 108h1v1H102z M32 113h1v1H32z M92 115h1v1H92z M88 117h1v1H88z M83 119h1v1H83z M80 120h1v1H80z M51 121h1v1H51z M76 121h1v1H76z M57 122h1v1H57z M70 122h1v1H70z"/>
<path fill="#000000" fill-opacity="0.878" d="M54 6h1v1H54z M78 7h1v1H78z M43 9h1v1H43z M91 12h1v1H91z M33 14h1v1H33z M96 15h1v1H96z M100 18h1v1H100z M26 19h1v1H26z M19 26h1v1H19z M112 31h1v1H112z M66 37h1v1H66z M116 38h1v1H116z M117 40h1v1H117z M58 41h1v1H58z M9 43h1v1H9z M121 53h1v1H121z M6 54h1v1H6z M41 58h1v1H41z M86 58h1v1H86z M122 63h1v1H122z M122 64h1v1H122z M40 69h1v1H40z M119 82h1v1H119z M58 86h1v1H58z M114 93h1v1H114z M15 96h1v1H15z M110 99h1v1H110z M18 100h1v1H18z M27 109h1v1H27z M99 110h1v1H99z M31 112h1v1H31z M93 114h1v1H93z M36 115h1v1H36z M38 116h1v1H38z M40 117h1v1H40z M82 119h1v1H82z M53 121h1v1H53z M63 122h3v1H63z"/>
<path fill="#000000" fill-opacity="0.941" d="M73 6h1v1H73z M46 8h1v1H46z M84 9h1v1H84z M30 16h1v1H30z M25 20h1v1H25z M24 21h1v1H24z M21 24h1v1H21z M20 25h1v1H20z M109 27h1v1H109z M16 30h1v1H16z M14 33h1v1H14z M115 36h1v1H115z M61 37h1v1H61z M69 40h1v1H69z M8 46h1v1H8z M120 49h1v1H120z M38 68h1v1H38z M87 69h1v1H87z M6 73h1v1H6z M121 74h1v1H121z M120 78h1v1H120z M9 84h1v1H9z M69 87h1v1H69z M117 87h1v1H117z M116 89h1v1H116z M115 91h1v1H115z M14 94h1v1H14z M112 96h1v1H112z M109 100h1v1H109z M19 101h1v1H19z M26 108h1v1H26z M100 109h1v1H100z M96 112h1v1H96z M91 115h1v1H91z M89 116h1v1H89z M87 117h1v1H87z M49 120h1v1H49z M74 121h1v1H74z"/>
<path fill="#000000" fill-opacity="0.314" d="M57 5h1v1H57z M70 5h1v1H70z M76 6h1v1H76z M80 7h1v1H80z M83 8h1v1H83z M88 10h1v1H88z M92 12h1v1H92z M32 14h1v1H32z M29 16h1v1H29z M102 19h1v1H102z M23 21h1v1H23z M21 23h1v1H21z M108 25h1v1H108z M16 29h1v1H16z M118 41h1v1H118z M6 51h1v1H6z M5 57h1v1H5z M37 62h1v1H37z M37 65h1v1H37z M69 69h1v1H69z M5 70h1v1H5z M6 76h1v1H6z M7 80h1v1H7z M8 83h1v1H8z M10 88h1v1H10z M11 90h1v1H11z M12 92h1v1H12z M114 94h1v1H114z M25 108h1v1H25z M94 114h1v1H94z M41 118h1v1H41z"/>
<path fill="#000000" fill-opacity="0.376" d="M58 5h1v1H58z M90 11h1v1H90z M103 20h1v1H103z M22 22h1v1H22z M14 32h1v1H14z M115 35h1v1H115z M63 37h2v1H63z M117 39h1v1H117z M122 56h1v1H122z M69 58h1v1H69z M90 65h1v1H90z M89 67h1v1H89z M39 68h1v1H39z M58 69h1v1H58z M122 71h1v1H122z M118 86h1v1H118z M67 89h1v1H67z M65 90h1v1H65z M112 97h1v1H112z M109 101h1v1H109z M20 103h1v1H20z M24 107h1v1H24z M101 109h1v1H101z M97 112h1v1H97z M35 115h1v1H35z M37 116h1v1H37z M39 117h1v1H39z M44 119h1v1H44z M56 122h1v1H56z M71 122h1v1H71z"/>
<path fill="#000000" fill-opacity="0.690" d="M63 5h2v1H63z M53 6h1v1H53z M38 11h1v1H38z M99 17h1v1H99z M60 38h1v1H60z M10 40h1v1H10z M69 41h1v1H69z M118 42h1v1H118z M120 48h1v1H120z M121 52h1v1H121z M6 53h1v1H6z M122 59h1v1H122z M5 63h1v1H5z M5 64h1v1H5z M122 68h1v1H122z M86 69h1v1H86z M8 82h1v1H8z M69 86h1v1H69z M13 93h1v1H13z M113 95h1v1H113z M17 99h1v1H17z M104 106h1v1H104z M28 110h1v1H28z M95 113h1v1H95z M42 118h1v1H42z M48 120h1v1H48z M52 121h1v1H52z M59 122h1v1H59z M68 122h1v1H68z"/>
<path fill="#000000" fill-opacity="0.188" d="M56 5h1v1H56z M71 5h1v1H71z M47 7h1v1H47z M44 8h1v1H44z M86 9h1v1H86z M39 10h1v1H39z M35 12h1v1H35z M25 19h1v1H25z M24 20h1v1H24z M19 25h1v1H19z M114 33h1v1H114z M12 35h1v1H12z M10 39h1v1H10z M120 46h1v1H120z M121 50h1v1H121z M5 56h1v1H5z M5 71h1v1H5z M120 81h1v1H120z M9 86h1v1H9z M15 97h1v1H15z M110 100h1v1H110z M18 101h1v1H18z M100 110h1v1H100z M33 114h1v1H33z M50 121h1v1H50z"/>
<path fill="#000000" fill-opacity="0.251" d="M51 6h1v1H51z M37 11h1v1H37z M97 15h1v1H97z M101 18h1v1H101z M20 24h1v1H20z M109 26h1v1H109z M112 30h1v1H112z M11 37h1v1H11z M59 40h1v1H59z M8 44h1v1H8z M7 47h1v1H7z M122 55h1v1H122z M90 63h1v1H90z M90 64h1v1H90z M38 67h1v1H38z M122 72h1v1H122z M121 77h1v1H121z M63 90h2v1H63z M19 102h1v1H19z M26 109h1v1H26z M30 112h1v1H30z M81 120h1v1H81z M77 121h1v1H77z M55 122h1v1H55z M72 122h1v1H72z"/>
<path fill="#000000" fill-opacity="0.125" d="M41 9h1v1H41z M94 13h1v1H94z M30 15h1v1H30z M26 18h1v1H26z M18 26h1v1H18z M110 27h1v1H110z M15 30h1v1H15z M9 41h1v1H9z M40 59h1v1H40z M87 59h1v1H87z M37 63h1v1H37z M37 64h1v1H37z M122 73h1v1H122z M119 84h1v1H119z M59 87h1v1H59z M13 94h1v1H13z M113 96h1v1H113z M96 113h1v1H96z M91 116h1v1H91z M84 119h1v1H84z M46 120h1v1H46z M73 122h1v1H73z"/>
<path fill="#000000" fill-opacity="0.627" d="M61 5h2v1H61z M65 5h2v1H65z M79 7h1v1H79z M40 10h1v1H40z M13 34h1v1H13z M68 39h1v1H68z M8 45h1v1H8z M88 59h1v1H88z M5 61h1v1H5z M5 62h1v1H5z M5 65h1v1H5z M5 66h1v1H5z M37 66h1v1H37z M41 69h1v1H41z M122 69h1v1H122z M59 88h1v1H59z M111 98h1v1H111z M106 104h1v1H106z M98 111h1v1H98z M58 122h1v1H58z M69 122h1v1H69z"/>
<path fill="#000000" fill-opacity="0.439" d="M69 5h1v1H69z M48 7h1v1H48z M107 24h1v1H107z M116 37h1v1H116z M119 44h1v1H119z M120 47h1v1H120z M5 58h1v1H5z M38 60h1v1H38z M90 62h1v1H90z M88 68h1v1H88z M5 69h1v1H5z M68 88h1v1H68z M62 90h1v1H62z M16 98h1v1H16z M21 104h1v1H21z M23 106h1v1H23z M29 111h1v1H29z M86 118h1v1H86z M47 120h1v1H47z"/>
<path fill="#000000" fill-opacity="0.816" d="M87 10h1v1H87z M89 11h1v1H89z M114 34h1v1H114z M119 45h1v1H119z M90 61h1v1H90z M122 61h1v1H122z M122 62h1v1H122z M122 65h1v1H122z M122 66h1v1H122z M7 78h1v1H7z M11 89h1v1H11z M61 90h1v1H61z M12 91h1v1H12z M61 122h2v1H61z M66 122h1v1H66z"/>
</svg>
