<svg xmlns="http://www.w3.org/2000/svg" viewBox="0 0 128 128" width="128" height="128" role="img">
<path fill="#000000" d="M94 5h4v1H94z M93 6h6v1H93z M93 7h6v1H93z M92 8h8v1H92z M92 9h8v1H92z M92 10h8v1H92z M92 11h8v1H92z M91 12h10v1H91z M91 13h10v1H91z M91 14h10v1H91z M91 15h10v1H91z M90 16h12v1H90z M90 17h12v1H90z M90 18h12v1H90z M89 19h14v1H89z M89 20h14v1H89z M88 21h16v1H88z M88 22h16v1H88z M87 23h18v1H87z M53 24h2v1H53z M85 24h22v1H85z M44 25h20v1H44z M83 25h26v1H83z M40 26h23v1H40z M80 26h32v1H80z M37 27h26v1H37z M76 27h40v1H76z M35 28h27v1H35z M72 28h48v1H72z M33 29h29v1H33z M70 29h52v1H70z M30 30h32v1H30z M69 30h54v1H69z M29 31h33v1H29z M69 31h54v1H69z M27 32h35v1H27z M69 32h54v1H69z M26 33h36v1H26z M69 33h54v1H69z M24 34h38v1H24z M70 34h52v1H70z M23 35h39v1H23z M72 35h48v1H72z M22 36h41v1H22z M76 36h40v1H76z M21 37h42v1H21z M80 37h32v1H80z M20 38h44v1H20z M83 38h26v1H83z M19 39h46v1H19z M85 39h22v1H85z M18 40h48v1H18z M87 40h18v1H87z M17 41h51v1H17z M88 41h16v1H88z M16 42h55v1H16z M88 42h16v1H88z M15 43h60v1H15z M89 43h14v1H89z M14 44h66v1H14z M89 44h14v1H89z M14 45h67v1H14z M90 45h12v1H90z M13 46h38v1H13z M57 46h25v1H57z M90 46h12v1H90z M12 47h38v1H12z M58 47h25v1H58z M90 47h12v1H90z M12 48h38v1H12z M58 48h25v1H58z M91 48h10v1H91z M11 49h39v1H11z M58 49h26v1H58z M91 49h10v1H91z M10 50h40v1H10z M58 50h26v1H58z M91 50h10v1H91z M10 51h40v1H10z M58 51h26v1H58z M91 51h10v1H91z M9 52h41v1H9z M58 52h26v1H58z M92 52h8v1H92z M9 53h41v1H9z M58 53h27v1H58z M92 53h8v1H92z M9 54h41v1H9z M58 54h27v1H58z M92 54h8v1H92z M8 55h42v1H8z M58 55h27v1H58z M92 55h8v1H92z M8 56h42v1H8z M58 56h27v1H58z M93 56h6v1H93z M7 57h43v1H7z M58 57h28v1H58z M93 57h6v1H93z M7 58h43v1H7z M58 58h28v1H58z M94 58h4v1H94z M7 59h43v1H7z M58 59h28v1H58z M6 60h44v1H6z M58 60h29v1H58z M6 61h44v1H6z M58 61h29v1H58z M6 62h44v1H6z M58 62h30v1H58z M6 63h44v1H6z M58 63h31v1H58z M5 64h45v1H5z M58 64h32v1H58z M102 64h1v1H102z M5 65h45v1H5z M58 65h34v1H58z M100 65h3v1H100z M5 66h45v1H5z M58 66h45v1H58z M5 67h45v1H5z M58 67h45v1H58z M5 68h45v1H5z M58 68h45v1H58z M5 69h45v1H5z M58 69h45v1H58z M5 70h22v1H5z M81 70h22v1H81z M5 71h21v1H5z M82 71h21v1H82z M5 72h21v1H5z M82 72h21v1H82z M4 73h22v1H4z M82 73h22v1H82z M4 74h22v1H4z M82 74h22v1H82z M5 75h21v1H5z M82 75h21v1H82z M5 76h21v1H5z M82 76h21v1H82z M5 77h22v1H5z M81 77h22v1H81z M5 78h45v1H5z M58 78h45v1H58z M5 79h45v1H5z M58 79h45v1H58z M5 80h45v1H5z M58 80h45v1H58z M5 81h45v1H5z M58 81h45v1H58z M5 82h45v1H5z M58 82h45v1H58z M5 83h45v1H5z M58 83h45v1H58z M6 84h44v1H6z M58 84h44v1H58z M6 85h44v1H6z M58 85h44v1H58z M6 86h44v1H6z M58 86h44v1H58z M6 87h44v1H6z M58 87h44v1H58z M7 88h43v1H7z M58 88h43v1H58z M7 89h43v1H7z M58 89h43v1H58z M7 90h43v1H7z M58 90h43v1H58z M8 91h42v1H8z M58 91h42v1H58z M8 92h42v1H8z M58 92h42v1H58z M9 93h41v1H9z M58 93h41v1H58z M9 94h41v1H9z M58 94h41v1H58z M9 95h41v1H9z M58 95h41v1H58z M10 96h40v1H10z M58 96h40v1H58z M10 97h40v1H10z M58 97h40v1H58z M11 98h39v1H11z M58 98h39v1H58z M12 99h38v1H12z M58 99h38v1H58z M12 100h38v1H12z M58 100h38v1H58z M13 101h38v1H13z M57 101h38v1H57z M14 102h80v1H14z M14 103h80v1H14z M15 104h78v1H15z M16 105h76v1H16z M17 106h74v1H17z M18 107h72v1H18z M19 108h70v1H19z M20 109h68v1H20z M21 110h66v1H21z M22 111h64v1H22z M23 112h62v1H23z M24 113h60v1H24z M26 114h56v1H26z M27 115h54v1H27z M29 116h50v1H29z M30 117h48v1H30z M33 118h43v1H33z M35 119h39v1H35z M37 120h34v1H37z M40 121h28v1H40z M44 122h20v1H44z M53 123h2v1H53z"/>
<path fill="#000000" fill-opacity="0.125" d="M93 4h1v1H93z M98 4h1v1H98z M92 5h1v1H92z M99 5h1v1H99z M90 12h1v1H90z M101 12h1v1H101z M88 19h1v1H88z M103 19h1v1H103z M83 24h1v1H83z M108 24h1v1H108z M40 25h1v1H40z M76 26h1v1H76z M63 27h1v1H63z M32 28h1v1H32z M69 28h1v1H69z M122 28h1v1H122z M30 29h1v1H30z M68 29h1v1H68z M123 29h1v1H123z M62 30h1v1H62z M25 32h1v1H25z M62 33h1v1H62z M68 34h1v1H68z M123 34h1v1H123z M21 35h1v1H21z M69 35h1v1H69z M122 35h1v1H122z M20 36h1v1H20z M63 36h1v1H63z M76 37h1v1H76z M83 39h1v1H83z M108 39h1v1H108z M16 40h1v1H16z M67 40h1v1H67z M15 41h1v1H15z M88 44h1v1H88z M103 44h1v1H103z M12 45h1v1H12z M9 50h1v1H9z M90 51h1v1H90z M101 51h1v1H101z M8 52h1v1H8z M86 57h1v1H86z M92 58h1v1H92z M99 58h1v1H99z M93 59h1v1H93z M98 59h1v1H98z M5 60h1v1H5z M87 60h1v1H87z M91 64h1v1H91z M100 64h1v1H100z M94 65h1v1H94z M97 65h1v1H97z M5 87h1v1H5z M102 87h1v1H102z M6 90h1v1H6z M101 90h1v1H101z M8 95h1v1H8z M99 95h1v1H99z M9 97h1v1H9z M98 97h1v1H98z M12 102h1v1H12z M95 102h1v1H95z M16 107h1v1H16z M91 107h1v1H91z M20 111h1v1H20z M87 111h1v1H87z M25 115h1v1H25z M82 115h1v1H82z M30 118h1v1H30z M77 118h1v1H77z M75 119h1v1H75z M37 121h1v1H37z M70 121h1v1H70z M67 122h1v1H67z"/>
<path fill="#000000" fill-opacity="0.941" d="M95 4h2v1H95z M93 5h1v1H93z M98 5h1v1H98z M92 7h1v1H92z M99 7h1v1H99z M87 22h1v1H87z M104 22h1v1H104z M86 23h1v1H86z M105 23h1v1H105z M52 24h1v1H52z M55 24h1v1H55z M34 28h1v1H34z M71 28h1v1H71z M120 28h1v1H120z M32 29h1v1H32z M69 29h1v1H69z M122 29h1v1H122z M68 31h1v1H68z M123 31h1v1H123z M68 32h1v1H68z M123 32h1v1H123z M25 33h1v1H25z M69 34h1v1H69z M122 34h1v1H122z M71 35h1v1H71z M120 35h1v1H120z M19 38h1v1H19z M18 39h1v1H18z M86 40h1v1H86z M105 40h1v1H105z M87 41h1v1H87z M104 41h1v1H104z M75 43h1v1H75z M13 45h1v1H13z M81 45h1v1H81z M82 46h1v1H82z M83 48h1v1H83z M84 52h1v1H84z M8 54h1v1H8z M92 56h1v1H92z M99 56h1v1H99z M93 58h1v1H93z M98 58h1v1H98z M95 59h2v1H95z M103 71h1v1H103z M4 72h1v1H4z M103 72h1v1H103z M4 75h1v1H4z M103 75h1v1H103z M8 93h1v1H8z M99 93h1v1H99z M13 102h1v1H13z M94 102h1v1H94z M18 108h1v1H18z M89 108h1v1H89z M19 109h1v1H19z M88 109h1v1H88z M25 114h1v1H25z M82 114h1v1H82z M32 118h1v1H32z M34 119h1v1H34z M52 123h1v1H52z M55 123h1v1H55z"/>
<path fill="#000000" fill-opacity="0.878" d="M91 11h1v1H91z M100 11h1v1H100z M51 24h1v1H51z M56 24h1v1H56z M43 25h1v1H43z M39 26h1v1H39z M75 27h1v1H75z M116 27h1v1H116z M28 31h1v1H28z M21 36h1v1H21z M75 36h1v1H75z M116 36h1v1H116z M20 37h1v1H20z M17 40h1v1H17z M16 41h1v1H16z M71 42h1v1H71z M51 46h1v1H51z M56 46h1v1H56z M50 47h1v1H50z M57 47h1v1H57z M11 48h1v1H11z M91 52h1v1H91z M100 52h1v1H100z M85 56h1v1H85z M6 59h1v1H6z M5 63h1v1H5z M27 70h1v1H27z M80 70h1v1H80z M103 70h1v1H103z M4 71h1v1H4z M26 71h1v1H26z M81 71h1v1H81z M4 76h1v1H4z M26 76h1v1H26z M81 76h1v1H81z M103 76h1v1H103z M27 77h1v1H27z M80 77h1v1H80z M5 84h1v1H5z M102 84h1v1H102z M6 88h1v1H6z M11 99h1v1H11z M96 99h1v1H96z M50 100h1v1H50z M57 100h1v1H57z M51 101h1v1H51z M56 101h1v1H56z M16 106h1v1H16z M91 106h1v1H91z M17 107h1v1H17z M90 107h1v1H90z M20 110h1v1H20z M87 110h1v1H87z M21 111h1v1H21z M86 111h1v1H86z M28 116h1v1H28z M79 116h1v1H79z M43 122h1v1H43z M64 122h1v1H64z M51 123h1v1H51z M56 123h1v1H56z"/>
<path fill="#000000" fill-opacity="0.627" d="M97 4h1v1H97z M92 6h1v1H92z M99 6h1v1H99z M89 18h1v1H89z M102 18h1v1H102z M88 20h1v1H88z M103 20h1v1H103z M84 24h1v1H84z M107 24h1v1H107z M42 25h1v1H42z M82 25h1v1H82z M109 25h1v1H109z M113 26h1v1H113z M74 27h1v1H74z M62 28h1v1H62z M70 28h1v1H70z M121 28h1v1H121z M123 30h1v1H123z M68 33h1v1H68z M123 33h1v1H123z M62 35h1v1H62z M70 35h1v1H70z M121 35h1v1H121z M74 36h1v1H74z M113 37h1v1H113z M82 38h1v1H82z M109 38h1v1H109z M84 39h1v1H84z M107 39h1v1H107z M72 42h1v1H72z M88 43h1v1H88z M103 43h1v1H103z M89 45h1v1H89z M102 45h1v1H102z M83 47h1v1H83z M9 51h1v1H9z M85 55h1v1H85z M92 57h1v1H92z M99 57h1v1H99z M86 59h1v1H86z M94 59h1v1H94z M97 59h1v1H97z M5 62h1v1H5z M92 65h1v1H92z M5 85h1v1H5z M102 85h1v1H102z M9 96h1v1H9z M76 118h1v1H76z M74 119h1v1H74z M42 122h1v1H42z"/>
<path fill="#000000" fill-opacity="0.314" d="M89 17h1v1H89z M102 17h1v1H102z M87 21h1v1H87z M104 21h1v1H104z M85 23h1v1H85z M106 23h1v1H106z M81 25h1v1H81z M110 25h1v1H110z M77 26h1v1H77z M27 31h1v1H27z M24 33h1v1H24z M77 37h1v1H77z M81 38h1v1H81z M110 38h1v1H110z M85 40h1v1H85z M106 40h1v1H106z M69 41h1v1H69z M87 42h1v1H87z M104 42h1v1H104z M13 44h1v1H13z M82 45h1v1H82z M52 46h1v1H52z M55 46h1v1H55z M89 46h1v1H89z M102 46h1v1H102z M50 48h1v1H50z M57 48h1v1H57z M86 58h1v1H86z M28 70h1v1H28z M79 70h1v1H79z M26 72h1v1H26z M81 72h1v1H81z M26 75h1v1H26z M81 75h1v1H81z M28 77h1v1H28z M79 77h1v1H79z M50 99h1v1H50z M57 99h1v1H57z M96 100h1v1H96z M52 101h1v1H52z M55 101h1v1H55z M13 103h1v1H13z M94 103h1v1H94z M24 114h1v1H24z M83 114h1v1H83z M27 116h1v1H27z M41 122h1v1H41z"/>
<path fill="#000000" fill-opacity="0.376" d="M90 13h1v1H90z M101 13h1v1H101z M46 24h1v1H46z M61 24h1v1H61z M41 25h1v1H41z M64 25h1v1H64z M114 26h1v1H114z M73 27h1v1H73z M62 29h1v1H62z M62 34h1v1H62z M73 36h1v1H73z M114 37h1v1H114z M73 42h1v1H73z M11 47h1v1H11z M90 50h1v1H90z M101 50h1v1H101z M85 54h1v1H85z M5 61h1v1H5z M102 63h1v1H102z M93 65h1v1H93z M98 65h1v1H98z M4 66h1v1H4z M103 66h1v1H103z M4 81h1v1H4z M103 81h1v1H103z M5 86h1v1H5z M102 86h1v1H102z M11 100h1v1H11z M80 116h1v1H80z M66 122h1v1H66z M46 123h1v1H46z M61 123h1v1H61z"/>
<path fill="#000000" fill-opacity="0.690" d="M94 4h1v1H94z M91 10h1v1H91z M100 10h1v1H100z M48 24h1v1H48z M59 24h1v1H59z M63 26h1v1H63z M117 27h1v1H117z M68 30h1v1H68z M117 36h1v1H117z M63 37h1v1H63z M66 40h1v1H66z M68 41h1v1H68z M76 43h1v1H76z M80 44h1v1H80z M91 53h1v1H91z M100 53h1v1H100z M87 61h1v1H87z M90 64h1v1H90z M101 64h1v1H101z M99 65h1v1H99z M4 68h1v1H4z M103 68h1v1H103z M4 79h1v1H4z M103 79h1v1H103z M65 122h1v1H65z M48 123h1v1H48z M59 123h1v1H59z"/>
<path fill="#000000" fill-opacity="0.565" d="M90 14h1v1H90z M101 14h1v1H101z M60 24h1v1H60z M78 26h1v1H78z M33 28h1v1H33z M31 29h1v1H31z M29 30h1v1H29z M14 43h1v1H14z M10 49h1v1H10z M90 49h1v1H90z M101 49h1v1H101z M8 53h1v1H8z M4 67h1v1H4z M8 94h1v1H8z M99 94h1v1H99z M98 96h1v1H98z M10 98h1v1H10z M97 98h1v1H97z M14 104h1v1H14z M93 104h1v1H93z M84 113h1v1H84z M29 117h1v1H29z M78 117h1v1H78z M31 118h1v1H31z"/>
<path fill="#000000" fill-opacity="0.753" d="M49 24h1v1H49z M58 24h1v1H58z M79 26h1v1H79z M26 32h1v1H26z M79 37h1v1H79z M12 46h1v1H12z M84 51h1v1H84z M4 69h1v1H4z M103 69h1v1H103z M4 78h1v1H4z M103 78h1v1H103z M100 91h1v1H100z M12 101h1v1H12z M95 101h1v1H95z M15 105h1v1H15z M92 105h1v1H92z M22 112h1v1H22z M85 112h1v1H85z M26 115h1v1H26z M81 115h1v1H81z M36 120h1v1H36z M71 120h1v1H71z M49 123h1v1H49z M58 123h1v1H58z"/>
<path fill="#000000" fill-opacity="0.816" d="M90 15h1v1H90z M101 15h1v1H101z M50 24h1v1H50z M57 24h1v1H57z M112 26h1v1H112z M36 27h1v1H36z M22 35h1v1H22z M112 37h1v1H112z M15 42h1v1H15z M90 48h1v1H90z M101 48h1v1H101z M7 56h1v1H7z M4 70h1v1H4z M4 77h1v1H4z M103 77h1v1H103z M101 88h1v1H101z M7 91h1v1H7z M39 121h1v1H39z M68 121h1v1H68z M50 123h1v1H50z M57 123h1v1H57z"/>
<path fill="#000000" fill-opacity="0.188" d="M62 24h1v1H62z M37 26h1v1H37z M115 26h1v1H115z M72 27h1v1H72z M72 36h1v1H72z M19 37h1v1H19z M115 37h1v1H115z M17 39h1v1H17z M74 42h1v1H74z M81 44h1v1H81z M83 46h1v1H83z M85 53h1v1H85z M100 55h1v1H100z M6 57h1v1H6z M103 65h1v1H103z M103 82h1v1H103z M17 108h1v1H17z M90 108h1v1H90z M19 110h1v1H19z M88 110h1v1H88z"/>
<path fill="#000000" fill-opacity="0.251" d="M91 8h1v1H91z M100 8h1v1H100z M86 22h1v1H86z M105 22h1v1H105z M45 24h1v1H45z M119 27h1v1H119z M119 36h1v1H119z M18 38h1v1H18z M86 41h1v1H86z M105 41h1v1H105z M78 43h1v1H78z M84 49h1v1H84z M91 55h1v1H91z M4 65h1v1H4z M4 82h1v1H4z M18 109h1v1H18z M89 109h1v1H89z M45 123h1v1H45z M62 123h1v1H62z"/>
<path fill="#000000" fill-opacity="0.502" d="M47 24h1v1H47z M38 26h1v1H38z M23 34h1v1H23z M78 37h1v1H78z M77 43h1v1H77z M84 50h1v1H84z M6 58h1v1H6z M103 67h1v1H103z M4 80h1v1H4z M103 80h1v1H103z M6 89h1v1H6z M101 89h1v1H101z M23 113h1v1H23z M33 119h1v1H33z M38 121h1v1H38z M69 121h1v1H69z M47 123h1v1H47z M60 123h1v1H60z"/>
<path fill="#000000" fill-opacity="0.439" d="M91 9h1v1H91z M100 9h1v1H100z M35 27h1v1H35z M118 27h1v1H118z M118 36h1v1H118z M64 38h1v1H64z M65 39h1v1H65z M91 54h1v1H91z M100 54h1v1H100z M7 55h1v1H7z M88 62h1v1H88z M89 63h1v1H89z M7 92h1v1H7z M100 92h1v1H100z M35 120h1v1H35z M72 120h1v1H72z"/>
</svg>
