<svg xmlns="http://www.w3.org/2000/svg" viewBox="0 0 128 128" width="128" height="128" role="img">
<path fill="#000000" d="M63 0h2v1H63z M53 1h22v1H53z M48 2h32v1H48z M45 3h38v1H45z M42 4h44v1H42z M39 5h50v1H39z M37 6h54v1H37z M35 7h58v1H35z M33 8h62v1H33z M31 9h66v1H31z M30 10h68v1H30z M28 11h72v1H28z M27 12h74v1H27z M26 13h76v1H26z M24 14h80v1H24z M23 15h82v1H23z M22 16h84v1H22z M21 17h86v1H21z M20 18h88v1H20z M19 19h90v1H19z M18 20h92v1H18z M17 21h94v1H17z M16 22h96v1H16z M15 23h98v1H15z M14 24h100v1H14z M14 25h100v1H14z M13 26h102v1H13z M12 27h45v1H12z M69 27h47v1H69z M11 28h42v1H11z M73 28h44v1H73z M11 29h39v1H11z M76 29h41v1H76z M10 30h37v1H10z M78 30h8v1H78z M93 30h25v1H93z M9 31h36v1H9z M80 31h5v1H80z M94 31h24v1H94z M9 32h35v1H9z M82 32h2v1H82z M95 32h24v1H95z M8 33h34v1H8z M83 33h1v1H83z M95 33h25v1H95z M8 34h33v1H8z M95 34h25v1H95z M7 35h32v1H7z M95 35h26v1H95z M7 36h31v1H7z M95 36h26v1H95z M6 37h31v1H6z M95 37h27v1H95z M6 38h30v1H6z M95 38h27v1H95z M5 39h30v1H5z M58 39h9v1H58z M95 39h28v1H95z M5 40h30v1H5z M55 40h15v1H55z M95 40h28v1H95z M5 41h29v1H5z M53 41h20v1H53z M95 41h28v1H95z M4 42h29v1H4z M51 42h23v1H51z M95 42h29v1H95z M4 43h28v1H4z M49 43h24v1H49z M95 43h29v1H95z M4 44h28v1H4z M48 44h24v1H48z M95 44h29v1H95z M3 45h28v1H3z M46 45h26v1H46z M95 45h30v1H95z M3 46h28v1H3z M45 46h27v1H45z M95 46h30v1H95z M3 47h27v1H3z M45 47h26v1H45z M95 47h30v1H95z M2 48h28v1H2z M44 48h28v1H44z M95 48h31v1H95z M2 49h28v1H2z M43 49h29v1H43z M95 49h31v1H95z M2 50h27v1H2z M42 50h30v1H42z M95 50h31v1H95z M2 51h27v1H2z M42 51h31v1H42z M94 51h32v1H94z M2 52h27v1H2z M41 52h33v1H41z M93 52h33v1H93z M1 53h27v1H1z M41 53h36v1H41z M90 53h37v1H90z M1 54h27v1H1z M40 54h87v1H40z M1 55h27v1H1z M40 55h87v1H40z M1 56h27v1H1z M40 56h87v1H40z M1 57h27v1H1z M40 57h87v1H40z M1 58h26v1H1z M39 58h88v1H39z M1 59h26v1H1z M39 59h54v1H39z M97 59h30v1H97z M1 60h26v1H1z M39 60h52v1H39z M99 60h28v1H99z M1 61h26v1H1z M39 61h51v1H39z M100 61h27v1H100z M1 62h26v1H1z M39 62h51v1H39z M100 62h27v1H100z M0 63h27v1H0z M39 63h50v1H39z M101 63h27v1H101z M0 64h27v1H0z M38 64h51v1H38z M101 64h27v1H101z M1 65h27v1H1z M38 65h51v1H38z M101 65h26v1H101z M1 66h28v1H1z M37 66h52v1H37z M101 66h26v1H101z M1 67h29v1H1z M36 67h53v1H36z M101 67h26v1H101z M1 68h88v1H1z M101 68h26v1H101z M1 69h88v1H1z M101 69h26v1H101z M1 70h87v1H1z M101 70h26v1H101z M1 71h87v1H1z M100 71h27v1H100z M1 72h87v1H1z M100 72h27v1H100z M1 73h86v1H1z M100 73h27v1H100z M1 74h37v1H1z M52 74h35v1H52z M100 74h27v1H100z M2 75h33v1H2z M54 75h33v1H54z M100 75h26v1H100z M2 76h32v1H2z M55 76h31v1H55z M99 76h27v1H99z M2 77h31v1H2z M56 77h29v1H56z M99 77h27v1H99z M2 78h31v1H2z M56 78h29v1H56z M99 78h27v1H99z M2 79h31v1H2z M57 79h27v1H57z M98 79h28v1H98z M3 80h30v1H3z M57 80h26v1H57z M98 80h27v1H98z M3 81h30v1H3z M57 81h25v1H57z M97 81h28v1H97z M3 82h30v1H3z M56 82h25v1H56z M97 82h28v1H97z M4 83h29v1H4z M56 83h24v1H56z M96 83h28v1H96z M4 84h29v1H4z M55 84h24v1H55z M95 84h29v1H95z M4 85h29v1H4z M54 85h23v1H54z M95 85h29v1H95z M5 86h28v1H5z M56 86h19v1H56z M94 86h29v1H94z M5 87h28v1H5z M58 87h14v1H58z M93 87h30v1H93z M5 88h28v1H5z M62 88h6v1H62z M93 88h30v1H93z M6 89h27v1H6z M92 89h30v1H92z M6 90h27v1H6z M91 90h31v1H91z M7 91h26v1H7z M90 91h31v1H90z M7 92h26v1H7z M88 92h33v1H88z M8 93h25v1H8z M87 93h33v1H87z M8 94h25v1H8z M44 94h1v1H44z M86 94h34v1H86z M9 95h24v1H9z M44 95h2v1H44z M84 95h35v1H84z M9 96h25v1H9z M43 96h5v1H43z M83 96h35v1H83z M10 97h26v1H10z M42 97h8v1H42z M81 97h37v1H81z M11 98h41v1H11z M79 98h38v1H79z M11 99h44v1H11z M76 99h41v1H76z M12 100h48v1H12z M71 100h45v1H71z M13 101h102v1H13z M14 102h100v1H14z M14 103h100v1H14z M15 104h98v1H15z M16 105h96v1H16z M17 106h94v1H17z M18 107h92v1H18z M19 108h90v1H19z M20 109h88v1H20z M21 110h86v1H21z M22 111h84v1H22z M23 112h82v1H23z M24 113h80v1H24z M26 114h76v1H26z M27 115h74v1H27z M28 116h72v1H28z M30 117h68v1H30z M32 118h64v1H32z M33 119h62v1H33z M35 120h58v1H35z M37 121h54v1H37z M39 122h50v1H39z M42 123h44v1H42z M45 124h38v1H45z M48 125h32v1H48z M53 126h22v1H53z M63 127h2v1H63z"/>
<path fill="#000000" fill-opacity="0.941" d="M61 0h2v1H61z M65 0h2v1H65z M52 1h1v1H52z M75 1h1v1H75z M44 3h1v1H44z M83 3h1v1H83z M25 13h1v1H25z M102 13h1v1H102z M13 25h1v1H13z M114 25h1v1H114z M57 27h1v1H57z M68 27h1v1H68z M47 30h1v1H47z M92 30h1v1H92z M45 31h1v1H45z M118 31h1v1H118z M81 32h1v1H81z M94 32h1v1H94z M39 35h1v1H39z M35 39h1v1H35z M52 41h1v1H52z M50 42h1v1H50z M32 43h1v1H32z M3 44h1v1H3z M47 44h1v1H47z M124 44h1v1H124z M44 47h1v1H44z M71 47h1v1H71z M1 52h1v1H1z M126 52h1v1H126z M89 53h1v1H89z M27 58h1v1H27z M0 61h1v1H0z M127 61h1v1H127z M0 62h1v1H0z M127 62h1v1H127z M27 64h1v1H27z M0 65h1v1H0z M127 65h1v1H127z M0 66h1v1H0z M127 66h1v1H127z M87 73h1v1H87z M51 74h1v1H51z M1 75h1v1H1z M126 75h1v1H126z M33 77h1v1H33z M85 77h1v1H85z M98 78h1v1H98z M3 83h1v1H3z M124 83h1v1H124z M55 86h1v1H55z M72 87h1v1H72z M68 88h1v1H68z M92 88h1v1H92z M91 89h1v1H91z M89 91h1v1H89z M33 95h1v1H33z M46 95h1v1H46z M118 96h1v1H118z M52 98h1v1H52z M78 98h1v1H78z M55 99h1v1H55z M75 99h1v1H75z M13 102h1v1H13z M114 102h1v1H114z M102 114h1v1H102z M31 118h1v1H31z M96 118h1v1H96z M44 124h1v1H44z M83 124h1v1H83z M52 126h1v1H52z M75 126h1v1H75z M61 127h2v1H61z M65 127h2v1H65z"/>
<path fill="#000000" fill-opacity="0.878" d="M60 0h1v1H60z M67 0h1v1H67z M47 2h1v1H47z M80 2h1v1H80z M41 4h1v1H41z M86 4h1v1H86z M29 10h1v1H29z M98 10h1v1H98z M19 18h1v1H19z M108 18h1v1H108z M18 19h1v1H18z M109 19h1v1H109z M10 29h1v1H10z M75 29h1v1H75z M86 30h1v1H86z M38 36h1v1H38z M37 37h1v1H37z M36 38h1v1H36z M54 40h1v1H54z M70 40h1v1H70z M4 41h1v1H4z M123 41h1v1H123z M31 45h1v1H31z M2 47h1v1H2z M30 47h1v1H30z M43 48h1v1H43z M94 50h1v1H94z M77 53h12v1H77z M39 57h1v1H39z M93 59h1v1H93z M96 59h1v1H96z M0 60h1v1H0z M91 60h1v1H91z M127 60h1v1H127z M90 61h1v1H90z M0 67h1v1H0z M30 67h1v1H30z M35 67h1v1H35z M127 67h1v1H127z M88 70h1v1H88z M100 70h1v1H100z M38 74h5v1H38z M46 74h5v1H46z M99 75h1v1H99z M56 79h1v1H56z M2 80h1v1H2z M97 80h1v1H97z M82 81h1v1H82z M81 82h1v1H81z M96 82h1v1H96z M4 86h1v1H4z M123 86h1v1H123z M61 88h1v1H61z M90 90h1v1H90z M34 96h1v1H34z M48 96h1v1H48z M82 96h1v1H82z M41 97h1v1H41z M50 97h1v1H50z M80 97h1v1H80z M10 98h1v1H10z M60 100h1v1H60z M70 100h1v1H70z M18 108h1v1H18z M109 108h1v1H109z M19 109h1v1H19z M108 109h1v1H108z M25 114h1v1H25z M41 123h1v1H41z M86 123h1v1H86z M60 127h1v1H60z M67 127h1v1H67z"/>
<path fill="#000000" fill-opacity="0.125" d="M53 0h1v1H53z M74 0h1v1H74z M48 1h1v1H48z M79 1h1v1H79z M39 4h1v1H39z M88 4h1v1H88z M31 8h1v1H31z M18 18h1v1H18z M109 18h1v1H109z M115 25h1v1H115z M56 28h1v1H56z M69 28h1v1H69z M49 30h1v1H49z M89 30h1v1H89z M92 31h1v1H92z M119 31h1v1H119z M93 32h1v1H93z M81 33h1v1H81z M38 37h1v1H38z M37 38h1v1H37z M59 38h1v1H59z M4 39h1v1H4z M123 39h1v1H123z M52 40h1v1H52z M72 40h1v1H72z M33 43h1v1H33z M94 47h1v1H94z M1 48h1v1H1z M126 48h1v1H126z M30 49h1v1H30z M90 52h1v1H90z M0 53h1v1H0z M127 53h1v1H127z M99 62h1v1H99z M37 64h1v1H37z M89 69h1v1H89z M0 74h1v1H0z M127 74h1v1H127z M52 75h1v1H52z M86 77h1v1H86z M55 78h1v1H55z M1 79h1v1H1z M83 81h1v1H83z M55 82h1v1H55z M82 82h1v1H82z M94 84h1v1H94z M4 88h1v1H4z M58 88h1v1H58z M123 88h1v1H123z M66 89h1v1H66z M46 94h1v1H46z M34 95h1v1H34z M8 96h1v1H8z M119 96h1v1H119z M115 102h1v1H115z M18 109h1v1H18z M109 109h1v1H109z M25 115h1v1H25z M102 115h1v1H102z M31 119h1v1H31z M96 119h1v1H96z M39 123h1v1H39z M88 123h1v1H88z M48 126h1v1H48z M53 127h1v1H53z M74 127h1v1H74z"/>
<path fill="#000000" fill-opacity="0.251" d="M45 2h1v1H45z M82 2h1v1H82z M37 5h1v1H37z M33 7h1v1H33z M94 7h1v1H94z M28 10h1v1H28z M99 10h1v1H99z M10 28h1v1H10z M117 28h1v1H117z M76 30h1v1H76z M88 30h1v1H88z M90 30h1v1H90z M78 31h1v1H78z M7 33h1v1H7z M43 33h1v1H43z M120 33h1v1H120z M121 35h1v1H121z M5 37h1v1H5z M60 38h1v1H60z M55 39h1v1H55z M69 39h1v1H69z M35 40h1v1H35z M124 42h1v1H124z M46 44h1v1H46z M2 45h1v1H2z M125 45h1v1H125z M43 47h1v1H43z M94 48h1v1H94z M41 50h1v1H41z M40 52h1v1H40z M38 59h1v1H38z M92 60h1v1H92z M97 60h1v1H97z M90 62h1v1H90z M89 68h1v1H89z M127 73h1v1H127z M98 76h1v1H98z M33 79h1v1H33z M2 82h1v1H2z M125 82h1v1H125z M124 85h1v1H124z M91 88h1v1H91z M5 90h1v1H5z M122 90h1v1H122z M88 91h1v1H88z M7 94h1v1H7z M43 94h1v1H43z M120 94h1v1H120z M39 97h1v1H39z M54 98h1v1H54z M10 99h1v1H10z M117 99h1v1H117z M24 114h1v1H24z M28 117h1v1H28z M99 117h1v1H99z M33 120h1v1H33z M94 120h1v1H94z M35 121h1v1H35z M42 124h1v1H42z M85 124h1v1H85z M45 125h1v1H45z M82 125h1v1H82z M73 127h1v1H73z"/>
<path fill="#000000" fill-opacity="0.816" d="M59 0h1v1H59z M68 0h1v1H68z M36 6h1v1H36z M91 6h1v1H91z M34 7h1v1H34z M93 7h1v1H93z M26 12h1v1H26z M101 12h1v1H101z M107 17h1v1H107z M17 20h1v1H17z M110 20h1v1H110z M12 26h1v1H12z M58 27h1v1H58z M67 27h1v1H67z M53 28h1v1H53z M72 28h1v1H72z M117 29h1v1H117z M79 31h1v1H79z M93 31h1v1H93z M84 32h1v1H84z M42 33h1v1H42z M7 34h1v1H7z M6 36h1v1H6z M67 39h1v1H67z M74 42h1v1H74z M48 43h1v1H48z M72 44h1v1H72z M125 47h1v1H125z M72 50h1v1H72z M74 52h1v1H74z M92 52h1v1H92z M0 59h1v1H0z M27 59h1v1H27z M127 59h1v1H127z M98 60h1v1H98z M89 63h1v1H89z M0 68h1v1H0z M127 68h1v1H127z M43 74h3v1H43z M35 75h1v1H35z M56 80h1v1H56z M83 80h1v1H83z M125 80h1v1H125z M56 81h1v1H56z M77 85h1v1H77z M94 85h1v1H94z M75 86h1v1H75z M6 91h1v1H6z M7 93h1v1H7z M85 94h1v1H85z M117 98h1v1H117z M12 101h1v1H12z M110 107h1v1H110z M107 110h1v1H107z M101 115h1v1H101z M29 117h1v1H29z M98 117h1v1H98z M91 121h1v1H91z M47 125h1v1H47z M80 125h1v1H80z M59 127h1v1H59z M68 127h1v1H68z"/>
<path fill="#000000" fill-opacity="0.565" d="M56 0h1v1H56z M71 0h1v1H71z M50 1h1v1H50z M77 1h1v1H77z M46 2h1v1H46z M81 2h1v1H81z M30 9h1v1H30z M23 14h1v1H23z M104 14h1v1H104z M14 23h1v1H14z M11 27h1v1H11z M62 27h1v1H62z M64 27h1v1H64z M54 28h1v1H54z M9 30h1v1H9z M91 30h1v1H91z M44 32h1v1H44z M68 39h1v1H68z M73 41h1v1H73z M2 46h1v1H2z M125 46h1v1H125z M1 50h1v1H1z M126 50h1v1H126z M28 54h1v1H28z M0 56h1v1H0z M127 56h1v1H127z M27 61h1v1H27z M38 62h1v1H38z M89 64h1v1H89z M100 64h1v1H100z M29 66h1v1H29z M100 66h1v1H100z M34 67h1v1H34z M100 67h1v1H100z M0 71h1v1H0z M127 71h1v1H127z M53 75h1v1H53z M1 77h1v1H1z M55 77h1v1H55z M126 77h1v1H126z M2 81h1v1H2z M125 81h1v1H125z M54 84h1v1H54z M79 84h1v1H79z M93 86h1v1H93z M70 88h1v1H70z M33 94h1v1H33z M83 95h1v1H83z M11 100h1v1H11z M63 100h1v1H63z M14 104h1v1H14z M100 116h1v1H100z M46 125h1v1H46z M81 125h1v1H81z M50 126h1v1H50z M77 126h1v1H77z M56 127h1v1H56z M71 127h1v1H71z"/>
<path fill="#000000" fill-opacity="0.753" d="M58 0h1v1H58z M69 0h1v1H69z M51 1h1v1H51z M76 1h1v1H76z M89 5h1v1H89z M95 8h1v1H95z M21 16h1v1H21z M106 16h1v1H106z M20 17h1v1H20z M16 21h1v1H16z M111 21h1v1H111z M115 26h1v1H115z M66 27h1v1H66z M50 29h1v1H50z M77 30h1v1H77z M82 33h1v1H82z M120 34h1v1H120z M121 36h1v1H121z M57 39h1v1H57z M33 42h1v1H33z M1 51h1v1H1z M41 51h1v1H41z M126 51h1v1H126z M28 53h1v1H28z M0 58h1v1H0z M127 58h1v1H127z M99 61h1v1H99z M38 63h1v1H38z M100 63h1v1H100z M0 69h1v1H0z M127 69h1v1H127z M1 76h1v1H1z M126 76h1v1H126z M80 83h1v1H80z M57 87h1v1H57z M69 88h1v1H69z M121 91h1v1H121z M120 93h1v1H120z M45 94h1v1H45z M43 95h1v1H43z M61 100h1v1H61z M69 100h1v1H69z M115 101h1v1H115z M16 106h1v1H16z M111 106h1v1H111z M17 107h1v1H17z M20 110h1v1H20z M106 111h1v1H106z M26 115h1v1H26z M34 120h1v1H34z M93 120h1v1H93z M36 121h1v1H36z M89 122h1v1H89z M51 126h1v1H51z M76 126h1v1H76z M58 127h1v1H58z M69 127h1v1H69z"/>
<path fill="#000000" fill-opacity="0.314" d="M54 0h1v1H54z M73 0h1v1H73z M49 1h1v1H49z M78 1h1v1H78z M42 3h1v1H42z M85 3h1v1H85z M90 5h1v1H90z M35 6h1v1H35z M92 6h1v1H92z M103 13h1v1H103z M114 24h1v1H114z M55 28h1v1H55z M80 32h1v1H80z M6 35h1v1H6z M40 35h1v1H40z M63 38h2v1H63z M3 42h1v1H3z M72 45h1v1H72z M1 49h1v1H1z M126 49h1v1H126z M75 52h1v1H75z M0 54h1v1H0z M127 54h1v1H127z M89 67h1v1H89z M0 73h1v1H0z M36 75h1v1H36z M54 76h1v1H54z M1 78h1v1H1z M126 78h1v1H126z M3 85h1v1H3z M74 87h1v1H74z M92 87h1v1H92z M71 88h1v1H71z M6 92h1v1H6z M121 92h1v1H121z M33 93h1v1H33z M37 97h1v1H37z M76 98h1v1H76z M13 103h1v1H13z M114 103h1v1H114z M103 114h1v1H103z M92 121h1v1H92z M90 122h1v1H90z M49 126h1v1H49z M78 126h1v1H78z M54 127h1v1H54z"/>
<path fill="#000000" fill-opacity="0.502" d="M40 4h1v1H40z M87 4h1v1H87z M97 9h1v1H97z M27 11h1v1H27z M113 23h1v1H113z M63 27h1v1H63z M116 27h1v1H116z M74 29h1v1H74z M48 30h1v1H48z M87 30h1v1H87z M46 31h1v1H46z M94 33h1v1H94z M41 34h1v1H41z M56 39h1v1H56z M4 40h1v1H4z M53 40h1v1H53z M71 40h1v1H71z M123 40h1v1H123z M34 41h1v1H34z M51 41h1v1H51z M49 42h1v1H49z M94 49h1v1H94z M38 61h1v1H38z M27 62h1v1H27z M89 65h1v1H89z M100 65h1v1H100z M31 67h1v1H31z M33 78h1v1H33z M95 83h1v1H95z M4 87h1v1H4z M123 87h1v1H123z M47 95h1v1H47z M9 97h1v1H9z M40 97h1v1H40z M64 100h3v1H64z M116 100h1v1H116z M113 104h1v1H113z M23 113h1v1H23z M104 113h1v1H104z M27 116h1v1H27z M97 118h1v1H97z M87 123h1v1H87z"/>
<path fill="#000000" fill-opacity="0.627" d="M43 3h1v1H43z M84 3h1v1H84z M100 11h1v1H100z M22 15h1v1H22z M60 27h2v1H60z M65 27h1v1H65z M71 28h1v1H71z M3 43h1v1H3z M124 43h1v1H124z M42 49h1v1H42z M73 51h1v1H73z M27 63h1v1H27z M28 65h1v1H28z M36 66h1v1H36z M100 68h1v1H100z M88 71h1v1H88z M87 74h1v1H87z M99 74h1v1H99z M86 76h1v1H86z M98 77h1v1H98z M55 83h1v1H55z M3 84h1v1H3z M124 84h1v1H124z M60 88h1v1H60z M86 93h1v1H86z M42 96h1v1H42z M36 97h1v1H36z M53 98h1v1H53z M56 99h1v1H56z M62 100h1v1H62z M67 100h2v1H67z M15 105h1v1H15z M112 105h1v1H112z M22 112h1v1H22z M32 119h1v1H32z M38 122h1v1H38z M43 124h1v1H43z M84 124h1v1H84z M57 127h1v1H57z M70 127h1v1H70z"/>
<path fill="#000000" fill-opacity="0.690" d="M57 0h1v1H57z M70 0h1v1H70z M38 5h1v1H38z M32 8h1v1H32z M105 15h1v1H105z M15 22h1v1H15z M112 22h1v1H112z M59 27h1v1H59z M85 31h1v1H85z M8 32h1v1H8z M119 32h1v1H119z M5 38h1v1H5z M122 38h1v1H122z M73 43h1v1H73z M29 50h1v1H29z M93 51h1v1H93z M40 53h1v1H40z M39 56h1v1H39z M0 57h1v1H0z M127 57h1v1H127z M94 59h2v1H94z M27 60h1v1H27z M37 65h1v1H37z M100 69h1v1H100z M0 70h1v1H0z M127 70h1v1H127z M34 76h1v1H34z M84 79h1v1H84z M53 85h1v1H53z M73 87h1v1H73z M5 89h1v1H5z M122 89h1v1H122z M8 95h1v1H8z M119 95h1v1H119z M77 98h1v1H77z M74 99h1v1H74z M21 111h1v1H21z M105 112h1v1H105z M95 119h1v1H95z"/>
<path fill="#000000" fill-opacity="0.188" d="M96 8h1v1H96z M25 12h1v1H25z M102 12h1v1H102z M12 25h1v1H12z M73 29h1v1H73z M8 31h1v1H8z M94 34h1v1H94z M39 36h1v1H39z M122 37h1v1H122z M65 38h1v1H65z M36 39h1v1H36z M47 43h1v1H47z M28 56h1v1H28z M99 72h1v1H99z M87 75h1v1H87z M33 80h1v1H33z M33 81h1v1H33z M33 82h1v1H33z M33 83h1v1H33z M33 84h1v1H33z M33 85h1v1H33z M78 85h1v1H78z M33 86h1v1H33z M33 87h1v1H33z M33 88h1v1H33z M33 89h1v1H33z M64 89h2v1H64z M90 89h1v1H90z M33 90h1v1H33z M89 90h1v1H89z M33 91h1v1H33z M33 92h1v1H33z M84 94h1v1H84z M35 96h1v1H35z M38 97h1v1H38z M58 99h1v1H58z M72 99h1v1H72z M12 102h1v1H12z M37 122h1v1H37z"/>
<path fill="#000000" fill-opacity="0.439" d="M55 0h1v1H55z M72 0h1v1H72z M51 29h1v1H51z M118 30h1v1H118z M83 34h1v1H83z M32 44h1v1H32z M30 48h1v1H30z M0 55h1v1H0z M127 55h1v1H127z M89 66h1v1H89z M0 72h1v1H0z M127 72h1v1H127z M85 78h1v1H85z M54 86h1v1H54z M59 88h1v1H59z M44 93h1v1H44z M81 96h1v1H81z M79 97h1v1H79z M118 97h1v1H118z M57 99h1v1H57z M73 99h1v1H73z M30 118h1v1H30z M40 123h1v1H40z M55 127h1v1H55z M72 127h1v1H72z"/>
<path fill="#000000" fill-opacity="0.376" d="M24 13h1v1H24z M13 24h1v1H13z M70 28h1v1H70z M84 33h1v1H84z M61 38h2v1H61z M45 45h1v1H45z M31 46h1v1H31z M44 46h1v1H44z M72 49h1v1H72z M29 51h1v1H29z M91 52h1v1H91z M28 55h1v1H28z M39 55h1v1H39z M38 60h1v1H38z M32 67h2v1H32z M88 72h1v1H88z M99 73h1v1H99z M97 79h1v1H97z M96 81h1v1H96z M76 86h1v1H76z M56 87h1v1H56z M87 92h1v1H87z M49 96h1v1H49z M51 97h1v1H51z"/>
</svg>
