<svg xmlns="http://www.w3.org/2000/svg" viewBox="0 0 128 128" width="128" height="128" role="img">
<path fill="#000000" d="M63 0h2v1H63z M53 1h22v1H53z M48 2h32v1H48z M45 3h38v1H45z M42 4h44v1H42z M39 5h50v1H39z M37 6h54v1H37z M35 7h58v1H35z M33 8h62v1H33z M32 9h64v1H32z M30 10h68v1H30z M28 11h72v1H28z M27 12h74v1H27z M26 13h76v1H26z M24 14h80v1H24z M23 15h82v1H23z M22 16h84v1H22z M21 17h86v1H21z M20 18h88v1H20z M19 19h90v1H19z M18 20h92v1H18z M17 21h94v1H17z M16 22h96v1H16z M15 23h98v1H15z M14 24h100v1H14z M14 25h100v1H14z M13 26h102v1H13z M12 27h104v1H12z M11 28h106v1H11z M11 29h106v1H11z M10 30h108v1H10z M10 31h109v1H10z M9 32h110v1H9z M8 33h112v1H8z M8 34h112v1H8z M7 35h114v1H7z M7 36h114v1H7z M6 37h116v1H6z M6 38h37v1H6z M45 38h38v1H45z M85 38h37v1H85z M5 39h36v1H5z M48 39h32v1H48z M87 39h36v1H87z M5 40h35v1H5z M49 40h30v1H49z M88 40h35v1H88z M5 41h34v1H5z M50 41h28v1H50z M89 41h34v1H89z M4 42h35v1H4z M51 42h26v1H51z M89 42h35v1H89z M4 43h34v1H4z M52 43h24v1H52z M90 43h34v1H90z M4 44h34v1H4z M53 44h22v1H53z M90 44h34v1H90z M3 45h36v1H3z M54 45h20v1H54z M89 45h36v1H89z M3 46h36v1H3z M55 46h18v1H55z M89 46h36v1H89z M3 47h36v1H3z M56 47h16v1H56z M89 47h36v1H89z M2 48h38v1H2z M57 48h14v1H57z M88 48h38v1H88z M2 49h39v1H2z M58 49h12v1H58z M87 49h39v1H87z M2 50h40v1H2z M59 50h10v1H59z M86 50h40v1H86z M2 51h41v1H2z M60 51h8v1H60z M85 51h41v1H85z M2 52h42v1H2z M61 52h6v1H61z M84 52h42v1H84z M1 53h44v1H1z M62 53h4v1H62z M83 53h44v1H83z M1 54h45v1H1z M63 54h2v1H63z M82 54h45v1H82z M1 55h46v1H1z M81 55h46v1H81z M1 56h47v1H1z M80 56h47v1H80z M1 57h48v1H1z M79 57h48v1H79z M1 58h49v1H1z M78 58h49v1H78z M1 59h50v1H1z M77 59h50v1H77z M1 60h51v1H1z M76 60h51v1H76z M1 61h52v1H1z M75 61h52v1H75z M1 62h53v1H1z M74 62h53v1H74z M0 63h55v1H0z M73 63h55v1H73z M0 64h55v1H0z M73 64h55v1H73z M1 65h53v1H1z M74 65h53v1H74z M1 66h52v1H1z M75 66h52v1H75z M1 67h51v1H1z M76 67h51v1H76z M1 68h50v1H1z M77 68h50v1H77z M1 69h49v1H1z M78 69h49v1H78z M1 70h48v1H1z M79 70h48v1H79z M1 71h47v1H1z M80 71h47v1H80z M1 72h46v1H1z M81 72h46v1H81z M1 73h45v1H1z M63 73h2v1H63z M82 73h45v1H82z M1 74h44v1H1z M62 74h4v1H62z M83 74h44v1H83z M2 75h42v1H2z M61 75h6v1H61z M84 75h42v1H84z M2 76h41v1H2z M60 76h8v1H60z M85 76h41v1H85z M2 77h40v1H2z M59 77h10v1H59z M86 77h40v1H86z M2 78h39v1H2z M58 78h12v1H58z M87 78h39v1H87z M2 79h38v1H2z M57 79h14v1H57z M88 79h38v1H88z M3 80h36v1H3z M56 80h16v1H56z M89 80h36v1H89z M3 81h36v1H3z M55 81h18v1H55z M89 81h36v1H89z M3 82h36v1H3z M54 82h20v1H54z M89 82h36v1H89z M4 83h34v1H4z M53 83h22v1H53z M90 83h34v1H90z M4 84h34v1H4z M52 84h24v1H52z M90 84h34v1H90z M4 85h35v1H4z M51 85h26v1H51z M89 85h35v1H89z M5 86h34v1H5z M50 86h28v1H50z M89 86h34v1H89z M5 87h35v1H5z M49 87h30v1H49z M88 87h35v1H88z M5 88h36v1H5z M48 88h32v1H48z M87 88h36v1H87z M6 89h37v1H6z M45 89h38v1H45z M85 89h37v1H85z M6 90h116v1H6z M7 91h114v1H7z M7 92h114v1H7z M8 93h112v1H8z M8 94h112v1H8z M9 95h110v1H9z M10 96h108v1H10z M10 97h108v1H10z M11 98h106v1H11z M11 99h106v1H11z M12 100h104v1H12z M13 101h102v1H13z M14 102h100v1H14z M14 103h100v1H14z M15 104h98v1H15z M16 105h96v1H16z M17 106h94v1H17z M18 107h92v1H18z M19 108h90v1H19z M20 109h88v1H20z M21 110h86v1H21z M22 111h84v1H22z M23 112h82v1H23z M24 113h80v1H24z M26 114h76v1H26z M27 115h74v1H27z M28 116h72v1H28z M30 117h68v1H30z M32 118h64v1H32z M33 119h62v1H33z M35 120h58v1H35z M37 121h54v1H37z M39 122h50v1H39z M42 123h44v1H42z M45 124h38v1H45z M48 125h32v1H48z M53 126h22v1H53z M63 127h2v1H63z"/>
<path fill="#000000" fill-opacity="0.125" d="M53 0h1v1H53z M74 0h1v1H74z M48 1h1v1H48z M79 1h1v1H79z M39 4h1v1H39z M88 4h1v1H88z M31 8h1v1H31z M96 8h1v1H96z M102 12h1v1H102z M18 18h1v1H18z M109 18h1v1H109z M115 25h1v1H115z M8 31h1v1H8z M119 31h1v1H119z M4 39h1v1H4z M123 39h1v1H123z M47 40h1v1H47z M80 40h1v1H80z M48 41h1v1H48z M79 41h1v1H79z M49 42h1v1H49z M78 42h1v1H78z M50 43h1v1H50z M77 43h1v1H77z M51 44h1v1H51z M76 44h1v1H76z M52 45h1v1H52z M75 45h1v1H75z M53 46h1v1H53z M74 46h1v1H74z M40 47h1v1H40z M54 47h1v1H54z M73 47h1v1H73z M87 47h1v1H87z M1 48h1v1H1z M41 48h1v1H41z M55 48h1v1H55z M72 48h1v1H72z M86 48h1v1H86z M126 48h1v1H126z M42 49h1v1H42z M56 49h1v1H56z M71 49h1v1H71z M85 49h1v1H85z M43 50h1v1H43z M57 50h1v1H57z M70 50h1v1H70z M84 50h1v1H84z M44 51h1v1H44z M58 51h1v1H58z M69 51h1v1H69z M83 51h1v1H83z M45 52h1v1H45z M59 52h1v1H59z M68 52h1v1H68z M82 52h1v1H82z M0 53h1v1H0z M46 53h1v1H46z M60 53h1v1H60z M67 53h1v1H67z M81 53h1v1H81z M127 53h1v1H127z M47 54h1v1H47z M61 54h1v1H61z M66 54h1v1H66z M80 54h1v1H80z M48 55h1v1H48z M62 55h1v1H62z M65 55h1v1H65z M79 55h1v1H79z M49 56h1v1H49z M63 56h2v1H63z M78 56h1v1H78z M50 57h1v1H50z M77 57h1v1H77z M51 58h1v1H51z M76 58h1v1H76z M52 59h1v1H52z M75 59h1v1H75z M53 60h1v1H53z M74 60h1v1H74z M54 61h1v1H54z M73 61h1v1H73z M55 62h1v1H55z M72 62h1v1H72z M56 63h1v1H56z M71 63h1v1H71z M56 64h1v1H56z M55 65h1v1H55z M54 66h1v1H54z M53 67h1v1H53z M74 67h1v1H74z M52 68h1v1H52z M51 69h1v1H51z M50 70h1v1H50z M77 70h1v1H77z M49 71h1v1H49z M63 71h2v1H63z M78 71h1v1H78z M48 72h1v1H48z M62 72h1v1H62z M65 72h1v1H65z M47 73h1v1H47z M61 73h1v1H61z M66 73h1v1H66z M80 73h1v1H80z M0 74h1v1H0z M46 74h1v1H46z M60 74h1v1H60z M67 74h1v1H67z M127 74h1v1H127z M45 75h1v1H45z M59 75h1v1H59z M68 75h1v1H68z M44 76h1v1H44z M58 76h1v1H58z M69 76h1v1H69z M83 76h1v1H83z M43 77h1v1H43z M57 77h1v1H57z M70 77h1v1H70z M42 78h1v1H42z M56 78h1v1H56z M71 78h1v1H71z M1 79h1v1H1z M41 79h1v1H41z M55 79h1v1H55z M72 79h1v1H72z M86 79h1v1H86z M40 80h1v1H40z M54 80h1v1H54z M73 80h1v1H73z M87 80h1v1H87z M53 81h1v1H53z M74 81h1v1H74z M52 82h1v1H52z M75 82h1v1H75z M51 83h1v1H51z M76 83h1v1H76z M50 84h1v1H50z M77 84h1v1H77z M49 85h1v1H49z M78 85h1v1H78z M48 86h1v1H48z M79 86h1v1H79z M47 87h1v1H47z M80 87h1v1H80z M4 88h1v1H4z M123 88h1v1H123z M8 96h1v1H8z M119 96h1v1H119z M115 102h1v1H115z M18 109h1v1H18z M109 109h1v1H109z M102 115h1v1H102z M31 119h1v1H31z M96 119h1v1H96z M39 123h1v1H39z M88 123h1v1H88z M53 127h1v1H53z M74 127h1v1H74z"/>
<path fill="#000000" fill-opacity="0.878" d="M60 0h1v1H60z M67 0h1v1H67z M47 2h1v1H47z M41 4h1v1H41z M86 4h1v1H86z M25 13h1v1H25z M13 25h1v1H13z M114 25h1v1H114z M44 38h1v1H44z M83 38h1v1H83z M48 40h1v1H48z M79 40h1v1H79z M4 41h1v1H4z M49 41h1v1H49z M78 41h1v1H78z M123 41h1v1H123z M50 42h1v1H50z M77 42h1v1H77z M51 43h1v1H51z M76 43h1v1H76z M38 44h1v1H38z M52 44h1v1H52z M75 44h1v1H75z M89 44h1v1H89z M53 45h1v1H53z M74 45h1v1H74z M54 46h1v1H54z M73 46h1v1H73z M55 47h1v1H55z M72 47h1v1H72z M40 48h1v1H40z M71 48h1v1H71z M41 49h1v1H41z M70 49h1v1H70z M42 50h1v1H42z M69 50h1v1H69z M43 51h1v1H43z M59 51h1v1H59z M68 51h1v1H68z M84 51h1v1H84z M44 52h1v1H44z M67 52h1v1H67z M45 53h1v1H45z M66 53h1v1H66z M46 54h1v1H46z M62 54h1v1H62z M65 54h1v1H65z M81 54h1v1H81z M47 55h1v1H47z M64 55h1v1H64z M48 56h1v1H48z M79 56h1v1H79z M49 57h1v1H49z M78 57h1v1H78z M50 58h1v1H50z M51 59h1v1H51z M0 60h1v1H0z M52 60h1v1H52z M75 60h1v1H75z M127 60h1v1H127z M53 61h1v1H53z M54 62h1v1H54z M55 63h1v1H55z M55 64h1v1H55z M54 65h1v1H54z M53 66h1v1H53z M0 67h1v1H0z M52 67h1v1H52z M75 67h1v1H75z M127 67h1v1H127z M51 68h1v1H51z M50 69h1v1H50z M49 70h1v1H49z M78 70h1v1H78z M48 71h1v1H48z M79 71h1v1H79z M47 72h1v1H47z M64 72h1v1H64z M46 73h1v1H46z M62 73h1v1H62z M65 73h1v1H65z M81 73h1v1H81z M45 74h1v1H45z M66 74h1v1H66z M44 75h1v1H44z M67 75h1v1H67z M43 76h1v1H43z M59 76h1v1H59z M68 76h1v1H68z M84 76h1v1H84z M42 77h1v1H42z M69 77h1v1H69z M41 78h1v1H41z M70 78h1v1H70z M40 79h1v1H40z M56 79h1v1H56z M71 79h1v1H71z M87 79h1v1H87z M55 80h1v1H55z M72 80h1v1H72z M54 81h1v1H54z M73 81h1v1H73z M53 82h1v1H53z M74 82h1v1H74z M38 83h1v1H38z M52 83h1v1H52z M75 83h1v1H75z M89 83h1v1H89z M51 84h1v1H51z M76 84h1v1H76z M50 85h1v1H50z M77 85h1v1H77z M4 86h1v1H4z M49 86h1v1H49z M78 86h1v1H78z M123 86h1v1H123z M48 87h1v1H48z M79 87h1v1H79z M44 89h1v1H44z M83 89h1v1H83z M13 102h1v1H13z M114 102h1v1H114z M25 114h1v1H25z M41 123h1v1H41z M86 123h1v1H86z M60 127h1v1H60z M67 127h1v1H67z"/>
<path fill="#000000" fill-opacity="0.816" d="M59 0h1v1H59z M68 0h1v1H68z M80 2h1v1H80z M36 6h1v1H36z M29 10h1v1H29z M98 10h1v1H98z M107 17h1v1H107z M19 18h1v1H19z M108 18h1v1H108z M18 19h1v1H18z M109 19h1v1H109z M10 29h1v1H10z M117 29h1v1H117z M6 36h1v1H6z M2 47h1v1H2z M125 47h1v1H125z M56 48h1v1H56z M87 48h1v1H87z M57 49h1v1H57z M86 49h1v1H86z M58 50h1v1H58z M85 50h1v1H85z M60 52h1v1H60z M83 52h1v1H83z M61 53h1v1H61z M82 53h1v1H82z M63 55h1v1H63z M80 55h1v1H80z M77 58h1v1H77z M0 59h1v1H0z M76 59h1v1H76z M127 59h1v1H127z M74 61h1v1H74z M73 62h1v1H73z M72 63h1v1H72z M72 64h1v1H72z M73 65h1v1H73z M74 66h1v1H74z M0 68h1v1H0z M76 68h1v1H76z M127 68h1v1H127z M77 69h1v1H77z M63 72h1v1H63z M80 72h1v1H80z M61 74h1v1H61z M82 74h1v1H82z M60 75h1v1H60z M83 75h1v1H83z M58 77h1v1H58z M85 77h1v1H85z M57 78h1v1H57z M86 78h1v1H86z M2 80h1v1H2z M125 80h1v1H125z M10 98h1v1H10z M117 98h1v1H117z M18 108h1v1H18z M109 108h1v1H109z M19 109h1v1H19z M108 109h1v1H108z M29 117h1v1H29z M98 117h1v1H98z M47 125h1v1H47z M80 125h1v1H80z M59 127h1v1H59z M68 127h1v1H68z"/>
<path fill="#000000" fill-opacity="0.251" d="M45 2h1v1H45z M82 2h1v1H82z M42 3h1v1H42z M85 3h1v1H85z M37 5h1v1H37z M90 5h1v1H90z M92 6h1v1H92z M33 7h1v1H33z M94 7h1v1H94z M28 10h1v1H28z M99 10h1v1H99z M24 13h1v1H24z M103 13h1v1H103z M13 24h1v1H13z M114 24h1v1H114z M10 28h1v1H10z M117 28h1v1H117z M7 33h1v1H7z M120 33h1v1H120z M121 35h1v1H121z M5 37h1v1H5z M122 37h1v1H122z M3 42h1v1H3z M124 42h1v1H124z M2 45h1v1H2z M125 45h1v1H125z M127 54h1v1H127z M127 73h1v1H127z M2 82h1v1H2z M125 82h1v1H125z M3 85h1v1H3z M124 85h1v1H124z M5 90h1v1H5z M122 90h1v1H122z M121 92h1v1H121z M7 94h1v1H7z M120 94h1v1H120z M10 99h1v1H10z M117 99h1v1H117z M13 103h1v1H13z M114 103h1v1H114z M24 114h1v1H24z M103 114h1v1H103z M28 117h1v1H28z M99 117h1v1H99z M33 120h1v1H33z M94 120h1v1H94z M35 121h1v1H35z M92 121h1v1H92z M37 122h1v1H37z M90 122h1v1H90z M42 124h1v1H42z M85 124h1v1H85z M45 125h1v1H45z M82 125h1v1H82z M54 127h1v1H54z M73 127h1v1H73z"/>
<path fill="#000000" fill-opacity="0.941" d="M61 0h2v1H61z M65 0h2v1H65z M52 1h1v1H52z M75 1h1v1H75z M44 3h1v1H44z M83 3h1v1H83z M31 9h1v1H31z M96 9h1v1H96z M102 13h1v1H102z M9 31h1v1H9z M43 38h1v1H43z M84 38h1v1H84z M47 39h1v1H47z M80 39h1v1H80z M38 43h1v1H38z M89 43h1v1H89z M3 44h1v1H3z M124 44h1v1H124z M39 47h1v1H39z M88 47h1v1H88z M1 52h1v1H1z M126 52h1v1H126z M0 61h1v1H0z M127 61h1v1H127z M0 62h1v1H0z M127 62h1v1H127z M0 65h1v1H0z M127 65h1v1H127z M0 66h1v1H0z M127 66h1v1H127z M1 75h1v1H1z M126 75h1v1H126z M39 80h1v1H39z M88 80h1v1H88z M3 83h1v1H3z M124 83h1v1H124z M38 84h1v1H38z M89 84h1v1H89z M47 88h1v1H47z M80 88h1v1H80z M43 89h1v1H43z M84 89h1v1H84z M9 96h1v1H9z M118 96h1v1H118z M102 114h1v1H102z M31 118h1v1H31z M96 118h1v1H96z M44 124h1v1H44z M83 124h1v1H83z M52 126h1v1H52z M75 126h1v1H75z M61 127h2v1H61z M65 127h2v1H65z"/>
<path fill="#000000" fill-opacity="0.753" d="M58 0h1v1H58z M69 0h1v1H69z M51 1h1v1H51z M76 1h1v1H76z M91 6h1v1H91z M34 7h1v1H34z M93 7h1v1H93z M26 12h1v1H26z M101 12h1v1H101z M20 17h1v1H20z M17 20h1v1H17z M110 20h1v1H110z M12 26h1v1H12z M115 26h1v1H115z M7 34h1v1H7z M120 34h1v1H120z M121 36h1v1H121z M1 51h1v1H1z M126 51h1v1H126z M0 58h1v1H0z M127 58h1v1H127z M0 69h1v1H0z M127 69h1v1H127z M1 76h1v1H1z M126 76h1v1H126z M6 91h1v1H6z M121 91h1v1H121z M7 93h1v1H7z M120 93h1v1H120z M12 101h1v1H12z M115 101h1v1H115z M17 107h1v1H17z M110 107h1v1H110z M20 110h1v1H20z M107 110h1v1H107z M26 115h1v1H26z M101 115h1v1H101z M34 120h1v1H34z M93 120h1v1H93z M36 121h1v1H36z M91 121h1v1H91z M51 126h1v1H51z M76 126h1v1H76z M58 127h1v1H58z M69 127h1v1H69z"/>
<path fill="#000000" fill-opacity="0.627" d="M43 3h1v1H43z M84 3h1v1H84z M32 8h1v1H32z M22 15h1v1H22z M105 15h1v1H105z M15 22h1v1H15z M112 22h1v1H112z M8 32h1v1H8z M41 39h1v1H41z M86 39h1v1H86z M39 41h1v1H39z M88 41h1v1H88z M3 43h1v1H3z M124 43h1v1H124z M127 70h1v1H127z M3 84h1v1H3z M124 84h1v1H124z M39 86h1v1H39z M88 86h1v1H88z M41 88h1v1H41z M86 88h1v1H86z M8 95h1v1H8z M119 95h1v1H119z M15 105h1v1H15z M112 105h1v1H112z M22 112h1v1H22z M105 112h1v1H105z M32 119h1v1H32z M43 124h1v1H43z M84 124h1v1H84z M57 127h1v1H57z M70 127h1v1H70z"/>
<path fill="#000000" fill-opacity="0.439" d="M55 0h1v1H55z M72 0h1v1H72z M40 4h1v1H40z M30 9h1v1H30z M97 9h1v1H97z M9 30h1v1H9z M46 39h1v1H46z M81 39h1v1H81z M40 40h1v1H40z M87 40h1v1H87z M39 46h1v1H39z M88 46h1v1H88z M0 55h1v1H0z M127 55h1v1H127z M0 72h1v1H0z M39 81h1v1H39z M88 81h1v1H88z M40 87h1v1H40z M87 87h1v1H87z M46 88h1v1H46z M81 88h1v1H81z M9 97h1v1H9z M27 116h1v1H27z M40 123h1v1H40z M55 127h1v1H55z M72 127h1v1H72z"/>
<path fill="#000000" fill-opacity="0.502" d="M87 4h1v1H87z M27 11h1v1H27z M100 11h1v1H100z M23 14h1v1H23z M104 14h1v1H104z M14 23h1v1H14z M113 23h1v1H113z M11 27h1v1H11z M116 27h1v1H116z M118 30h1v1H118z M4 40h1v1H4z M123 40h1v1H123z M4 87h1v1H4z M123 87h1v1H123z M118 97h1v1H118z M11 100h1v1H11z M116 100h1v1H116z M14 104h1v1H14z M113 104h1v1H113z M23 113h1v1H23z M104 113h1v1H104z M100 116h1v1H100z M30 118h1v1H30z M97 118h1v1H97z M87 123h1v1H87z"/>
<path fill="#000000" fill-opacity="0.565" d="M56 0h1v1H56z M71 0h1v1H71z M50 1h1v1H50z M77 1h1v1H77z M46 2h1v1H46z M81 2h1v1H81z M2 46h1v1H2z M125 46h1v1H125z M1 50h1v1H1z M126 50h1v1H126z M0 56h1v1H0z M127 56h1v1H127z M0 71h1v1H0z M127 71h1v1H127z M1 77h1v1H1z M126 77h1v1H126z M2 81h1v1H2z M125 81h1v1H125z M46 125h1v1H46z M81 125h1v1H81z M50 126h1v1H50z M77 126h1v1H77z M56 127h1v1H56z M71 127h1v1H71z"/>
<path fill="#000000" fill-opacity="0.690" d="M57 0h1v1H57z M70 0h1v1H70z M38 5h1v1H38z M89 5h1v1H89z M95 8h1v1H95z M21 16h1v1H21z M106 16h1v1H106z M16 21h1v1H16z M111 21h1v1H111z M119 32h1v1H119z M5 38h1v1H5z M122 38h1v1H122z M0 57h1v1H0z M127 57h1v1H127z M0 70h1v1H0z M5 89h1v1H5z M122 89h1v1H122z M16 106h1v1H16z M111 106h1v1H111z M21 111h1v1H21z M106 111h1v1H106z M95 119h1v1H95z M38 122h1v1H38z M89 122h1v1H89z"/>
<path fill="#000000" fill-opacity="0.314" d="M54 0h1v1H54z M73 0h1v1H73z M49 1h1v1H49z M78 1h1v1H78z M35 6h1v1H35z M6 35h1v1H6z M1 49h1v1H1z M126 49h1v1H126z M0 54h1v1H0z M0 73h1v1H0z M1 78h1v1H1z M126 78h1v1H126z M6 92h1v1H6z M49 126h1v1H49z M78 126h1v1H78z"/>
<path fill="#000000" fill-opacity="0.188" d="M42 39h1v1H42z M85 39h1v1H85z M39 42h1v1H39z M88 42h1v1H88z M39 85h1v1H39z M88 85h1v1H88z M42 88h1v1H42z M85 88h1v1H85z"/>
<path fill="#000000" fill-opacity="0.376" d="M127 72h1v1H127z"/>
</svg>
