<svg xmlns="http://www.w3.org/2000/svg" viewBox="0 0 128 128" width="128" height="128" role="img">
<path fill="#000000" d="M54 4h20v1H54z M49 5h29v1H49z M46 6h36v1H46z M43 7h42v1H43z M40 8h48v1H40z M38 9h52v1H38z M36 10h56v1H36z M34 11h60v1H34z M33 12h62v1H33z M31 13h66v1H31z M30 14h68v1H30z M28 15h72v1H28z M27 16h74v1H27z M26 17h76v1H26z M24 18h80v1H24z M23 19h82v1H23z M22 20h84v1H22z M21 21h86v1H21z M20 22h88v1H20z M19 23h90v1H19z M18 24h92v1H18z M18 25h92v1H18z M17 26h94v1H17z M16 27h96v1H16z M15 28h98v1H15z M15 29h98v1H15z M14 30h100v1H14z M13 31h102v1H13z M13 32h102v1H13z M12 33h104v1H12z M11 34h106v1H11z M11 35h106v1H11z M10 36h108v1H10z M10 37h108v1H10z M9 38h110v1H9z M9 39h110v1H9z M9 40h76v1H9z M92 40h28v1H92z M8 41h75v1H8z M94 41h26v1H94z M8 42h74v1H8z M95 42h25v1H95z M7 43h74v1H7z M95 43h26v1H95z M7 44h73v1H7z M96 44h25v1H96z M7 45h72v1H7z M96 45h25v1H96z M6 46h72v1H6z M96 46h26v1H96z M6 47h71v1H6z M96 47h26v1H96z M6 48h70v1H6z M96 48h26v1H96z M6 49h69v1H6z M96 49h26v1H96z M5 50h69v1H5z M95 50h28v1H95z M5 51h68v1H5z M95 51h28v1H95z M5 52h67v1H5z M94 52h29v1H94z M5 53h66v1H5z M93 53h30v1H93z M4 54h66v1H4z M92 54h32v1H92z M4 55h65v1H4z M91 55h33v1H91z M4 56h64v1H4z M90 56h34v1H90z M4 57h33v1H4z M42 57h25v1H42z M89 57h35v1H89z M4 58h31v1H4z M44 58h22v1H44z M88 58h36v1H88z M4 59h30v1H4z M45 59h20v1H45z M87 59h37v1H87z M4 60h29v1H4z M46 60h18v1H46z M86 60h38v1H86z M4 61h29v1H4z M47 61h17v1H47z M85 61h39v1H85z M4 62h28v1H4z M48 62h14v1H48z M84 62h40v1H84z M4 63h28v1H4z M49 63h13v1H49z M83 63h41v1H83z M4 64h28v1H4z M50 64h11v1H50z M82 64h42v1H82z M4 65h28v1H4z M51 65h9v1H51z M81 65h43v1H81z M4 66h28v1H4z M52 66h7v1H52z M80 66h44v1H80z M4 67h28v1H4z M53 67h5v1H53z M79 67h45v1H79z M4 68h29v1H4z M54 68h3v1H54z M78 68h46v1H78z M4 69h29v1H4z M55 69h1v1H55z M77 69h47v1H77z M4 70h30v1H4z M76 70h48v1H76z M4 71h31v1H4z M75 71h49v1H75z M4 72h32v1H4z M74 72h50v1H74z M4 73h33v1H4z M73 73h51v1H73z M5 74h33v1H5z M72 74h51v1H72z M5 75h34v1H5z M71 75h52v1H71z M5 76h35v1H5z M70 76h53v1H70z M5 77h36v1H5z M70 77h53v1H70z M6 78h36v1H6z M69 78h53v1H69z M6 79h37v1H6z M68 79h54v1H68z M6 80h38v1H6z M67 80h55v1H67z M6 81h39v1H6z M66 81h56v1H66z M7 82h39v1H7z M65 82h56v1H65z M7 83h40v1H7z M64 83h57v1H64z M7 84h41v1H7z M63 84h58v1H63z M8 85h41v1H8z M62 85h58v1H62z M8 86h42v1H8z M61 86h59v1H61z M8 87h44v1H8z M59 87h60v1H59z M9 88h110v1H9z M9 89h110v1H9z M10 90h108v1H10z M10 91h108v1H10z M11 92h106v1H11z M11 93h106v1H11z M12 94h104v1H12z M13 95h102v1H13z M13 96h102v1H13z M14 97h100v1H14z M15 98h98v1H15z M15 99h98v1H15z M16 100h96v1H16z M17 101h94v1H17z M18 102h92v1H18z M18 103h92v1H18z M19 104h90v1H19z M20 105h88v1H20z M21 106h86v1H21z M22 107h84v1H22z M23 108h82v1H23z M24 109h80v1H24z M26 110h76v1H26z M27 111h74v1H27z M28 112h72v1H28z M30 113h68v1H30z M31 114h66v1H31z M33 115h62v1H33z M34 116h60v1H34z M36 117h56v1H36z M38 118h52v1H38z M41 119h47v1H41z M43 120h42v1H43z M46 121h36v1H46z M50 122h28v1H50z M54 123h20v1H54z"/>
<path fill="#000000" fill-opacity="0.941" d="M78 5h1v1H78z M32 12h1v1H32z M95 12h1v1H95z M29 14h1v1H29z M98 14h1v1H98z M25 17h1v1H25z M102 17h1v1H102z M17 25h1v1H17z M110 25h1v1H110z M14 29h1v1H14z M113 29h1v1H113z M12 32h1v1H12z M115 32h1v1H115z M8 40h1v1H8z M83 41h1v1H83z M93 41h1v1H93z M94 42h1v1H94z M81 43h1v1H81z M80 44h1v1H80z M79 45h1v1H79z M78 46h1v1H78z M77 47h1v1H77z M76 48h1v1H76z M5 49h1v1H5z M75 49h1v1H75z M122 49h1v1H122z M74 50h1v1H74z M73 51h1v1H73z M72 52h1v1H72z M71 53h1v1H71z M70 54h1v1H70z M69 55h1v1H69z M68 56h1v1H68z M37 57h1v1H37z M41 57h1v1H41z M67 57h1v1H67z M66 58h1v1H66z M65 59h1v1H65z M64 60h1v1H64z M62 62h1v1H62z M69 77h1v1H69z M5 78h1v1H5z M68 78h1v1H68z M122 78h1v1H122z M67 79h1v1H67z M66 80h1v1H66z M65 81h1v1H65z M64 82h1v1H64z M63 83h1v1H63z M62 84h1v1H62z M61 85h1v1H61z M50 86h1v1H50z M60 86h1v1H60z M119 87h1v1H119z M12 95h1v1H12z M115 95h1v1H115z M14 98h1v1H14z M113 98h1v1H113z M17 102h1v1H17z M110 102h1v1H110z M25 110h1v1H25z M102 110h1v1H102z M29 113h1v1H29z M98 113h1v1H98z M95 115h1v1H95z M40 119h1v1H40z M49 122h1v1H49z M78 122h1v1H78z"/>
<path fill="#000000" fill-opacity="0.251" d="M71 3h1v1H71z M50 4h1v1H50z M77 4h1v1H77z M46 5h1v1H46z M81 5h1v1H81z M84 6h1v1H84z M36 9h1v1H36z M91 9h1v1H91z M24 17h1v1H24z M103 17h1v1H103z M17 24h1v1H17z M110 24h1v1H110z M9 36h1v1H9z M118 36h1v1H118z M5 46h1v1H5z M122 46h1v1H122z M4 50h1v1H4z M123 50h1v1H123z M72 53h1v1H72z M71 54h1v1H71z M70 55h1v1H70z M69 56h1v1H69z M68 57h1v1H68z M67 58h1v1H67z M66 59h1v1H66z M65 60h1v1H65z M63 62h1v1H63z M33 68h1v1H33z M124 71h1v1H124z M69 76h1v1H69z M4 77h1v1H4z M68 77h1v1H68z M67 78h1v1H67z M66 79h1v1H66z M65 80h1v1H65z M5 81h1v1H5z M64 81h1v1H64z M63 82h1v1H63z M62 83h1v1H62z M61 84h1v1H61z M60 85h1v1H60z M51 86h1v1H51z M118 91h1v1H118z M17 103h1v1H17z M110 103h1v1H110z M24 110h1v1H24z M103 110h1v1H103z M91 118h1v1H91z M84 121h1v1H84z M81 122h1v1H81z M77 123h1v1H77z M56 124h1v1H56z"/>
<path fill="#000000" fill-opacity="0.502" d="M58 3h1v1H58z M51 4h1v1H51z M47 5h1v1H47z M80 5h1v1H80z M44 6h1v1H44z M41 7h1v1H41z M86 7h1v1H86z M21 20h1v1H21z M106 20h1v1H106z M20 21h1v1H20z M107 21h1v1H107z M108 22h1v1H108z M7 41h1v1H7z M120 41h1v1H120z M95 45h1v1H95z M5 47h1v1H5z M122 47h1v1H122z M4 51h1v1H4z M123 51h1v1H123z M92 53h1v1H92z M91 54h1v1H91z M90 55h1v1H90z M89 56h1v1H89z M88 57h1v1H88z M87 58h1v1H87z M124 58h1v1H124z M86 59h1v1H86z M50 65h1v1H50z M32 66h1v1H32z M52 67h1v1H52z M53 68h1v1H53z M54 69h1v1H54z M124 69h1v1H124z M4 76h1v1H4z M5 80h1v1H5z M122 80h1v1H122z M121 83h1v1H121z M7 86h1v1H7z M120 86h1v1H120z M20 106h1v1H20z M107 106h1v1H107z M21 107h1v1H21z M106 107h1v1H106z M41 120h1v1H41z M86 120h1v1H86z M44 121h1v1H44z M47 122h1v1H47z M80 122h1v1H80z M76 123h1v1H76z M58 124h1v1H58z M69 124h1v1H69z"/>
<path fill="#000000" fill-opacity="0.125" d="M55 3h1v1H55z M72 3h1v1H72z M40 7h1v1H40z M32 11h1v1H32z M29 13h1v1H29z M98 13h1v1H98z M102 16h1v1H102z M16 25h1v1H16z M111 25h1v1H111z M13 29h1v1H13z M114 29h1v1H114z M8 38h1v1H8z M88 40h1v1H88z M120 40h1v1H120z M94 50h1v1H94z M3 55h1v1H3z M124 55h1v1H124z M3 72h1v1H3z M124 72h1v1H124z M38 73h1v1H38z M39 74h1v1H39z M41 76h1v1H41z M42 77h1v1H42z M43 78h1v1H43z M44 79h1v1H44z M45 80h1v1H45z M46 81h1v1H46z M47 82h1v1H47z M48 83h1v1H48z M49 84h1v1H49z M50 85h1v1H50z M7 87h1v1H7z M55 87h1v1H55z M119 89h1v1H119z M11 95h1v1H11z M13 98h1v1H13z M114 98h1v1H114z M16 102h1v1H16z M111 102h1v1H111z M25 111h1v1H25z M102 111h1v1H102z M29 114h1v1H29z M98 114h1v1H98z M95 116h1v1H95z M34 117h1v1H34z M38 119h1v1H38z M87 120h1v1H87z M55 124h1v1H55z M72 124h1v1H72z"/>
<path fill="#000000" fill-opacity="0.188" d="M43 6h1v1H43z M38 8h1v1H38z M89 8h1v1H89z M34 10h1v1H34z M93 10h1v1H93z M25 16h1v1H25z M10 34h1v1H10z M117 34h1v1H117z M119 38h1v1H119z M87 40h1v1H87z M89 40h1v1H89z M83 42h1v1H83z M93 42h1v1H93z M6 43h1v1H6z M82 43h1v1H82z M121 43h1v1H121z M81 44h1v1H81z M80 45h1v1H80z M79 46h1v1H79z M78 47h1v1H78z M77 48h1v1H77z M76 49h1v1H76z M75 50h1v1H75z M74 51h1v1H74z M73 52h1v1H73z M33 61h1v1H33z M55 70h1v1H55z M123 77h1v1H123z M122 81h1v1H122z M6 84h1v1H6z M121 84h1v1H121z M54 87h1v1H54z M56 87h1v1H56z M8 89h1v1H8z M9 91h1v1H9z M10 93h1v1H10z M117 93h1v1H117z M93 117h1v1H93z M36 118h1v1H36z M89 119h1v1H89z M43 121h1v1H43z M46 122h1v1H46z M50 123h1v1H50z"/>
<path fill="#000000" fill-opacity="0.753" d="M62 3h1v1H62z M64 3h2v1H64z M48 5h1v1H48z M79 5h1v1H79z M35 10h1v1H35z M92 10h1v1H92z M30 13h1v1H30z M97 13h1v1H97z M13 30h1v1H13z M114 30h1v1H114z M10 35h1v1H10z M117 35h1v1H117z M85 40h1v1H85z M91 40h1v1H91z M5 48h1v1H5z M122 48h1v1H122z M38 57h1v1H38z M40 57h1v1H40z M33 60h1v1H33z M3 62h1v1H3z M124 62h1v1H124z M3 63h1v1H3z M124 63h1v1H124z M124 64h1v1H124z M3 65h1v1H3z M32 67h1v1H32z M5 79h1v1H5z M122 79h1v1H122z M52 87h1v1H52z M10 92h1v1H10z M13 97h1v1H13z M114 97h1v1H114z M30 114h1v1H30z M97 114h1v1H97z M92 117h1v1H92z M48 122h1v1H48z M79 122h1v1H79z M62 124h2v1H62z M65 124h1v1H65z"/>
<path fill="#000000" fill-opacity="0.690" d="M61 3h1v1H61z M66 3h1v1H66z M52 4h1v1H52z M75 4h1v1H75z M37 9h1v1H37z M90 9h1v1H90z M27 15h1v1H27z M112 27h1v1H112z M9 37h1v1H9z M118 37h1v1H118z M95 49h1v1H95z M94 51h1v1H94z M4 52h1v1H4z M123 52h1v1H123z M39 57h1v1H39z M34 59h1v1H34z M3 61h1v1H3z M124 61h1v1H124z M32 62h1v1H32z M124 65h1v1H124z M3 66h1v1H3z M124 66h1v1H124z M4 75h1v1H4z M123 75h1v1H123z M9 90h1v1H9z M118 90h1v1H118z M117 92h1v1H117z M15 100h1v1H15z M35 117h1v1H35z M90 118h1v1H90z M52 123h1v1H52z M75 123h1v1H75z M61 124h1v1H61z M66 124h1v1H66z"/>
<path fill="#000000" fill-opacity="0.376" d="M31 12h1v1H31z M28 14h1v1H28z M99 14h1v1H99z M23 18h1v1H23z M104 18h1v1H104z M18 23h1v1H18z M109 23h1v1H109z M14 28h1v1H14z M113 28h1v1H113z M115 31h1v1H115z M86 40h1v1H86z M90 40h1v1H90z M94 43h1v1H94z M95 46h1v1H95z M80 65h1v1H80z M79 66h1v1H79z M78 67h1v1H78z M77 68h1v1H77z M76 69h1v1H76z M75 70h1v1H75z M124 70h1v1H124z M59 86h1v1H59z M53 87h1v1H53z M115 96h1v1H115z M14 99h1v1H14z M113 99h1v1H113z M18 104h1v1H18z M109 104h1v1H109z M23 109h1v1H23z M104 109h1v1H104z M28 113h1v1H28z M99 113h1v1H99z M57 124h1v1H57z"/>
<path fill="#000000" fill-opacity="0.878" d="M53 4h1v1H53z M74 4h1v1H74z M45 6h1v1H45z M82 6h1v1H82z M42 7h1v1H42z M111 26h1v1H111z M7 42h1v1H7z M82 42h1v1H82z M6 45h1v1H6z M121 45h1v1H121z M4 53h1v1H4z M35 58h1v1H35z M33 69h1v1H33z M4 74h1v1H4z M40 76h1v1H40z M41 77h1v1H41z M42 78h1v1H42z M43 79h1v1H43z M44 80h1v1H44z M45 81h1v1H45z M6 82h1v1H6z M46 82h1v1H46z M121 82h1v1H121z M47 83h1v1H47z M48 84h1v1H48z M7 85h1v1H7z M49 85h1v1H49z M32 115h1v1H32z M45 121h1v1H45z M82 121h1v1H82z M53 123h1v1H53z M74 123h1v1H74z"/>
<path fill="#000000" fill-opacity="0.627" d="M59 3h2v1H59z M67 3h2v1H67z M39 8h1v1H39z M88 8h1v1H88z M33 11h1v1H33z M94 11h1v1H94z M100 15h1v1H100z M15 27h1v1H15z M11 33h1v1H11z M8 39h1v1H8z M119 39h1v1H119z M3 59h1v1H3z M44 59h1v1H44z M3 60h1v1H3z M45 60h1v1H45z M124 60h1v1H124z M3 67h1v1H3z M124 67h1v1H124z M8 88h1v1H8z M11 94h1v1H11z M116 94h1v1H116z M112 100h1v1H112z M27 112h1v1H27z M100 112h1v1H100z M94 116h1v1H94z M37 118h1v1H37z M88 119h1v1H88z M59 124h2v1H59z M67 124h1v1H67z"/>
<path fill="#000000" fill-opacity="0.439" d="M57 3h1v1H57z M70 3h1v1H70z M76 4h1v1H76z M96 12h1v1H96z M22 19h1v1H22z M105 19h1v1H105z M19 22h1v1H19z M12 31h1v1H12z M95 48h1v1H95z M3 57h1v1H3z M124 57h1v1H124z M85 60h1v1H85z M84 61h1v1H84z M83 62h1v1H83z M32 63h1v1H32z M82 63h1v1H82z M81 64h1v1H81z M3 70h1v1H3z M123 76h1v1H123z M57 87h1v1H57z M12 96h1v1H12z M19 105h1v1H19z M108 105h1v1H108z M22 108h1v1H22z M105 108h1v1H105z M96 115h1v1H96z M51 123h1v1H51z M70 124h1v1H70z"/>
<path fill="#000000" fill-opacity="0.314" d="M56 3h1v1H56z M84 41h1v1H84z M92 41h1v1H92z M95 47h1v1H95z M3 56h1v1H3z M124 56h1v1H124z M36 58h1v1H36z M42 58h1v1H42z M64 61h1v1H64z M62 63h1v1H62z M32 64h1v1H32z M61 64h1v1H61z M32 65h1v1H32z M60 65h1v1H60z M59 66h1v1H59z M58 67h1v1H58z M57 68h1v1H57z M56 69h1v1H56z M3 71h1v1H3z M74 71h1v1H74z M73 72h1v1H73z M72 73h1v1H72z M71 74h1v1H71z M70 75h1v1H70z M31 115h1v1H31z M71 124h1v1H71z"/>
<path fill="#000000" fill-opacity="0.816" d="M63 3h1v1H63z M85 7h1v1H85z M26 16h1v1H26z M101 16h1v1H101z M16 26h1v1H16z M120 42h1v1H120z M95 44h1v1H95z M123 53h1v1H123z M43 58h1v1H43z M3 64h1v1H3z M34 70h1v1H34z M35 71h1v1H35z M36 72h1v1H36z M37 73h1v1H37z M38 74h1v1H38z M123 74h1v1H123z M39 75h1v1H39z M120 85h1v1H120z M58 87h1v1H58z M16 101h1v1H16z M111 101h1v1H111z M26 111h1v1H26z M101 111h1v1H101z M42 120h1v1H42z M85 120h1v1H85z M64 124h1v1H64z"/>
<path fill="#000000" fill-opacity="0.565" d="M69 3h1v1H69z M83 6h1v1H83z M116 33h1v1H116z M6 44h1v1H6z M121 44h1v1H121z M93 52h1v1H93z M3 58h1v1H3z M124 59h1v1H124z M46 61h1v1H46z M47 62h1v1H47z M48 63h1v1H48z M49 64h1v1H49z M51 66h1v1H51z M3 68h1v1H3z M124 68h1v1H124z M3 69h1v1H3z M6 83h1v1H6z M119 88h1v1H119z M33 116h1v1H33z M39 119h1v1H39z M83 121h1v1H83z M68 124h1v1H68z"/>
</svg>
