<svg xmlns="http://www.w3.org/2000/svg" viewBox="0 0 128 128" width="128" height="128" role="img">
<path fill="#000000" d="M14 0h30v1H14z M84 0h30v1H84z M9 1h38v1H9z M80 1h39v1H80z M7 2h41v1H7z M79 2h42v1H79z M6 3h43v1H6z M78 3h44v1H78z M5 4h45v1H5z M78 4h45v1H78z M4 5h46v1H4z M77 5h47v1H77z M3 6h47v1H3z M77 6h48v1H77z M2 7h48v1H2z M77 7h49v1H77z M2 8h48v1H2z M77 8h49v1H77z M1 9h49v1H1z M78 9h49v1H78z M1 10h48v1H1z M78 10h49v1H78z M1 11h48v1H1z M79 11h48v1H79z M1 12h46v1H1z M80 12h47v1H80z M1 13h44v1H1z M82 13h45v1H82z M0 14h14v1H0z M114 14h14v1H114z M0 15h14v1H0z M114 15h14v1H114z M0 16h14v1H0z M114 16h14v1H114z M0 17h14v1H0z M114 17h14v1H114z M0 18h14v1H0z M114 18h14v1H114z M0 19h14v1H0z M114 19h14v1H114z M0 20h14v1H0z M114 20h14v1H114z M0 21h14v1H0z M114 21h14v1H114z M0 22h14v1H0z M114 22h14v1H114z M0 23h14v1H0z M114 23h14v1H114z M0 24h14v1H0z M114 24h14v1H114z M0 25h14v1H0z M114 25h14v1H114z M0 26h14v1H0z M114 26h14v1H114z M0 27h14v1H0z M114 27h14v1H114z M0 28h14v1H0z M114 28h14v1H114z M0 29h14v1H0z M114 29h14v1H114z M0 30h14v1H0z M114 30h14v1H114z M0 31h14v1H0z M114 31h14v1H114z M0 32h14v1H0z M114 32h14v1H114z M0 33h14v1H0z M114 33h14v1H114z M0 34h14v1H0z M114 34h14v1H114z M0 35h14v1H0z M43 35h42v1H43z M114 35h14v1H114z M0 36h14v1H0z M41 36h46v1H41z M114 36h14v1H114z M0 37h14v1H0z M39 37h50v1H39z M114 37h14v1H114z M0 38h14v1H0z M38 38h52v1H38z M114 38h14v1H114z M0 39h14v1H0z M37 39h54v1H37z M114 39h14v1H114z M0 40h14v1H0z M37 40h54v1H37z M114 40h14v1H114z M0 41h14v1H0z M36 41h56v1H36z M114 41h14v1H114z M0 42h14v1H0z M36 42h56v1H36z M114 42h14v1H114z M0 43h14v1H0z M35 43h58v1H35z M114 43h14v1H114z M0 44h14v1H0z M35 44h58v1H35z M114 44h14v1H114z M0 45h14v1H0z M35 45h58v1H35z M114 45h14v1H114z M0 46h14v1H0z M35 46h58v1H35z M114 46h14v1H114z M0 47h14v1H0z M35 47h58v1H35z M114 47h13v1H114z M1 48h13v1H1z M35 48h58v1H35z M114 48h13v1H114z M1 49h12v1H1z M35 49h58v1H35z M115 49h12v1H115z M1 50h12v1H1z M35 50h58v1H35z M115 50h11v1H115z M2 51h10v1H2z M35 51h58v1H35z M116 51h10v1H116z M3 52h8v1H3z M35 52h58v1H35z M117 52h8v1H117z M5 53h5v1H5z M35 53h58v1H35z M119 53h4v1H119z M35 54h58v1H35z M35 55h58v1H35z M35 56h58v1H35z M35 57h58v1H35z M35 58h58v1H35z M35 59h58v1H35z M35 60h58v1H35z M35 61h58v1H35z M35 62h58v1H35z M35 63h58v1H35z M35 64h58v1H35z M35 65h58v1H35z M35 66h58v1H35z M35 67h58v1H35z M35 68h58v1H35z M35 69h58v1H35z M35 70h58v1H35z M35 71h58v1H35z M35 72h58v1H35z M35 73h58v1H35z M35 74h58v1H35z M35 75h58v1H35z M35 76h58v1H35z M35 77h58v1H35z M35 78h58v1H35z M35 79h58v1H35z M35 80h58v1H35z M120 80h2v1H120z M4 81h6v1H4z M35 81h58v1H35z M117 81h7v1H117z M3 82h9v1H3z M35 82h58v1H35z M116 82h10v1H116z M2 83h11v1H2z M35 83h58v1H35z M115 83h11v1H115z M1 84h12v1H1z M35 84h57v1H35z M115 84h12v1H115z M1 85h12v1H1z M36 85h56v1H36z M114 85h13v1H114z M1 86h13v1H1z M36 86h56v1H36z M114 86h13v1H114z M0 87h14v1H0z M37 87h54v1H37z M114 87h14v1H114z M0 88h14v1H0z M37 88h54v1H37z M114 88h14v1H114z M0 89h14v1H0z M38 89h52v1H38z M114 89h14v1H114z M0 90h14v1H0z M39 90h50v1H39z M114 90h14v1H114z M0 91h14v1H0z M41 91h46v1H41z M114 91h14v1H114z M0 92h14v1H0z M43 92h42v1H43z M114 92h14v1H114z M0 93h14v1H0z M114 93h14v1H114z M0 94h14v1H0z M114 94h14v1H114z M0 95h14v1H0z M114 95h14v1H114z M0 96h14v1H0z M114 96h14v1H114z M0 97h14v1H0z M114 97h14v1H114z M0 98h14v1H0z M114 98h14v1H114z M0 99h14v1H0z M114 99h14v1H114z M0 100h14v1H0z M114 100h14v1H114z M0 101h14v1H0z M114 101h14v1H114z M0 102h14v1H0z M114 102h14v1H114z M0 103h14v1H0z M114 103h14v1H114z M0 104h14v1H0z M114 104h14v1H114z M0 105h14v1H0z M114 105h14v1H114z M0 106h14v1H0z M114 106h14v1H114z M0 107h14v1H0z M114 107h14v1H114z M0 108h14v1H0z M114 108h14v1H114z M0 109h14v1H0z M114 109h14v1H114z M0 110h14v1H0z M114 110h14v1H114z M0 111h14v1H0z M114 111h14v1H114z M0 112h14v1H0z M114 112h14v1H114z M0 113h14v1H0z M114 113h14v1H114z M1 114h45v1H1z M82 114h45v1H82z M1 115h47v1H1z M80 115h47v1H80z M1 116h48v1H1z M79 116h48v1H79z M1 117h49v1H1z M78 117h49v1H78z M1 118h49v1H1z M78 118h49v1H78z M2 119h49v1H2z M77 119h49v1H77z M2 120h49v1H2z M77 120h49v1H77z M3 121h48v1H3z M77 121h48v1H77z M4 122h47v1H4z M77 122h47v1H77z M5 123h45v1H5z M78 123h45v1H78z M6 124h44v1H6z M78 124h44v1H78z M7 125h42v1H7z M79 125h42v1H79z M9 126h39v1H9z M81 126h38v1H81z M14 127h31v1H14z M84 127h30v1H84z"/>
<path fill="#000000" fill-opacity="0.314" d="M50 9h1v1H50z M48 12h1v1H48z M15 14h29v1H15z M14 15h1v1H14z M113 15h1v1H113z M14 16h1v1H14z M113 16h1v1H113z M14 17h1v1H14z M113 17h1v1H113z M14 18h1v1H14z M113 18h1v1H113z M14 19h1v1H14z M113 19h1v1H113z M14 20h1v1H14z M113 20h1v1H113z M14 21h1v1H14z M113 21h1v1H113z M14 22h1v1H14z M113 22h1v1H113z M14 23h1v1H14z M113 23h1v1H113z M14 24h1v1H14z M113 24h1v1H113z M14 25h1v1H14z M113 25h1v1H113z M14 26h1v1H14z M113 26h1v1H113z M14 27h1v1H14z M113 27h1v1H113z M14 28h1v1H14z M113 28h1v1H113z M14 29h1v1H14z M113 29h1v1H113z M14 30h1v1H14z M113 30h1v1H113z M14 31h1v1H14z M113 31h1v1H113z M14 32h1v1H14z M113 32h1v1H113z M14 33h1v1H14z M113 33h1v1H113z M14 34h1v1H14z M113 34h1v1H113z M14 35h1v1H14z M113 35h1v1H113z M14 36h1v1H14z M39 36h1v1H39z M88 36h1v1H88z M113 36h1v1H113z M14 37h1v1H14z M113 37h1v1H113z M14 38h1v1H14z M113 38h1v1H113z M14 39h1v1H14z M36 39h1v1H36z M91 39h1v1H91z M113 39h1v1H113z M14 40h1v1H14z M113 40h1v1H113z M14 41h1v1H14z M113 41h1v1H113z M14 42h1v1H14z M113 42h1v1H113z M14 43h1v1H14z M113 43h1v1H113z M14 44h1v1H14z M113 44h1v1H113z M14 45h1v1H14z M113 45h1v1H113z M14 46h1v1H14z M113 46h1v1H113z M5 54h1v1H5z M4 80h1v1H4z M11 81h1v1H11z M125 81h1v1H125z M126 82h1v1H126z M114 83h1v1H114z M113 87h1v1H113z M36 88h1v1H36z M91 88h1v1H91z M113 88h1v1H113z M113 89h1v1H113z M113 90h1v1H113z M39 91h1v1H39z M88 91h1v1H88z M113 91h1v1H113z M113 92h1v1H113z M113 93h1v1H113z M113 94h1v1H113z M113 95h1v1H113z M113 96h1v1H113z M113 97h1v1H113z M113 98h1v1H113z M113 99h1v1H113z M113 100h1v1H113z M113 101h1v1H113z M113 102h1v1H113z M113 103h1v1H113z M113 104h1v1H113z M113 105h1v1H113z M113 106h1v1H113z M113 107h1v1H113z M113 108h1v1H113z M113 109h1v1H113z M113 110h1v1H113z M113 111h1v1H113z M113 112h1v1H113z M51 120h1v1H51z M51 121h1v1H51z M50 124h1v1H50z"/>
<path fill="#000000" fill-opacity="0.188" d="M4 3h1v1H4z M77 3h1v1H77z M123 3h1v1H123z M3 4h1v1H3z M50 4h1v1H50z M124 4h1v1H124z M76 6h1v1H76z M76 7h1v1H76z M44 14h1v1H44z M45 34h38v1H45z M34 45h1v1H34z M93 45h1v1H93z M34 46h1v1H34z M93 46h1v1H93z M34 47h1v1H34z M93 47h1v1H93z M14 48h1v1H14z M34 48h1v1H34z M93 48h1v1H93z M34 49h1v1H34z M93 49h1v1H93z M34 50h1v1H34z M93 50h1v1H93z M34 51h1v1H34z M93 51h1v1H93z M12 52h1v1H12z M34 52h1v1H34z M93 52h1v1H93z M34 53h1v1H34z M93 53h1v1H93z M34 54h1v1H34z M93 54h1v1H93z M121 54h1v1H121z M34 55h1v1H34z M93 55h1v1H93z M34 56h1v1H34z M93 56h1v1H93z M34 57h1v1H34z M93 57h1v1H93z M34 58h1v1H34z M93 58h1v1H93z M34 59h1v1H34z M93 59h1v1H93z M34 60h1v1H34z M93 60h1v1H93z M34 61h1v1H34z M93 61h1v1H93z M34 62h1v1H34z M93 62h1v1H93z M34 63h1v1H34z M93 63h1v1H93z M34 64h1v1H34z M93 64h1v1H93z M34 65h1v1H34z M93 65h1v1H93z M34 66h1v1H34z M93 66h1v1H93z M34 67h1v1H34z M93 67h1v1H93z M34 68h1v1H34z M93 68h1v1H93z M34 69h1v1H34z M93 69h1v1H93z M34 70h1v1H34z M93 70h1v1H93z M34 71h1v1H34z M93 71h1v1H93z M34 72h1v1H34z M93 72h1v1H93z M34 73h1v1H34z M93 73h1v1H93z M34 74h1v1H34z M93 74h1v1H93z M34 75h1v1H34z M93 75h1v1H93z M34 76h1v1H34z M93 76h1v1H93z M34 77h1v1H34z M93 77h1v1H93z M34 78h1v1H34z M93 78h1v1H93z M34 79h1v1H34z M93 79h1v1H93z M34 80h1v1H34z M93 80h1v1H93z M117 80h1v1H117z M2 81h1v1H2z M34 81h1v1H34z M93 81h1v1H93z M1 82h1v1H1z M34 82h1v1H34z M93 82h1v1H93z M13 83h1v1H13z M14 86h1v1H14z M45 93h38v1H45z M51 119h1v1H51z M76 120h1v1H76z M76 121h1v1H76z M3 123h1v1H3z M124 123h1v1H124z M4 124h1v1H4z M77 124h1v1H77z M123 124h1v1H123z M47 127h1v1H47z"/>
<path fill="#000000" fill-opacity="0.251" d="M7 1h1v1H7z M120 1h1v1H120z M1 7h1v1H1z M126 7h1v1H126z M49 11h1v1H49z M83 14h30v1H83z M14 47h1v1H14z M113 47h1v1H113z M0 50h1v1H0z M124 53h1v1H124z M120 54h1v1H120z M113 86h1v1H113z M14 87h1v1H14z M14 88h1v1H14z M14 89h1v1H14z M14 90h1v1H14z M14 91h1v1H14z M14 92h1v1H14z M14 93h1v1H14z M14 94h1v1H14z M14 95h1v1H14z M14 96h1v1H14z M14 97h1v1H14z M14 98h1v1H14z M14 99h1v1H14z M14 100h1v1H14z M14 101h1v1H14z M14 102h1v1H14z M14 103h1v1H14z M14 104h1v1H14z M14 105h1v1H14z M14 106h1v1H14z M14 107h1v1H14z M14 108h1v1H14z M14 109h1v1H14z M14 110h1v1H14z M14 111h1v1H14z M14 112h1v1H14z M15 113h30v1H15z M83 113h30v1H83z M1 120h1v1H1z M126 120h1v1H126z M7 126h1v1H7z M120 126h1v1H120z"/>
<path fill="#000000" fill-opacity="0.690" d="M11 0h1v1H11z M45 0h1v1H45z M116 0h1v1H116z M6 2h1v1H6z M121 2h1v1H121z M49 3h1v1H49z M77 4h1v1H77z M2 6h1v1H2z M50 6h1v1H50z M125 6h1v1H125z M50 7h1v1H50z M78 11h1v1H78z M127 11h1v1H127z M79 12h1v1H79z M92 42h1v1H92z M1 51h1v1H1z M10 53h1v1H10z M8 80h1v1H8z M13 84h1v1H13z M35 85h1v1H35z M92 85h1v1H92z M42 92h1v1H42z M85 92h1v1H85z M79 115h1v1H79z M0 116h1v1H0z M78 116h1v1H78z M127 116h1v1H127z M2 121h1v1H2z M125 121h1v1H125z M77 123h1v1H77z M6 125h1v1H6z M121 125h1v1H121z M11 127h1v1H11z M116 127h1v1H116z"/>
<path fill="#000000" fill-opacity="0.125" d="M9 0h1v1H9z M80 0h1v1H80z M118 0h1v1H118z M48 1h1v1H48z M49 2h1v1H49z M0 9h1v1H0z M127 9h1v1H127z M47 13h1v1H47z M82 14h1v1H82z M44 34h1v1H44z M83 34h1v1H83z M34 44h1v1H34z M93 44h1v1H93z M113 48h1v1H113z M127 50h1v1H127z M11 53h1v1H11z M9 54h1v1H9z M119 54h1v1H119z M34 83h1v1H34z M113 85h1v1H113z M44 93h1v1H44z M83 93h1v1H83z M45 113h1v1H45z M82 113h1v1H82z M49 115h1v1H49z M0 118h1v1H0z M127 118h1v1H127z M51 122h1v1H51z M9 127h1v1H9z M80 127h1v1H80z M118 127h1v1H118z"/>
<path fill="#000000" fill-opacity="0.941" d="M83 0h1v1H83z M114 0h1v1H114z M4 4h1v1H4z M123 4h1v1H123z M47 12h1v1H47z M0 13h1v1H0z M45 13h1v1H45z M127 47h1v1H127z M13 49h1v1H13z M126 50h1v1H126z M11 52h1v1H11z M4 53h1v1H4z M10 81h1v1H10z M124 81h1v1H124z M2 82h1v1H2z M126 83h1v1H126z M92 84h1v1H92z M13 85h1v1H13z M0 86h1v1H0z M127 86h1v1H127z M0 114h1v1H0z M127 114h1v1H127z M50 118h1v1H50z M4 123h1v1H4z M123 123h1v1H123z M80 126h1v1H80z M13 127h1v1H13z M83 127h1v1H83z M114 127h1v1H114z"/>
<path fill="#000000" fill-opacity="0.878" d="M13 0h1v1H13z M44 0h1v1H44z M48 2h1v1H48z M5 3h1v1H5z M122 3h1v1H122z M3 5h1v1H3z M124 5h1v1H124z M49 10h1v1H49z M127 13h1v1H127z M40 36h1v1H40z M87 36h1v1H87z M36 40h1v1H36z M91 40h1v1H91z M0 48h1v1H0z M114 49h1v1H114z M12 51h1v1H12z M119 80h1v1H119z M1 83h1v1H1z M36 87h1v1H36z M91 87h1v1H91z M40 91h1v1H40z M87 91h1v1H87z M46 114h1v1H46z M3 122h1v1H3z M124 122h1v1H124z M5 124h1v1H5z M122 124h1v1H122z M45 127h1v1H45z"/>
<path fill="#000000" fill-opacity="0.816" d="M12 0h1v1H12z M82 0h1v1H82z M115 0h1v1H115z M47 1h1v1H47z M1 8h1v1H1z M77 9h1v1H77z M0 12h1v1H0z M127 12h1v1H127z M81 13h1v1H81z M127 48h1v1H127z M118 53h1v1H118z M6 80h2v1H6z M122 80h1v1H122z M3 81h1v1H3z M114 84h1v1H114z M127 85h1v1H127z M81 114h1v1H81z M0 115h1v1H0z M48 115h1v1H48z M127 115h1v1H127z M49 116h1v1H49z M77 118h1v1H77z M50 123h1v1H50z M12 127h1v1H12z M82 127h1v1H82z M115 127h1v1H115z"/>
<path fill="#000000" fill-opacity="0.502" d="M78 2h1v1H78z M50 5h1v1H50z M14 14h1v1H14z M113 14h1v1H113z M38 37h1v1H38z M89 37h1v1H89z M37 38h1v1H37z M90 38h1v1H90z M127 49h1v1H127z M125 52h1v1H125z M3 53h1v1H3z M6 54h2v1H6z M123 80h1v1H123z M127 84h1v1H127z M37 89h1v1H37z M90 89h1v1H90z M38 90h1v1H38z M89 90h1v1H89z M113 113h1v1H113z M50 117h1v1H50z M78 125h1v1H78z"/>
<path fill="#000000" fill-opacity="0.439" d="M10 0h1v1H10z M117 0h1v1H117z M79 1h1v1H79z M0 10h1v1H0z M127 10h1v1H127z M114 50h1v1H114z M126 51h1v1H126z M9 80h1v1H9z M0 84h1v1H0z M14 113h1v1H14z M47 114h1v1H47z M0 117h1v1H0z M127 117h1v1H127z M79 126h1v1H79z M10 127h1v1H10z M117 127h1v1H117z"/>
<path fill="#000000" fill-opacity="0.376" d="M46 0h1v1H46z M77 10h1v1H77z M80 13h1v1H80z M41 35h1v1H41z M86 35h1v1H86z M35 41h1v1H35z M92 41h1v1H92z M117 53h1v1H117z M8 54h1v1H8z M12 82h1v1H12z M35 86h1v1H35z M92 86h1v1H92z M41 92h1v1H41z M86 92h1v1H86z M80 114h1v1H80z M77 117h1v1H77z"/>
<path fill="#000000" fill-opacity="0.753" d="M8 1h1v1H8z M119 1h1v1H119z M126 8h1v1H126z M0 11h1v1H0z M42 35h1v1H42z M85 35h1v1H85z M35 42h1v1H35z M115 51h1v1H115z M2 52h1v1H2z M116 52h1v1H116z M123 53h1v1H123z M0 85h1v1H0z M1 119h1v1H1z M126 119h1v1H126z M8 126h1v1H8z M119 126h1v1H119z"/>
<path fill="#000000" fill-opacity="0.565" d="M81 0h1v1H81z M50 8h1v1H50z M13 50h1v1H13z M116 81h1v1H116z M115 82h1v1H115z M48 126h1v1H48z M81 127h1v1H81z"/>
<path fill="#000000" fill-opacity="0.627" d="M46 13h1v1H46z M0 49h1v1H0z M5 80h1v1H5z M118 80h1v1H118z M49 125h1v1H49z M46 127h1v1H46z"/>
</svg>
