<svg xmlns="http://www.w3.org/2000/svg" viewBox="0 0 128 128" width="128" height="128" role="img">
<path fill="#000000" d="M38 0h52v1H38z M30 1h68v1H30z M27 2h74v1H27z M24 3h80v1H24z M22 4h84v1H22z M20 5h88v1H20z M18 6h92v1H18z M17 7h94v1H17z M15 8h98v1H15z M14 9h100v1H14z M13 10h102v1H13z M12 11h104v1H12z M11 12h106v1H11z M10 13h108v1H10z M9 14h110v1H9z M8 15h112v1H8z M8 16h112v1H8z M7 17h114v1H7z M6 18h116v1H6z M6 19h116v1H6z M5 20h118v1H5z M5 21h118v1H5z M4 22h120v1H4z M4 23h120v1H4z M3 24h122v1H3z M3 25h122v1H3z M3 26h122v1H3z M2 27h124v1H2z M2 28h124v1H2z M2 29h124v1H2z M1 30h126v1H1z M1 31h126v1H1z M1 32h126v1H1z M1 33h126v1H1z M1 34h126v1H1z M1 35h126v1H1z M1 36h126v1H1z M1 37h126v1H1z M1 38h126v1H1z M0 39h128v1H0z M0 40h128v1H0z M0 41h128v1H0z M0 42h128v1H0z M0 43h128v1H0z M0 44h35v1H0z M37 44h26v1H37z M65 44h26v1H65z M93 44h35v1H93z M0 45h32v1H0z M41 45h19v1H41z M68 45h19v1H68z M96 45h32v1H96z M0 46h30v1H0z M42 46h16v1H42z M70 46h16v1H70z M98 46h30v1H98z M0 47h29v1H0z M43 47h14v1H43z M71 47h14v1H71z M99 47h29v1H99z M0 48h29v1H0z M44 48h13v1H44z M71 48h13v1H71z M99 48h29v1H99z M0 49h28v1H0z M44 49h12v1H44z M72 49h12v1H72z M100 49h28v1H100z M0 50h28v1H0z M45 50h11v1H45z M72 50h11v1H72z M100 50h28v1H100z M0 51h28v1H0z M45 51h10v1H45z M73 51h10v1H73z M100 51h28v1H100z M0 52h27v1H0z M45 52h10v1H45z M73 52h10v1H73z M101 52h27v1H101z M0 53h27v1H0z M45 53h10v1H45z M73 53h10v1H73z M101 53h27v1H101z M0 54h27v1H0z M45 54h10v1H45z M73 54h10v1H73z M101 54h27v1H101z M0 55h28v1H0z M45 55h10v1H45z M73 55h10v1H73z M100 55h28v1H100z M0 56h28v1H0z M45 56h11v1H45z M72 56h11v1H72z M100 56h28v1H100z M0 57h28v1H0z M44 57h12v1H44z M72 57h12v1H72z M100 57h28v1H100z M0 58h29v1H0z M44 58h13v1H44z M71 58h13v1H71z M99 58h29v1H99z M0 59h30v1H0z M43 59h14v1H43z M71 59h14v1H71z M98 59h30v1H98z M0 60h31v1H0z M42 60h17v1H42z M69 60h17v1H69z M97 60h31v1H97z M0 61h32v1H0z M40 61h20v1H40z M68 61h20v1H68z M96 61h32v1H96z M0 62h128v1H0z M0 63h128v1H0z M0 64h128v1H0z M0 65h128v1H0z M0 66h128v1H0z M0 67h128v1H0z M1 68h126v1H1z M1 69h126v1H1z M1 70h126v1H1z M1 71h126v1H1z M1 72h126v1H1z M1 73h126v1H1z M1 74h126v1H1z M1 75h126v1H1z M1 76h126v1H1z M2 77h124v1H2z M2 78h124v1H2z M2 79h124v1H2z M3 80h122v1H3z M3 81h122v1H3z M3 82h122v1H3z M4 83h120v1H4z M4 84h120v1H4z M5 85h118v1H5z M5 86h118v1H5z M6 87h116v1H6z M6 88h115v1H6z M7 89h114v1H7z M8 90h112v1H8z M9 91h110v1H9z M10 92h108v1H10z M10 93h108v1H10z M11 94h106v1H11z M12 95h104v1H12z M13 96h102v1H13z M15 97h98v1H15z M16 98h96v1H16z M17 99h94v1H17z M19 100h90v1H19z M21 101h86v1H21z M22 102h84v1H22z M25 103h78v1H25z M28 104h72v1H28z M32 105h64v1H32z M37 106h43v1H37z M37 107h37v1H37z M37 108h33v1H37z M37 109h30v1H37z M37 110h27v1H37z M37 111h25v1H37z M37 112h23v1H37z M37 113h21v1H37z M37 114h19v1H37z M37 115h18v1H37z M37 116h16v1H37z M37 117h15v1H37z M37 118h14v1H37z M37 119h12v1H37z M37 120h11v1H37z M37 121h10v1H37z M37 122h9v1H37z M37 123h8v1H37z M37 124h7v1H37z M37 125h6v1H37z M38 126h4v1H38z"/>
<path fill="#000000" fill-opacity="0.941" d="M23 3h1v1H23z M104 3h1v1H104z M16 7h1v1H16z M111 7h1v1H111z M7 16h1v1H7z M120 16h1v1H120z M3 23h1v1H3z M124 23h1v1H124z M0 38h1v1H0z M127 38h1v1H127z M35 44h1v1H35z M92 44h1v1H92z M40 45h1v1H40z M87 45h1v1H87z M30 46h1v1H30z M97 46h1v1H97z M29 47h1v1H29z M98 47h1v1H98z M27 52h1v1H27z M100 52h1v1H100z M27 54h1v1H27z M100 54h1v1H100z M28 57h1v1H28z M99 57h1v1H99z M43 58h1v1H43z M84 58h1v1H84z M57 59h1v1H57z M70 59h1v1H70z M41 60h1v1H41z M86 60h1v1H86z M32 61h1v1H32z M95 61h1v1H95z M0 68h1v1H0z M127 68h1v1H127z M121 88h1v1H121z M9 92h1v1H9z M118 92h1v1H118z M14 97h1v1H14z M113 97h1v1H113z M20 101h1v1H20z M107 101h1v1H107z M103 103h1v1H103z M27 104h1v1H27z M96 105h1v1H96z M56 114h1v1H56z M53 116h1v1H53z M49 119h1v1H49z M48 120h1v1H48z M39 127h1v1H39z"/>
<path fill="#000000" fill-opacity="0.753" d="M17 6h1v1H17z M110 6h1v1H110z M12 10h1v1H12z M115 10h1v1H115z M10 12h1v1H10z M117 12h1v1H117z M0 36h1v1H0z M127 36h1v1H127z M32 45h1v1H32z M95 45h1v1H95z M41 46h1v1H41z M86 46h1v1H86z M28 49h1v1H28z M99 49h1v1H99z M44 50h1v1H44z M83 50h1v1H83z M0 70h1v1H0z M127 70h1v1H127z M3 83h1v1H3z M120 90h1v1H120z M97 105h1v1H97z M83 106h1v1H83z M36 107h1v1H36z M36 108h1v1H36z M36 109h1v1H36z M67 109h1v1H67z M36 110h1v1H36z M36 111h1v1H36z M36 112h1v1H36z M60 112h1v1H60z M36 113h1v1H36z M36 114h1v1H36z M36 115h1v1H36z M36 116h1v1H36z M36 117h1v1H36z M52 117h1v1H52z M36 118h1v1H36z M36 119h1v1H36z M36 120h1v1H36z M36 121h1v1H36z M36 122h1v1H36z M36 123h1v1H36z"/>
<path fill="#000000" fill-opacity="0.816" d="M36 0h1v1H36z M91 0h1v1H91z M19 5h1v1H19z M108 5h1v1H108z M5 19h1v1H5z M122 19h1v1H122z M1 29h1v1H1z M126 29h1v1H126z M36 44h1v1H36z M91 44h1v1H91z M57 47h1v1H57z M70 47h1v1H70z M43 48h1v1H43z M84 48h1v1H84z M55 51h1v1H55z M72 51h1v1H72z M27 53h1v1H27z M100 53h1v1H100z M42 59h1v1H42z M85 59h1v1H85z M31 60h1v1H31z M96 60h1v1H96z M39 61h1v1H39z M88 61h1v1H88z M127 69h1v1H127z M2 80h1v1H2z M125 80h1v1H125z M124 83h1v1H124z M112 98h1v1H112z M18 100h1v1H18z M82 106h1v1H82z M74 107h1v1H74z M70 108h1v1H70z M62 111h1v1H62z M58 113h1v1H58z M46 122h1v1H46z M45 123h1v1H45z M44 124h1v1H44z M43 125h1v1H43z M42 126h1v1H42z"/>
<path fill="#000000" fill-opacity="0.878" d="M37 0h1v1H37z M90 0h1v1H90z M29 1h1v1H29z M98 1h1v1H98z M26 2h1v1H26z M101 2h1v1H101z M21 4h1v1H21z M106 4h1v1H106z M11 11h1v1H11z M116 11h1v1H116z M4 21h1v1H4z M123 21h1v1H123z M2 26h1v1H2z M125 26h1v1H125z M0 37h1v1H0z M127 37h1v1H127z M63 44h2v1H63z M58 46h1v1H58z M69 46h1v1H69z M55 55h1v1H55z M72 55h1v1H72z M44 56h1v1H44z M83 56h1v1H83z M60 61h1v1H60z M67 61h1v1H67z M0 69h1v1H0z M8 91h1v1H8z M119 91h1v1H119z M15 98h1v1H15z M109 100h1v1H109z M24 103h1v1H24z M100 104h1v1H100z M31 105h1v1H31z M36 106h1v1H36z M80 106h2v1H80z M64 110h1v1H64z M47 121h1v1H47z M37 126h1v1H37z M40 127h1v1H40z"/>
<path fill="#000000" fill-opacity="0.125" d="M30 0h1v1H30z M97 0h1v1H97z M16 6h1v1H16z M111 6h1v1H111z M6 16h1v1H6z M121 16h1v1H121z M0 30h1v1H0z M127 30h1v1H127z M34 45h1v1H34z M93 45h1v1H93z M40 46h1v1H40z M87 46h1v1H87z M28 51h1v1H28z M99 51h1v1H99z M56 56h1v1H56z M71 56h1v1H71z M42 58h1v1H42z M85 58h1v1H85z M41 59h1v1H41z M86 59h1v1H86z M1 79h1v1H1z M126 79h1v1H126z M5 88h1v1H5z M122 88h1v1H122z M119 92h1v1H119z M14 98h1v1H14z M113 98h1v1H113z M20 102h1v1H20z M22 103h1v1H22z M105 103h1v1H105z M94 106h1v1H94z M66 110h1v1H66z M53 117h1v1H53z M47 122h1v1H47z M37 127h1v1H37z"/>
<path fill="#000000" fill-opacity="0.251" d="M27 1h1v1H27z M100 1h1v1H100z M18 5h1v1H18z M109 5h1v1H109z M15 7h1v1H15z M112 7h1v1H112z M7 15h1v1H7z M120 15h1v1H120z M5 18h1v1H5z M122 18h1v1H122z M0 31h1v1H0z M127 31h1v1H127z M38 45h1v1H38z M89 45h1v1H89z M59 46h1v1H59z M68 46h1v1H68z M43 49h1v1H43z M84 49h1v1H84z M44 53h1v1H44z M83 53h1v1H83z M63 61h2v1H63z M0 75h1v1H0z M127 75h1v1H127z M3 84h1v1H3z M124 84h1v1H124z M118 93h1v1H118z M13 97h1v1H13z M114 97h1v1H114z M17 100h1v1H17z M25 104h1v1H25z M102 104h1v1H102z M93 106h1v1H93z M61 112h1v1H61z M59 113h1v1H59z M49 120h1v1H49z"/>
<path fill="#000000" fill-opacity="0.439" d="M22 3h1v1H22z M105 3h1v1H105z M3 22h1v1H3z M124 22h1v1H124z M31 46h1v1H31z M96 46h1v1H96z M29 48h1v1H29z M98 48h1v1H98z M56 49h1v1H56z M71 49h1v1H71z M44 54h1v1H44z M83 54h1v1H83z M28 56h1v1H28z M99 56h1v1H99z M43 57h1v1H43z M84 57h1v1H84z M40 60h1v1H40z M87 60h1v1H87z M62 61h1v1H62z M65 61h1v1H65z M0 73h1v1H0z M127 73h1v1H127z M1 78h1v1H1z M117 94h1v1H117z M19 101h1v1H19z M108 101h1v1H108z M91 106h1v1H91z M68 109h1v1H68z M57 114h1v1H57z"/>
<path fill="#000000" fill-opacity="0.627" d="M34 0h1v1H34z M93 0h1v1H93z M25 2h1v1H25z M102 2h1v1H102z M2 25h1v1H2z M125 25h1v1H125z M60 45h1v1H60z M67 45h1v1H67z M55 52h1v1H55z M72 52h1v1H72z M44 55h1v1H44z M83 55h1v1H83z M59 60h1v1H59z M68 60h1v1H68z M38 61h1v1H38z M61 61h1v1H61z M66 61h1v1H66z M89 61h1v1H89z M0 71h1v1H0z M127 71h1v1H127z M5 87h1v1H5z M122 87h1v1H122z M21 102h1v1H21z M104 103h1v1H104z M85 106h5v1H85z M75 107h1v1H75z M55 115h1v1H55z M38 127h1v1H38z"/>
<path fill="#000000" fill-opacity="0.502" d="M33 0h1v1H33z M94 0h1v1H94z M1 28h1v1H1z M126 28h1v1H126z M0 33h1v1H0z M127 33h1v1H127z M39 45h1v1H39z M88 45h1v1H88z M55 53h1v1H55z M72 53h1v1H72z M30 59h1v1H30z M97 59h1v1H97z M34 61h1v1H34z M93 61h1v1H93z M2 81h1v1H2z M125 81h1v1H125z M6 89h1v1H6z M121 89h1v1H121z M11 95h1v1H11z M23 103h1v1H23z M98 105h1v1H98z M35 106h1v1H35z M90 106h1v1H90z M76 107h1v1H76z M65 110h1v1H65z M51 118h1v1H51z M36 125h1v1H36z"/>
<path fill="#000000" fill-opacity="0.376" d="M32 0h1v1H32z M95 0h1v1H95z M20 4h1v1H20z M107 4h1v1H107z M14 8h1v1H14z M113 8h1v1H113z M8 14h1v1H8z M119 14h1v1H119z M4 20h1v1H4z M123 20h1v1H123z M0 32h1v1H0z M127 32h1v1H127z M33 45h1v1H33z M94 45h1v1H94z M44 52h1v1H44z M83 52h1v1H83z M57 58h1v1H57z M70 58h1v1H70z M37 61h1v1H37z M90 61h1v1H90z M0 74h1v1H0z M126 78h1v1H126z M9 93h1v1H9z M12 96h1v1H12z M115 96h1v1H115z M110 100h1v1H110z"/>
<path fill="#000000" fill-opacity="0.690" d="M35 0h1v1H35z M92 0h1v1H92z M6 17h1v1H6z M121 17h1v1H121z M0 35h1v1H0z M127 35h1v1H127z M55 54h1v1H55z M72 54h1v1H72z M56 57h1v1H56z M71 57h1v1H71z M29 58h1v1H29z M98 58h1v1H98z M33 61h1v1H33z M94 61h1v1H94z M1 77h1v1H1z M126 77h1v1H126z M4 85h1v1H4z M123 85h1v1H123z M7 90h1v1H7z M16 99h1v1H16z M111 99h1v1H111z M30 105h1v1H30z M84 106h1v1H84z M36 124h1v1H36z"/>
<path fill="#000000" fill-opacity="0.314" d="M31 0h1v1H31z M96 0h1v1H96z M24 2h1v1H24z M103 2h1v1H103z M2 24h1v1H2z M125 24h1v1H125z M61 45h1v1H61z M66 45h1v1H66z M28 50h1v1H28z M99 50h1v1H99z M58 59h1v1H58z M69 59h1v1H69z M35 61h1v1H35z M92 61h1v1H92z M127 74h1v1H127z M28 105h1v1H28z M34 106h1v1H34z M92 106h1v1H92z M77 107h1v1H77z M72 108h1v1H72z M63 111h1v1H63z M54 116h1v1H54z M50 119h1v1H50z"/>
<path fill="#000000" fill-opacity="0.565" d="M28 1h1v1H28z M99 1h1v1H99z M13 9h1v1H13z M114 9h1v1H114z M9 13h1v1H9z M118 13h1v1H118z M0 34h1v1H0z M127 34h1v1H127z M42 47h1v1H42z M85 47h1v1H85z M44 51h1v1H44z M83 51h1v1H83z M0 72h1v1H0z M127 72h1v1H127z M10 94h1v1H10z M116 95h1v1H116z M106 102h1v1H106z M26 104h1v1H26z M101 104h1v1H101z M29 105h1v1H29z M71 108h1v1H71z M41 127h1v1H41z"/>
<path fill="#000000" fill-opacity="0.188" d="M1 27h1v1H1z M126 27h1v1H126z M30 47h1v1H30z M97 47h1v1H97z M57 48h1v1H57z M70 48h1v1H70z M28 55h1v1H28z M99 55h1v1H99z M32 60h1v1H32z M95 60h1v1H95z M36 61h1v1H36z M91 61h1v1H91z M2 82h1v1H2z M125 82h1v1H125z M4 86h1v1H4z M123 86h1v1H123z M8 92h1v1H8z M99 105h1v1H99z M33 106h1v1H33z M78 107h1v1H78z M48 121h1v1H48z"/>
</svg>
