<svg xmlns="http://www.w3.org/2000/svg" viewBox="0 0 128 128" width="128" height="128" role="img">
<path fill="#000000" d="M58 11h12v1H58z M52 12h24v1H52z M48 13h32v1H48z M46 14h36v1H46z M43 15h42v1H43z M41 16h46v1H41z M39 17h50v1H39z M37 18h54v1H37z M36 19h56v1H36z M34 20h60v1H34z M33 21h62v1H33z M31 22h66v1H31z M30 23h68v1H30z M29 24h70v1H29z M28 25h72v1H28z M27 26h74v1H27z M26 27h76v1H26z M25 28h78v1H25z M24 29h80v1H24z M23 30h82v1H23z M22 31h84v1H22z M22 32h84v1H22z M21 33h86v1H21z M20 34h88v1H20z M20 35h88v1H20z M19 36h90v1H19z M18 37h43v1H18z M67 37h43v1H67z M18 38h42v1H18z M68 38h42v1H68z M17 39h42v1H17z M69 39h42v1H69z M17 40h42v1H17z M69 40h42v1H69z M16 41h42v1H16z M70 41h42v1H70z M16 42h42v1H16z M70 42h42v1H70z M15 43h43v1H15z M70 43h43v1H70z M15 44h43v1H15z M70 44h43v1H70z M15 45h43v1H15z M70 45h43v1H70z M14 46h44v1H14z M70 46h44v1H70z M14 47h44v1H14z M70 47h44v1H70z M13 48h45v1H13z M70 48h45v1H70z M13 49h45v1H13z M70 49h45v1H70z M13 50h45v1H13z M70 50h45v1H70z M13 51h45v1H13z M70 51h45v1H70z M12 52h46v1H12z M70 52h46v1H70z M12 53h46v1H12z M70 53h46v1H70z M12 54h46v1H12z M70 54h46v1H70z M12 55h46v1H12z M70 55h46v1H70z M12 56h46v1H12z M70 56h46v1H70z M12 57h46v1H12z M70 57h46v1H70z M11 58h30v1H11z M45 58h13v1H45z M70 58h13v1H70z M87 58h30v1H87z M11 59h28v1H11z M46 59h12v1H46z M70 59h12v1H70z M89 59h28v1H89z M11 60h27v1H11z M47 60h11v1H47z M70 60h11v1H70z M90 60h27v1H90z M11 61h26v1H11z M48 61h10v1H48z M70 61h10v1H70z M91 61h26v1H91z M11 62h26v1H11z M49 62h9v1H49z M70 62h9v1H70z M91 62h26v1H91z M11 63h26v1H11z M50 63h8v1H50z M70 63h8v1H70z M91 63h26v1H91z M11 64h26v1H11z M51 64h7v1H51z M70 64h7v1H70z M91 64h26v1H91z M11 65h26v1H11z M52 65h6v1H52z M70 65h6v1H70z M91 65h26v1H91z M11 66h26v1H11z M53 66h5v1H53z M70 66h5v1H70z M91 66h26v1H91z M11 67h27v1H11z M54 67h4v1H54z M70 67h4v1H70z M90 67h27v1H90z M11 68h28v1H11z M55 68h3v1H55z M70 68h3v1H70z M89 68h28v1H89z M11 69h29v1H11z M56 69h2v1H56z M70 69h2v1H70z M88 69h29v1H88z M12 70h29v1H12z M57 70h1v1H57z M70 70h1v1H70z M87 70h29v1H87z M12 71h30v1H12z M86 71h30v1H86z M12 72h31v1H12z M85 72h31v1H85z M12 73h32v1H12z M84 73h32v1H84z M12 74h33v1H12z M83 74h33v1H83z M12 75h34v1H12z M82 75h34v1H82z M13 76h34v1H13z M81 76h34v1H81z M13 77h35v1H13z M80 77h35v1H80z M13 78h36v1H13z M79 78h36v1H79z M13 79h37v1H13z M78 79h37v1H78z M14 80h37v1H14z M77 80h37v1H77z M14 81h38v1H14z M76 81h38v1H76z M15 82h38v1H15z M75 82h38v1H75z M15 83h39v1H15z M74 83h39v1H74z M15 84h40v1H15z M73 84h40v1H73z M16 85h40v1H16z M72 85h40v1H72z M16 86h41v1H16z M71 86h41v1H71z M17 87h41v1H17z M70 87h41v1H70z M17 88h42v1H17z M69 88h42v1H69z M18 89h42v1H18z M68 89h42v1H68z M18 90h43v1H18z M67 90h43v1H67z M19 91h90v1H19z M20 92h88v1H20z M20 93h88v1H20z M21 94h86v1H21z M22 95h84v1H22z M22 96h84v1H22z M23 97h82v1H23z M24 98h80v1H24z M25 99h78v1H25z M26 100h76v1H26z M27 101h74v1H27z M28 102h72v1H28z M29 103h70v1H29z M30 104h68v1H30z M31 105h66v1H31z M33 106h62v1H33z M34 107h60v1H34z M36 108h56v1H36z M37 109h54v1H37z M39 110h50v1H39z M41 111h46v1H41z M43 112h42v1H43z M46 113h36v1H46z M48 114h32v1H48z M52 115h24v1H52z M58 116h12v1H58z"/>
<path fill="#000000" fill-opacity="0.690" d="M47 13h1v1H47z M80 13h1v1H80z M91 18h1v1H91z M33 20h1v1H33z M28 24h1v1H28z M24 28h1v1H24z M103 28h1v1H103z M107 33h1v1H107z M60 38h1v1H60z M67 38h1v1H67z M58 42h1v1H58z M69 42h1v1H69z M58 43h1v1H58z M69 43h1v1H69z M58 44h1v1H58z M69 44h1v1H69z M58 45h1v1H58z M69 45h1v1H69z M58 46h1v1H58z M69 46h1v1H69z M13 47h1v1H13z M58 47h1v1H58z M69 47h1v1H69z M114 47h1v1H114z M58 48h1v1H58z M69 48h1v1H69z M58 49h1v1H58z M69 49h1v1H69z M58 50h1v1H58z M69 50h1v1H69z M58 51h1v1H58z M69 51h1v1H69z M58 52h1v1H58z M69 52h1v1H69z M58 53h1v1H58z M69 53h1v1H69z M58 54h1v1H58z M69 54h1v1H69z M58 55h1v1H58z M69 55h1v1H69z M58 56h1v1H58z M69 56h1v1H69z M58 57h1v1H58z M69 57h1v1H69z M42 58h1v1H42z M58 58h1v1H58z M69 58h1v1H69z M85 58h1v1H85z M58 59h1v1H58z M69 59h1v1H69z M38 60h1v1H38z M58 60h1v1H58z M69 60h1v1H69z M89 60h1v1H89z M58 61h1v1H58z M69 61h1v1H69z M58 62h1v1H58z M69 62h1v1H69z M58 63h1v1H58z M69 63h1v1H69z M58 64h1v1H58z M69 64h1v1H69z M58 65h1v1H58z M69 65h1v1H69z M58 66h1v1H58z M69 66h1v1H69z M38 67h1v1H38z M58 67h1v1H58z M69 67h1v1H69z M89 67h1v1H89z M58 68h1v1H58z M69 68h1v1H69z M58 69h1v1H58z M69 69h1v1H69z M58 70h1v1H58z M69 70h1v1H69z M13 80h1v1H13z M114 80h1v1H114z M60 89h1v1H60z M67 89h1v1H67z M20 94h1v1H20z M107 94h1v1H107z M24 99h1v1H24z M103 99h1v1H103z M28 103h1v1H28z M99 103h1v1H99z M33 107h1v1H33z M94 107h1v1H94z M47 114h1v1H47z M80 114h1v1H80z"/>
<path fill="#000000" fill-opacity="0.314" d="M63 10h2v1H63z M78 12h1v1H78z M46 13h1v1H46z M81 13h1v1H81z M41 15h1v1H41z M86 15h1v1H86z M39 16h1v1H39z M111 39h1v1H111z M15 41h1v1H15z M112 41h1v1H112z M114 46h1v1H114z M12 49h1v1H12z M11 53h1v1H11z M46 60h1v1H46z M81 60h1v1H81z M47 61h1v1H47z M80 61h1v1H80z M48 62h1v1H48z M79 62h1v1H79z M10 63h1v1H10z M49 63h1v1H49z M78 63h1v1H78z M117 63h1v1H117z M10 64h1v1H10z M50 64h1v1H50z M77 64h1v1H77z M117 64h1v1H117z M51 65h1v1H51z M76 65h1v1H76z M52 66h1v1H52z M75 66h1v1H75z M53 67h1v1H53z M74 67h1v1H74z M54 68h1v1H54z M73 68h1v1H73z M55 69h1v1H55z M72 69h1v1H72z M56 70h1v1H56z M71 70h1v1H71z M57 71h1v1H57z M70 71h1v1H70z M12 78h1v1H12z M13 81h1v1H13z M114 81h1v1H114z M15 86h1v1H15z M112 86h1v1H112z M111 88h1v1H111z M39 111h1v1H39z M86 112h1v1H86z M46 114h1v1H46z M81 114h1v1H81z M78 115h1v1H78z M63 117h2v1H63z"/>
<path fill="#000000" fill-opacity="0.627" d="M55 11h1v1H55z M72 11h1v1H72z M77 12h1v1H77z M44 14h1v1H44z M83 14h1v1H83z M36 18h1v1H36z M29 23h1v1H29z M98 23h1v1H98z M23 29h1v1H23z M104 29h1v1H104z M18 36h1v1H18z M109 36h1v1H109z M14 44h1v1H14z M113 44h1v1H113z M11 55h1v1H11z M39 68h1v1H39z M40 69h1v1H40z M87 69h1v1H87z M41 70h1v1H41z M42 71h1v1H42z M58 71h1v1H58z M69 71h1v1H69z M43 72h1v1H43z M84 72h1v1H84z M44 73h1v1H44z M45 74h1v1H45z M82 74h1v1H82z M46 75h1v1H46z M47 76h1v1H47z M48 77h1v1H48z M49 78h1v1H49z M50 79h1v1H50z M77 79h1v1H77z M51 80h1v1H51z M52 81h1v1H52z M53 82h1v1H53z M14 83h1v1H14z M54 83h1v1H54z M55 84h1v1H55z M72 84h1v1H72z M56 85h1v1H56z M57 86h1v1H57z M58 87h1v1H58z M59 88h1v1H59z M18 91h1v1H18z M109 91h1v1H109z M23 98h1v1H23z M104 98h1v1H104z M29 104h1v1H29z M98 104h1v1H98z M91 109h1v1H91z M44 113h1v1H44z"/>
<path fill="#000000" fill-opacity="0.251" d="M62 10h1v1H62z M65 10h1v1H65z M53 11h1v1H53z M74 11h1v1H74z M49 12h1v1H49z M43 14h1v1H43z M84 14h1v1H84z M37 17h1v1H37z M90 17h1v1H90z M31 21h1v1H31z M96 21h1v1H96z M21 31h1v1H21z M106 31h1v1H106z M17 37h1v1H17z M110 37h1v1H110z M14 43h1v1H14z M113 43h1v1H113z M115 49h1v1H115z M116 53h1v1H116z M10 62h1v1H10z M117 62h1v1H117z M10 65h1v1H10z M117 65h1v1H117z M11 74h1v1H11z M116 74h1v1H116z M115 78h1v1H115z M14 84h1v1H14z M113 84h1v1H113z M17 90h1v1H17z M110 90h1v1H110z M21 96h1v1H21z M106 96h1v1H106z M96 106h1v1H96z M37 110h1v1H37z M90 110h1v1H90z M41 112h1v1H41z M43 113h1v1H43z M84 113h1v1H84z M49 115h1v1H49z M53 116h1v1H53z M74 116h1v1H74z M62 117h1v1H62z M65 117h1v1H65z"/>
<path fill="#000000" fill-opacity="0.565" d="M62 37h1v1H62z M65 37h1v1H65z M12 50h1v1H12z M116 55h1v1H116z M37 62h1v1H37z M90 62h1v1H90z M37 65h1v1H37z M90 65h1v1H90z M88 68h1v1H88z M86 70h1v1H86z M85 71h1v1H85z M11 72h1v1H11z M116 72h1v1H116z M83 73h1v1H83z M81 75h1v1H81z M80 76h1v1H80z M12 77h1v1H12z M79 77h1v1H79z M78 78h1v1H78z M76 80h1v1H76z M75 81h1v1H75z M74 82h1v1H74z M73 83h1v1H73z M113 83h1v1H113z M71 85h1v1H71z M70 86h1v1H70z M69 87h1v1H69z M68 88h1v1H68z M62 90h1v1H62z M65 90h1v1H65z M36 109h1v1H36z M83 113h1v1H83z M77 115h1v1H77z M55 116h1v1H55z M72 116h1v1H72z"/>
<path fill="#000000" fill-opacity="0.753" d="M56 11h1v1H56z M71 11h1v1H71z M51 12h1v1H51z M42 15h1v1H42z M94 20h1v1H94z M99 24h1v1H99z M27 25h1v1H27z M25 27h1v1H25z M102 27h1v1H102z M20 33h1v1H20z M59 39h1v1H59z M68 39h1v1H68z M112 42h1v1H112z M11 56h1v1H11z M116 56h1v1H116z M43 58h1v1H43z M84 58h1v1H84z M39 59h1v1H39z M88 59h1v1H88z M11 71h1v1H11z M116 71h1v1H116z M115 76h1v1H115z M15 85h1v1H15z M112 85h1v1H112z M25 100h1v1H25z M102 100h1v1H102z M27 102h1v1H27z M100 102h1v1H100z M42 112h1v1H42z M85 112h1v1H85z M51 115h1v1H51z M56 116h1v1H56z M71 116h1v1H71z"/>
<path fill="#000000" fill-opacity="0.816" d="M76 12h1v1H76z M85 15h1v1H85z M40 16h1v1H40z M87 16h1v1H87z M38 17h1v1H38z M89 17h1v1H89z M100 25h1v1H100z M26 26h1v1H26z M101 26h1v1H101z M17 38h1v1H17z M110 38h1v1H110z M16 40h1v1H16z M111 40h1v1H111z M58 41h1v1H58z M69 41h1v1H69z M15 42h1v1H15z M12 51h1v1H12z M115 51h1v1H115z M41 58h1v1H41z M86 58h1v1H86z M12 76h1v1H12z M16 87h1v1H16z M111 87h1v1H111z M17 89h1v1H17z M110 89h1v1H110z M26 101h1v1H26z M101 101h1v1H101z M38 110h1v1H38z M89 110h1v1H89z M40 111h1v1H40z M87 111h1v1H87z M76 115h1v1H76z"/>
<path fill="#000000" fill-opacity="0.941" d="M45 14h1v1H45z M82 14h1v1H82z M35 19h1v1H35z M92 19h1v1H92z M19 35h1v1H19z M108 35h1v1H108z M61 37h1v1H61z M66 37h1v1H66z M14 45h1v1H14z M113 45h1v1H113z M44 58h1v1H44z M83 58h1v1H83z M37 61h1v1H37z M90 61h1v1H90z M37 66h1v1H37z M90 66h1v1H90z M14 82h1v1H14z M113 82h1v1H113z M61 90h1v1H61z M66 90h1v1H66z M19 92h1v1H19z M108 92h1v1H108z M35 108h1v1H35z M92 108h1v1H92z M45 113h1v1H45z M82 113h1v1H82z"/>
<path fill="#000000" fill-opacity="0.439" d="M54 11h1v1H54z M73 11h1v1H73z M34 19h1v1H34z M93 19h1v1H93z M105 30h1v1H105z M19 34h1v1H19z M108 34h1v1H108z M11 54h1v1H11z M116 54h1v1H116z M11 73h1v1H11z M116 73h1v1H116z M19 93h1v1H19z M105 97h1v1H105z M30 105h1v1H30z M97 105h1v1H97z M34 108h1v1H34z M54 116h1v1H54z M73 116h1v1H73z"/>
<path fill="#000000" fill-opacity="0.125" d="M59 10h2v1H59z M67 10h2v1H67z M35 18h1v1H35z M109 35h1v1H109z M59 40h1v1H59z M10 59h1v1H10z M40 59h1v1H40z M87 59h1v1H87z M117 59h1v1H117z M117 60h1v1H117z M117 67h1v1H117z M10 68h1v1H10z M117 68h1v1H117z M58 72h1v1H58z M69 72h1v1H69z M59 117h2v1H59z M67 117h2v1H67z"/>
<path fill="#000000" fill-opacity="0.878" d="M57 11h1v1H57z M70 11h1v1H70z M32 21h1v1H32z M95 21h1v1H95z M21 32h1v1H21z M106 32h1v1H106z M11 57h1v1H11z M116 57h1v1H116z M11 70h1v1H11z M116 70h1v1H116z M21 95h1v1H21z M106 95h1v1H106z M32 106h1v1H32z M95 106h1v1H95z M57 116h1v1H57z M70 116h1v1H70z"/>
<path fill="#000000" fill-opacity="0.376" d="M88 16h1v1H88z M63 37h2v1H63z M16 39h1v1H16z M13 46h1v1H13z M37 63h1v1H37z M90 63h1v1H90z M37 64h1v1H37z M90 64h1v1H90z M16 88h1v1H16z M63 90h2v1H63z M108 93h1v1H108z M93 108h1v1H93z M88 111h1v1H88z"/>
<path fill="#000000" fill-opacity="0.188" d="M61 10h1v1H61z M66 10h1v1H66z M68 40h1v1H68z M10 60h1v1H10z M10 61h1v1H10z M117 61h1v1H117z M10 66h1v1H10z M117 66h1v1H117z M10 67h1v1H10z M31 106h1v1H31z M61 117h1v1H61z M66 117h1v1H66z"/>
<path fill="#000000" fill-opacity="0.502" d="M50 12h1v1H50z M30 22h1v1H30z M97 22h1v1H97z M22 30h1v1H22z M115 50h1v1H115z M45 59h1v1H45z M82 59h1v1H82z M115 77h1v1H115z M22 97h1v1H22z M50 115h1v1H50z"/>
</svg>
