<svg xmlns="http://www.w3.org/2000/svg" viewBox="0 0 128 128" width="128" height="128" role="img">
<path fill="#000000" d="M41 6h14v1H41z M38 7h20v1H38z M35 8h26v1H35z M33 9h30v1H33z M32 10h32v1H32z M30 11h36v1H30z M87 11h8v1H87z M29 12h38v1H29z M85 12h14v1H85z M28 13h41v1H28z M85 13h16v1H85z M26 14h44v1H26z M85 14h18v1H85z M25 15h46v1H25z M85 15h20v1H85z M24 16h48v1H24z M86 16h20v1H86z M24 17h48v1H24z M86 17h22v1H86z M23 18h50v1H23z M87 18h22v1H87z M22 19h52v1H22z M87 19h23v1H87z M21 20h54v1H21z M88 20h23v1H88z M21 21h54v1H21z M88 21h23v1H88z M20 22h56v1H20z M89 22h23v1H89z M20 23h56v1H20z M89 23h24v1H89z M19 24h58v1H19z M89 24h24v1H89z M19 25h58v1H19z M90 25h24v1H90z M18 26h60v1H18z M90 26h24v1H90z M18 27h60v1H18z M90 27h25v1H90z M18 28h60v1H18z M90 28h25v1H90z M18 29h60v1H18z M90 29h26v1H90z M17 30h62v1H17z M91 30h25v1H91z M17 31h62v1H17z M91 31h25v1H91z M17 32h62v1H17z M91 32h25v1H91z M17 33h62v1H17z M91 33h26v1H91z M17 34h62v1H17z M91 34h26v1H91z M17 35h62v1H17z M91 35h26v1H91z M17 36h62v1H17z M91 36h26v1H91z M16 37h64v1H16z M91 37h26v1H91z M17 38h62v1H17z M91 38h26v1H91z M17 39h62v1H17z M91 39h26v1H91z M17 40h62v1H17z M91 40h26v1H91z M17 41h62v1H17z M91 41h25v1H91z M17 42h62v1H17z M91 42h25v1H91z M17 43h62v1H17z M91 43h25v1H91z M17 44h62v1H17z M91 44h25v1H91z M18 45h60v1H18z M90 45h26v1H90z M18 46h60v1H18z M90 46h25v1H90z M18 47h60v1H18z M90 47h25v1H90z M19 48h58v1H19z M90 48h24v1H90z M19 49h58v1H19z M89 49h25v1H89z M19 50h58v1H19z M89 50h24v1H89z M20 51h56v1H20z M89 51h24v1H89z M20 52h56v1H20z M88 52h24v1H88z M21 53h54v1H21z M88 53h23v1H88z M22 54h52v1H22z M88 54h22v1H88z M22 55h52v1H22z M87 55h22v1H87z M23 56h50v1H23z M87 56h21v1H87z M24 57h48v1H24z M86 57h21v1H86z M25 58h46v1H25z M86 58h20v1H86z M26 59h44v1H26z M85 59h19v1H85z M27 60h42v1H27z M85 60h18v1H85z M28 61h40v1H28z M85 61h16v1H85z M29 62h38v1H29z M85 62h13v1H85z M31 63h34v1H31z M90 63h1v1H90z M32 64h32v1H32z M34 65h28v1H34z M36 66h24v1H36z M39 67h18v1H39z M44 68h8v1H44z M30 75h36v1H30z M93 75h5v1H93z M25 76h46v1H25z M94 76h9v1H94z M22 77h52v1H22z M95 77h11v1H95z M20 78h56v1H20z M95 78h13v1H95z M18 79h60v1H18z M96 79h14v1H96z M16 80h64v1H16z M97 80h15v1H97z M15 81h66v1H15z M98 81h15v1H98z M13 82h70v1H13z M99 82h16v1H99z M12 83h72v1H12z M99 83h17v1H99z M11 84h74v1H11z M100 84h17v1H100z M10 85h76v1H10z M101 85h17v1H101z M9 86h78v1H9z M101 86h18v1H101z M8 87h80v1H8z M102 87h18v1H102z M7 88h82v1H7z M102 88h19v1H102z M7 89h82v1H7z M103 89h18v1H103z M6 90h84v1H6z M103 90h19v1H103z M5 91h86v1H5z M104 91h19v1H104z M5 92h86v1H5z M104 92h19v1H104z M4 93h88v1H4z M104 93h20v1H104z M4 94h88v1H4z M105 94h19v1H105z M3 95h90v1H3z M105 95h20v1H105z M3 96h90v1H3z M105 96h20v1H105z M3 97h90v1H3z M106 97h19v1H106z M2 98h92v1H2z M106 98h20v1H106z M2 99h92v1H2z M106 99h20v1H106z M2 100h92v1H2z M106 100h20v1H106z M1 101h94v1H1z M106 101h21v1H106z M1 102h94v1H1z M107 102h20v1H107z M1 103h94v1H1z M107 103h20v1H107z M1 104h94v1H1z M107 104h20v1H107z M1 105h94v1H1z M107 105h20v1H107z M1 106h94v1H1z M107 106h20v1H107z M1 107h94v1H1z M107 107h20v1H107z M0 108h96v1H0z M107 108h21v1H107z M1 109h94v1H1z M107 109h20v1H107z M1 110h94v1H1z M107 110h20v1H107z M1 111h94v1H1z M107 111h20v1H107z M1 112h94v1H1z M107 112h20v1H107z M1 113h94v1H1z M107 113h20v1H107z M2 114h92v1H2z M107 114h19v1H107z M2 115h92v1H2z M106 115h20v1H106z M3 116h90v1H3z M106 116h19v1H106z M4 117h88v1H4z M106 117h18v1H106z M5 118h86v1H5z M105 118h18v1H105z M6 119h84v1H6z M105 119h17v1H105z M7 120h82v1H7z M105 120h16v1H105z M10 121h76v1H10z M106 121h12v1H106z"/>
<path fill="#000000" fill-opacity="0.878" d="M37 7h1v1H37z M58 7h1v1H58z M95 11h1v1H95z M28 12h1v1H28z M67 12h1v1H67z M84 13h1v1H84z M90 30h1v1H90z M116 32h1v1H116z M16 34h1v1H16z M79 34h1v1H79z M79 35h1v1H79z M16 39h1v1H16z M79 39h1v1H79z M17 45h1v1H17z M78 45h1v1H78z M21 54h1v1H21z M74 54h1v1H74z M87 54h1v1H87z M110 54h1v1H110z M86 56h1v1H86z M107 57h1v1H107z M24 58h1v1H24z M71 58h1v1H71z M85 58h1v1H85z M25 59h1v1H25z M70 59h1v1H70z M26 60h1v1H26z M69 60h1v1H69z M84 60h1v1H84z M84 61h1v1H84z M88 63h1v1H88z M92 63h1v1H92z M38 67h1v1H38z M57 67h1v1H57z M24 76h1v1H24z M71 76h1v1H71z M103 76h1v1H103z M21 77h1v1H21z M76 78h1v1H76z M108 78h1v1H108z M17 79h1v1H17z M78 79h1v1H78z M110 79h1v1H110z M14 81h1v1H14z M98 82h1v1H98z M6 89h1v1H6z M89 89h1v1H89z M121 89h1v1H121z M103 91h1v1H103z M105 97h1v1H105z M1 100h1v1H1z M94 100h1v1H94z M126 100h1v1H126z M106 102h1v1H106z M0 106h1v1H0z M95 106h1v1H95z M127 106h1v1H127z M0 110h1v1H0z M3 117h1v1H3z M92 117h1v1H92z M105 117h1v1H105z M124 117h1v1H124z"/>
<path fill="#000000" fill-opacity="0.941" d="M31 10h1v1H31z M64 10h1v1H64z M86 11h1v1H86z M27 13h1v1H27z M101 13h1v1H101z M103 14h1v1H103z M106 16h1v1H106z M23 17h1v1H23z M72 17h1v1H72z M111 21h1v1H111z M88 22h1v1H88z M113 24h1v1H113z M89 25h1v1H89z M114 26h1v1H114z M17 29h1v1H17z M78 29h1v1H78z M16 35h1v1H16z M16 36h1v1H16z M79 36h1v1H79z M16 38h1v1H16z M79 38h1v1H79z M116 41h1v1H116z M90 44h1v1H90z M18 48h1v1H18z M77 48h1v1H77z M109 55h1v1H109z M108 56h1v1H108z M104 59h1v1H104z M30 63h1v1H30z M65 63h1v1H65z M89 63h1v1H89z M91 63h1v1H91z M43 68h1v1H43z M52 68h1v1H52z M29 75h1v1H29z M66 75h1v1H66z M98 75h1v1H98z M93 76h1v1H93z M94 77h1v1H94z M19 78h1v1H19z M81 81h1v1H81z M113 81h1v1H113z M100 85h1v1H100z M2 97h1v1H2z M93 97h1v1H93z M125 97h1v1H125z M0 107h1v1H0z M95 107h1v1H95z M127 107h1v1H127z M0 109h1v1H0z M95 109h1v1H95z M127 109h1v1H127z M106 114h1v1H106z M4 118h1v1H4z M91 118h1v1H91z M123 118h1v1H123z M9 121h1v1H9z M86 121h1v1H86z M118 121h1v1H118z"/>
<path fill="#000000" fill-opacity="0.125" d="M35 7h1v1H35z M60 7h1v1H60z M31 9h1v1H31z M64 9h1v1H64z M67 11h1v1H67z M98 11h1v1H98z M106 15h1v1H106z M22 17h1v1H22z M73 17h1v1H73z M112 21h1v1H112z M78 26h1v1H78z M116 29h1v1H116z M117 40h1v1H117z M79 44h1v1H79z M89 45h1v1H89z M88 49h1v1H88z M18 50h1v1H18z M77 50h1v1H77z M87 52h1v1H87z M111 54h1v1H111z M107 58h1v1H107z M24 59h1v1H24z M71 59h1v1H71z M25 60h1v1H25z M70 60h1v1H70z M104 60h1v1H104z M26 61h1v1H26z M69 61h1v1H69z M100 62h1v1H100z M30 64h1v1H30z M65 64h1v1H65z M39 68h1v1H39z M56 68h1v1H56z M44 69h1v1H44z M51 69h1v1H51z M30 74h1v1H30z M65 74h1v1H65z M97 74h1v1H97z M70 75h1v1H70z M102 75h1v1H102z M92 76h1v1H92z M14 80h1v1H14z M81 80h1v1H81z M113 80h1v1H113z M103 93h1v1H103z M104 96h1v1H104z M4 119h1v1H4z M91 119h1v1H91z M123 119h1v1H123z M7 121h1v1H7z M88 121h1v1H88z M120 121h1v1H120z"/>
<path fill="#000000" fill-opacity="0.816" d="M99 12h1v1H99z M84 14h1v1H84z M105 15h1v1H105z M22 18h1v1H22z M73 18h1v1H73z M87 20h1v1H87z M75 21h1v1H75z M112 22h1v1H112z M19 23h1v1H19z M76 23h1v1H76z M115 28h1v1H115z M16 40h1v1H16z M79 40h1v1H79z M116 42h1v1H116z M90 43h1v1H90z M89 48h1v1H89z M114 48h1v1H114z M113 50h1v1H113z M111 53h1v1H111z M23 57h1v1H23z M27 61h1v1H27z M68 61h1v1H68z M98 62h1v1H98z M93 63h1v1H93z M33 65h1v1H33z M62 65h1v1H62z M42 68h1v1H42z M53 68h1v1H53z M28 75h1v1H28z M67 75h1v1H67z M99 75h1v1H99z M74 77h1v1H74z M106 77h1v1H106z M101 87h1v1H101z M102 89h1v1H102z M4 92h1v1H4z M0 105h1v1H0z M95 105h1v1H95z M127 105h1v1H127z M95 110h1v1H95z M127 110h1v1H127z M1 114h1v1H1z M94 114h1v1H94z M126 114h1v1H126z M5 119h1v1H5z M90 119h1v1H90z M122 119h1v1H122z"/>
<path fill="#000000" fill-opacity="0.188" d="M42 5h1v1H42z M53 5h1v1H53z M33 8h1v1H33z M62 8h1v1H62z M88 10h1v1H88z M93 10h1v1H93z M20 20h1v1H20z M75 20h1v1H75z M117 34h1v1H117z M117 39h1v1H117z M16 44h1v1H16z M19 52h1v1H19z M76 52h1v1H76z M110 55h1v1H110z M108 57h1v1H108z M102 61h1v1H102z M36 67h1v1H36z M59 67h1v1H59z M45 69h1v1H45z M50 69h1v1H50z M31 74h1v1H31z M64 74h1v1H64z M96 74h1v1H96z M25 75h1v1H25z M22 76h1v1H22z M73 76h1v1H73z M105 76h1v1H105z M6 88h1v1H6z M4 91h1v1H4z M91 91h1v1H91z M123 91h1v1H123z M105 100h1v1H105z M0 101h1v1H0z M95 101h1v1H95z M127 101h1v1H127z M0 113h1v1H0z M95 113h1v1H95z M127 113h1v1H127z M3 118h1v1H3z M92 118h1v1H92z M124 118h1v1H124z"/>
<path fill="#000000" fill-opacity="0.251" d="M38 6h1v1H38z M57 6h1v1H57z M89 10h1v1H89z M92 10h1v1H92z M27 12h1v1H27z M68 12h1v1H68z M23 16h1v1H23z M72 16h1v1H72z M85 17h1v1H85z M86 19h1v1H86z M89 28h1v1H89z M16 30h1v1H16z M79 30h1v1H79z M117 35h1v1H117z M117 38h1v1H117z M113 51h1v1H113z M109 56h1v1H109z M46 69h1v1H46z M49 69h1v1H49z M32 74h1v1H32z M63 74h1v1H63z M93 74h1v1H93z M95 74h1v1H95z M92 75h1v1H92z M93 77h1v1H93z M13 81h1v1H13z M98 83h1v1H98z M89 88h1v1H89z M121 88h1v1H121z M2 95h1v1H2z M93 95h1v1H93z M125 95h1v1H125z M1 115h1v1H1z M94 115h1v1H94z M105 115h1v1H105z M126 115h1v1H126z M104 118h1v1H104z M104 120h1v1H104z M10 122h1v1H10z M85 122h1v1H85z M117 122h1v1H117z"/>
<path fill="#000000" fill-opacity="0.314" d="M43 5h1v1H43z M52 5h1v1H52z M90 10h2v1H90z M26 13h1v1H26z M69 13h1v1H69z M107 16h1v1H107z M111 20h1v1H111z M76 22h1v1H76z M18 24h1v1H18z M77 24h1v1H77z M88 24h1v1H88z M117 36h1v1H117z M90 37h1v1H90z M117 37h1v1H117z M116 44h1v1H116z M89 46h1v1H89z M17 47h1v1H17z M78 47h1v1H78z M115 47h1v1H115z M21 55h1v1H21z M74 55h1v1H74z M85 63h1v1H85z M96 63h1v1H96z M32 65h1v1H32z M63 65h1v1H63z M34 66h1v1H34z M61 66h1v1H61z M47 69h2v1H47z M33 74h30v1H33z M94 74h1v1H94z M94 78h1v1H94z M16 79h1v1H16z M111 79h1v1H111z M82 81h1v1H82z M114 81h1v1H114z M101 88h1v1H101z M102 90h1v1H102z M3 93h1v1H3z M92 93h1v1H92z M124 93h1v1H124z"/>
<path fill="#000000" fill-opacity="0.439" d="M30 10h1v1H30z M65 10h1v1H65z M97 11h1v1H97z M100 12h1v1H100z M104 14h1v1H104z M108 17h1v1H108z M110 19h1v1H110z M113 23h1v1H113z M17 27h1v1H17z M78 27h1v1H78z M115 27h1v1H115z M116 30h1v1H116z M16 31h1v1H16z M79 31h1v1H79z M90 34h1v1H90z M90 39h1v1H90z M90 40h1v1H90z M88 50h1v1H88z M86 55h1v1H86z M85 57h1v1H85z M84 62h1v1H84z M99 62h1v1H99z M26 75h1v1H26z M69 75h1v1H69z M101 75h1v1H101z M20 77h1v1H20z M75 77h1v1H75z M107 77h1v1H107z M77 78h1v1H77z M109 78h1v1H109z M7 87h1v1H7z M88 87h1v1H88z M120 87h1v1H120z M106 106h1v1H106z M106 110h1v1H106z M11 122h1v1H11z M84 122h1v1H84z M106 122h1v1H106z M116 122h1v1H116z"/>
<path fill="#000000" fill-opacity="0.565" d="M45 5h1v1H45z M50 5h1v1H50z M102 13h1v1H102z M21 19h1v1H21z M74 19h1v1H74z M114 25h1v1H114z M79 32h1v1H79z M90 41h1v1H90z M16 42h1v1H16z M79 42h1v1H79z M116 43h1v1H116z M89 47h1v1H89z M18 49h1v1H18z M77 49h1v1H77z M112 52h1v1H112z M20 53h1v1H20z M75 53h1v1H75z M22 56h1v1H22z M73 56h1v1H73z M86 63h1v1H86z M95 63h1v1H95z M23 76h1v1H23z M72 76h1v1H72z M104 76h1v1H104z M8 86h1v1H8z M87 86h1v1H87z M119 86h1v1H119z M5 90h1v1H5z M90 90h1v1H90z M122 90h1v1H122z M106 104h1v1H106z M105 116h1v1H105z M6 120h1v1H6z M89 120h1v1H89z M121 120h1v1H121z M12 122h1v1H12z M83 122h1v1H83z M115 122h1v1H115z"/>
<path fill="#000000" fill-opacity="0.690" d="M61 8h1v1H61z M85 11h1v1H85z M96 11h1v1H96z M84 12h1v1H84z M18 25h1v1H18z M77 25h1v1H77z M116 31h1v1H116z M16 41h1v1H16z M79 41h1v1H79z M90 42h1v1H90z M115 46h1v1H115z M19 51h1v1H19z M103 60h1v1H103z M101 61h1v1H101z M67 62h1v1H67z M94 63h1v1H94z M31 64h1v1H31z M64 64h1v1H64z M15 80h1v1H15z M80 80h1v1H80z M112 80h1v1H112z M10 84h1v1H10z M85 84h1v1H85z M117 84h1v1H117z M9 85h1v1H9z M86 85h1v1H86z M118 85h1v1H118z M106 103h1v1H106z M0 104h1v1H0z M95 104h1v1H95z M127 104h1v1H127z M2 116h1v1H2z M93 116h1v1H93z M125 116h1v1H125z M105 121h1v1H105z M14 122h68v1H14z M108 122h6v1H108z"/>
<path fill="#000000" fill-opacity="0.627" d="M46 5h4v1H46z M34 8h1v1H34z M32 9h1v1H32z M63 9h1v1H63z M88 23h1v1H88z M16 32h1v1H16z M90 32h1v1H90z M17 46h1v1H17z M78 46h1v1H78z M76 51h1v1H76z M28 62h1v1H28z M41 68h1v1H41z M54 68h1v1H54z M27 75h1v1H27z M68 75h1v1H68z M100 75h1v1H100z M11 83h1v1H11z M84 83h1v1H84z M116 83h1v1H116z M99 84h1v1H99z M2 96h1v1H2z M93 96h1v1H93z M125 96h1v1H125z M105 98h1v1H105z M1 99h1v1H1z M94 99h1v1H94z M126 99h1v1H126z M106 112h1v1H106z M8 121h1v1H8z M87 121h1v1H87z M119 121h1v1H119z M13 122h1v1H13z M82 122h1v1H82z M107 122h1v1H107z M114 122h1v1H114z"/>
<path fill="#000000" fill-opacity="0.376" d="M25 14h1v1H25z M70 14h1v1H70z M24 15h1v1H24z M71 15h1v1H71z M84 15h1v1H84z M87 21h1v1H87z M19 22h1v1H19z M90 35h1v1H90z M90 36h1v1H90z M90 38h1v1H90z M16 43h1v1H16z M79 43h1v1H79z M114 49h1v1H114z M29 63h1v1H29z M66 63h1v1H66z M40 68h1v1H40z M55 68h1v1H55z M79 79h1v1H79z M95 79h1v1H95z M100 86h1v1H100z M104 95h1v1H104z M1 98h1v1H1z M94 98h1v1H94z M126 98h1v1H126z M105 99h1v1H105z M0 102h1v1H0z M95 102h1v1H95z M127 102h1v1H127z M106 107h1v1H106z M106 108h1v1H106z M106 109h1v1H106z M104 119h1v1H104z"/>
<path fill="#000000" fill-opacity="0.753" d="M40 6h1v1H40z M55 6h1v1H55z M29 11h1v1H29z M66 11h1v1H66z M85 16h1v1H85z M86 18h1v1H86z M20 21h1v1H20z M89 26h1v1H89z M17 28h1v1H17z M78 28h1v1H78z M90 31h1v1H90z M16 33h1v1H16z M79 33h1v1H79z M88 51h1v1H88z M72 57h1v1H72z M106 58h1v1H106z M87 63h1v1H87z M35 66h1v1H35z M60 66h1v1H60z M97 81h1v1H97z M91 92h1v1H91z M123 92h1v1H123z M3 94h1v1H3z M92 94h1v1H92z M104 94h1v1H104z M124 94h1v1H124z M0 111h1v1H0z M95 111h1v1H95z M127 111h1v1H127z M106 113h1v1H106z"/>
<path fill="#000000" fill-opacity="0.502" d="M44 5h1v1H44z M51 5h1v1H51z M39 6h1v1H39z M56 6h1v1H56z M36 7h1v1H36z M59 7h1v1H59z M109 18h1v1H109z M89 27h1v1H89z M90 33h1v1H90z M87 53h1v1H87z M84 59h1v1H84z M105 59h1v1H105z M37 67h1v1H37z M58 67h1v1H58z M18 78h1v1H18z M96 80h1v1H96z M12 82h1v1H12z M83 82h1v1H83z M115 82h1v1H115z M103 92h1v1H103z M0 103h1v1H0z M95 103h1v1H95z M127 103h1v1H127z M106 105h1v1H106z M106 111h1v1H106z M0 112h1v1H0z M95 112h1v1H95z M127 112h1v1H127z"/>
</svg>
