<svg xmlns="http://www.w3.org/2000/svg" viewBox="0 0 128 128" width="128" height="128" role="img">
<path fill="#000000" d="M9 0h41v1H9z M78 0h41v1H78z M5 1h48v1H5z M75 1h48v1H75z M4 2h51v1H4z M73 2h51v1H73z M3 3h53v1H3z M72 3h53v1H72z M2 4h55v1H2z M71 4h55v1H71z M1 5h56v1H1z M71 5h56v1H71z M1 6h57v1H1z M70 6h57v1H70z M1 7h57v1H1z M70 7h57v1H70z M1 8h57v1H1z M70 8h57v1H70z M0 9h58v1H0z M70 9h58v1H70z M0 10h58v1H0z M70 10h58v1H70z M0 11h58v1H0z M70 11h58v1H70z M0 12h58v1H0z M70 12h58v1H70z M0 13h58v1H0z M70 13h58v1H70z M0 14h58v1H0z M70 14h58v1H70z M0 15h58v1H0z M70 15h58v1H70z M0 16h58v1H0z M70 16h58v1H70z M0 17h58v1H0z M70 17h58v1H70z M0 18h58v1H0z M70 18h58v1H70z M0 19h58v1H0z M70 19h58v1H70z M0 20h58v1H0z M70 20h58v1H70z M0 21h58v1H0z M70 21h58v1H70z M0 22h58v1H0z M70 22h58v1H70z M0 23h58v1H0z M70 23h58v1H70z M0 24h58v1H0z M70 24h58v1H70z M0 25h58v1H0z M70 25h58v1H70z M0 26h58v1H0z M70 26h58v1H70z M0 27h58v1H0z M70 27h58v1H70z M0 28h58v1H0z M70 28h58v1H70z M0 29h58v1H0z M70 29h58v1H70z M0 30h58v1H0z M70 30h58v1H70z M0 31h58v1H0z M70 31h58v1H70z M0 32h58v1H0z M70 32h58v1H70z M0 33h58v1H0z M70 33h58v1H70z M1 34h57v1H1z M70 34h58v1H70z M1 35h57v1H1z M70 35h58v1H70z M1 36h57v1H1z M70 36h58v1H70z M2 37h55v1H2z M70 37h58v1H70z M2 38h54v1H2z M70 38h58v1H70z M3 39h53v1H3z M70 39h58v1H70z M4 40h50v1H4z M70 40h58v1H70z M6 41h47v1H6z M70 41h58v1H70z M70 42h58v1H70z M70 43h58v1H70z M70 44h58v1H70z M70 45h58v1H70z M70 46h58v1H70z M70 47h58v1H70z M70 48h58v1H70z M70 49h58v1H70z M70 50h58v1H70z M70 51h58v1H70z M70 52h58v1H70z M70 53h58v1H70z M6 54h47v1H6z M70 54h58v1H70z M4 55h50v1H4z M70 55h58v1H70z M3 56h53v1H3z M70 56h58v1H70z M2 57h54v1H2z M70 57h58v1H70z M2 58h55v1H2z M70 58h58v1H70z M1 59h57v1H1z M70 59h58v1H70z M1 60h57v1H1z M70 60h58v1H70z M1 61h57v1H1z M70 61h58v1H70z M0 62h58v1H0z M70 62h58v1H70z M0 63h58v1H0z M70 63h58v1H70z M0 64h58v1H0z M70 64h58v1H70z M0 65h58v1H0z M70 65h58v1H70z M0 66h58v1H0z M70 66h57v1H70z M0 67h58v1H0z M70 67h57v1H70z M0 68h58v1H0z M70 68h57v1H70z M0 69h58v1H0z M71 69h55v1H71z M0 70h58v1H0z M72 70h54v1H72z M0 71h58v1H0z M72 71h53v1H72z M0 72h58v1H0z M74 72h50v1H74z M0 73h58v1H0z M75 73h47v1H75z M0 74h58v1H0z M0 75h58v1H0z M0 76h58v1H0z M0 77h58v1H0z M0 78h58v1H0z M0 79h58v1H0z M0 80h58v1H0z M0 81h58v1H0z M0 82h58v1H0z M0 83h58v1H0z M0 84h58v1H0z M0 85h58v1H0z M0 86h58v1H0z M75 86h47v1H75z M0 87h58v1H0z M74 87h50v1H74z M0 88h58v1H0z M72 88h53v1H72z M0 89h58v1H0z M72 89h54v1H72z M0 90h58v1H0z M71 90h55v1H71z M0 91h58v1H0z M70 91h57v1H70z M0 92h58v1H0z M70 92h57v1H70z M0 93h58v1H0z M70 93h57v1H70z M0 94h58v1H0z M70 94h58v1H70z M0 95h58v1H0z M70 95h58v1H70z M0 96h58v1H0z M70 96h58v1H70z M0 97h58v1H0z M70 97h58v1H70z M0 98h58v1H0z M70 98h58v1H70z M0 99h58v1H0z M70 99h58v1H70z M0 100h58v1H0z M70 100h58v1H70z M0 101h58v1H0z M70 101h58v1H70z M0 102h58v1H0z M70 102h58v1H70z M0 103h58v1H0z M70 103h58v1H70z M0 104h58v1H0z M70 104h58v1H70z M0 105h58v1H0z M70 105h58v1H70z M0 106h58v1H0z M70 106h58v1H70z M0 107h58v1H0z M70 107h58v1H70z M0 108h58v1H0z M70 108h58v1H70z M0 109h58v1H0z M70 109h58v1H70z M0 110h58v1H0z M70 110h58v1H70z M0 111h58v1H0z M70 111h58v1H70z M0 112h58v1H0z M70 112h58v1H70z M0 113h58v1H0z M70 113h58v1H70z M0 114h58v1H0z M70 114h58v1H70z M0 115h58v1H0z M70 115h58v1H70z M0 116h58v1H0z M70 116h58v1H70z M0 117h58v1H0z M70 117h58v1H70z M0 118h58v1H0z M70 118h58v1H70z M1 119h57v1H1z M70 119h57v1H70z M1 120h57v1H1z M70 120h57v1H70z M1 121h57v1H1z M70 121h57v1H70z M1 122h56v1H1z M71 122h56v1H71z M2 123h55v1H2z M71 123h55v1H71z M3 124h53v1H3z M72 124h53v1H72z M4 125h51v1H4z M73 125h51v1H73z M5 126h48v1H5z M75 126h48v1H75z M9 127h41v1H9z M78 127h41v1H78z"/>
<path fill="#000000" fill-opacity="0.690" d="M51 0h1v1H51z M76 0h1v1H76z M58 9h1v1H58z M69 9h1v1H69z M58 10h1v1H58z M69 10h1v1H69z M58 11h1v1H58z M69 11h1v1H69z M58 12h1v1H58z M69 12h1v1H69z M58 13h1v1H58z M69 13h1v1H69z M58 14h1v1H58z M69 14h1v1H69z M58 15h1v1H58z M69 15h1v1H69z M58 16h1v1H58z M69 16h1v1H69z M58 17h1v1H58z M69 17h1v1H69z M58 18h1v1H58z M69 18h1v1H69z M58 19h1v1H58z M69 19h1v1H69z M58 20h1v1H58z M69 20h1v1H69z M58 21h1v1H58z M69 21h1v1H69z M58 22h1v1H58z M69 22h1v1H69z M58 23h1v1H58z M69 23h1v1H69z M58 24h1v1H58z M69 24h1v1H69z M58 25h1v1H58z M69 25h1v1H69z M58 26h1v1H58z M69 26h1v1H69z M58 27h1v1H58z M69 27h1v1H69z M58 28h1v1H58z M69 28h1v1H69z M58 29h1v1H58z M69 29h1v1H69z M58 30h1v1H58z M69 30h1v1H69z M58 31h1v1H58z M69 31h1v1H69z M58 32h1v1H58z M69 32h1v1H69z M69 33h1v1H69z M69 34h1v1H69z M0 35h1v1H0z M69 35h1v1H69z M69 36h1v1H69z M69 37h1v1H69z M69 38h1v1H69z M69 39h1v1H69z M69 40h1v1H69z M69 41h1v1H69z M9 42h40v1H9z M69 42h1v1H69z M69 43h1v1H69z M69 44h1v1H69z M69 45h1v1H69z M69 46h1v1H69z M69 47h1v1H69z M69 48h1v1H69z M69 49h1v1H69z M69 50h1v1H69z M69 51h1v1H69z M69 52h1v1H69z M9 53h40v1H9z M69 53h1v1H69z M69 54h1v1H69z M69 55h1v1H69z M69 56h1v1H69z M69 57h1v1H69z M69 58h1v1H69z M69 59h1v1H69z M0 60h1v1H0z M69 60h1v1H69z M69 61h1v1H69z M69 62h1v1H69z M58 63h1v1H58z M69 63h1v1H69z M58 64h1v1H58z M69 64h1v1H69z M58 65h1v1H58z M58 66h1v1H58z M58 67h1v1H58z M127 67h1v1H127z M58 68h1v1H58z M58 69h1v1H58z M58 70h1v1H58z M58 71h1v1H58z M58 72h1v1H58z M58 73h1v1H58z M58 74h1v1H58z M79 74h40v1H79z M58 75h1v1H58z M58 76h1v1H58z M58 77h1v1H58z M58 78h1v1H58z M58 79h1v1H58z M58 80h1v1H58z M58 81h1v1H58z M58 82h1v1H58z M58 83h1v1H58z M58 84h1v1H58z M58 85h1v1H58z M79 85h40v1H79z M58 86h1v1H58z M58 87h1v1H58z M58 88h1v1H58z M58 89h1v1H58z M58 90h1v1H58z M58 91h1v1H58z M58 92h1v1H58z M127 92h1v1H127z M58 93h1v1H58z M58 94h1v1H58z M58 95h1v1H58z M69 95h1v1H69z M58 96h1v1H58z M69 96h1v1H69z M58 97h1v1H58z M69 97h1v1H69z M58 98h1v1H58z M69 98h1v1H69z M58 99h1v1H58z M69 99h1v1H69z M58 100h1v1H58z M69 100h1v1H69z M58 101h1v1H58z M69 101h1v1H69z M58 102h1v1H58z M69 102h1v1H69z M58 103h1v1H58z M69 103h1v1H69z M58 104h1v1H58z M69 104h1v1H69z M58 105h1v1H58z M69 105h1v1H69z M58 106h1v1H58z M69 106h1v1H69z M58 107h1v1H58z M69 107h1v1H69z M58 108h1v1H58z M69 108h1v1H69z M58 109h1v1H58z M69 109h1v1H69z M58 110h1v1H58z M69 110h1v1H69z M58 111h1v1H58z M69 111h1v1H69z M58 112h1v1H58z M69 112h1v1H69z M58 113h1v1H58z M69 113h1v1H69z M58 114h1v1H58z M69 114h1v1H69z M58 115h1v1H58z M69 115h1v1H69z M58 116h1v1H58z M69 116h1v1H69z M58 117h1v1H58z M69 117h1v1H69z M58 118h1v1H58z M69 118h1v1H69z M51 127h1v1H51z M76 127h1v1H76z"/>
<path fill="#000000" fill-opacity="0.627" d="M4 1h1v1H4z M123 1h1v1H123z M55 2h1v1H55z M72 2h1v1H72z M1 4h1v1H1z M126 4h1v1H126z M58 33h1v1H58z M57 37h1v1H57z M2 39h1v1H2z M53 41h1v1H53z M49 42h1v1H49z M49 53h1v1H49z M53 54h1v1H53z M2 56h1v1H2z M57 58h1v1H57z M58 62h1v1H58z M69 65h1v1H69z M70 69h1v1H70z M125 71h1v1H125z M124 72h1v1H124z M74 73h1v1H74z M78 74h1v1H78z M78 85h1v1H78z M74 86h1v1H74z M124 87h1v1H124z M125 88h1v1H125z M70 90h1v1H70z M69 94h1v1H69z M1 123h1v1H1z M126 123h1v1H126z M55 125h1v1H55z M72 125h1v1H72z M4 126h1v1H4z M123 126h1v1H123z"/>
<path fill="#000000" fill-opacity="0.816" d="M7 0h1v1H7z M120 0h1v1H120z M3 2h1v1H3z M124 2h1v1H124z M2 3h1v1H2z M125 3h1v1H125z M57 5h1v1H57z M70 5h1v1H70z M0 7h1v1H0z M127 7h1v1H127z M5 41h1v1H5z M5 54h1v1H5z M122 73h1v1H122z M122 86h1v1H122z M0 120h1v1H0z M127 120h1v1H127z M57 122h1v1H57z M70 122h1v1H70z M2 124h1v1H2z M125 124h1v1H125z M3 125h1v1H3z M124 125h1v1H124z M7 127h1v1H7z M120 127h1v1H120z"/>
<path fill="#000000" fill-opacity="0.376" d="M52 0h1v1H52z M75 0h1v1H75z M54 1h1v1H54z M73 1h1v1H73z M58 35h1v1H58z M0 36h1v1H0z M1 38h1v1H1z M51 42h1v1H51z M51 53h1v1H51z M1 57h1v1H1z M58 60h1v1H58z M69 67h1v1H69z M127 68h1v1H127z M126 70h1v1H126z M76 74h1v1H76z M76 85h1v1H76z M126 89h1v1H126z M127 91h1v1H127z M69 92h1v1H69z M54 126h1v1H54z M73 126h1v1H73z M52 127h1v1H52z M75 127h1v1H75z"/>
<path fill="#000000" fill-opacity="0.565" d="M56 3h1v1H56z M71 3h1v1H71z M58 8h1v1H58z M69 8h1v1H69z M58 34h1v1H58z M8 42h1v1H8z M50 42h1v1H50z M8 53h1v1H8z M50 53h1v1H50z M58 61h1v1H58z M69 66h1v1H69z M77 74h1v1H77z M119 74h1v1H119z M77 85h1v1H77z M119 85h1v1H119z M69 93h1v1H69z M58 119h1v1H58z M69 119h1v1H69z M56 124h1v1H56z M71 124h1v1H71z"/>
<path fill="#000000" fill-opacity="0.125" d="M5 0h1v1H5z M122 0h1v1H122z M2 2h1v1H2z M125 2h1v1H125z M127 5h1v1H127z M57 38h1v1H57z M54 41h1v1H54z M54 54h1v1H54z M57 57h1v1H57z M70 70h1v1H70z M73 73h1v1H73z M73 86h1v1H73z M70 89h1v1H70z M0 122h1v1H0z M127 122h1v1H127z M2 125h1v1H2z M125 125h1v1H125z M5 127h1v1H5z M122 127h1v1H122z"/>
<path fill="#000000" fill-opacity="0.941" d="M53 1h1v1H53z M74 1h1v1H74z M0 8h1v1H0z M127 8h1v1H127z M56 38h1v1H56z M54 40h1v1H54z M54 55h1v1H54z M56 57h1v1H56z M1 58h1v1H1z M126 69h1v1H126z M71 70h1v1H71z M73 72h1v1H73z M73 87h1v1H73z M71 89h1v1H71z M126 90h1v1H126z M0 119h1v1H0z M53 126h1v1H53z M74 126h1v1H74z"/>
<path fill="#000000" fill-opacity="0.878" d="M8 0h1v1H8z M50 0h1v1H50z M77 0h1v1H77z M119 0h1v1H119z M0 34h1v1H0z M1 37h1v1H1z M0 61h1v1H0z M127 66h1v1H127z M127 93h1v1H127z M127 119h1v1H127z M8 127h1v1H8z M50 127h1v1H50z M77 127h1v1H77z M119 127h1v1H119z"/>
<path fill="#000000" fill-opacity="0.502" d="M6 0h1v1H6z M121 0h1v1H121z M0 6h1v1H0z M127 6h1v1H127z M3 40h1v1H3z M3 55h1v1H3z M0 121h1v1H0z M127 121h1v1H127z M6 127h1v1H6z M121 127h1v1H121z"/>
<path fill="#000000" fill-opacity="0.251" d="M57 4h1v1H57z M70 4h1v1H70z M4 41h1v1H4z M4 54h1v1H4z M72 72h1v1H72z M123 73h1v1H123z M123 86h1v1H123z M57 123h1v1H57z M70 123h1v1H70z"/>
<path fill="#000000" fill-opacity="0.188" d="M0 5h1v1H0z M58 6h1v1H58z M69 6h1v1H69z M6 42h1v1H6z M6 53h1v1H6z M121 74h1v1H121z M121 85h1v1H121z M58 121h1v1H58z M69 121h1v1H69z"/>
<path fill="#000000" fill-opacity="0.439" d="M58 7h1v1H58z M69 7h1v1H69z M7 42h1v1H7z M7 53h1v1H7z M0 59h1v1H0z M120 74h1v1H120z M120 85h1v1H120z M58 120h1v1H58z M69 120h1v1H69z"/>
<path fill="#000000" fill-opacity="0.314" d="M56 39h1v1H56z M55 40h1v1H55z M55 55h1v1H55z M56 56h1v1H56z M71 71h1v1H71z M72 87h1v1H72z M71 88h1v1H71z"/>
</svg>
