<svg xmlns="http://www.w3.org/2000/svg" viewBox="0 0 128 128" width="128" height="128" role="img">
<path fill="#000000" d="M40 4h72v1H40z M38 5h76v1H38z M36 6h80v1H36z M35 7h82v1H35z M34 8h85v1H34z M33 9h87v1H33z M32 10h88v1H32z M31 11h90v1H31z M30 12h92v1H30z M30 13h92v1H30z M29 14h94v1H29z M29 15h14v1H29z M109 15h14v1H109z M29 16h12v1H29z M111 16h13v1H111z M28 17h12v1H28z M112 17h12v1H112z M28 18h12v1H28z M112 18h12v1H112z M28 19h11v1H28z M113 19h11v1H113z M28 20h11v1H28z M113 20h11v1H113z M28 21h11v1H28z M113 21h11v1H113z M28 22h11v1H28z M113 22h11v1H113z M28 23h11v1H28z M113 23h11v1H113z M28 24h11v1H28z M113 24h11v1H113z M28 25h11v1H28z M113 25h11v1H113z M28 26h11v1H28z M113 26h11v1H113z M28 27h11v1H28z M113 27h11v1H113z M17 28h69v1H17z M113 28h11v1H113z M14 29h75v1H14z M113 29h11v1H113z M12 30h79v1H12z M113 30h11v1H113z M11 31h82v1H11z M113 31h11v1H113z M10 32h84v1H10z M113 32h11v1H113z M9 33h86v1H9z M113 33h11v1H113z M8 34h88v1H8z M113 34h11v1H113z M7 35h90v1H7z M113 35h11v1H113z M6 36h91v1H6z M113 36h11v1H113z M6 37h92v1H6z M113 37h11v1H113z M5 38h93v1H5z M113 38h11v1H113z M5 39h94v1H5z M113 39h11v1H113z M4 40h95v1H4z M113 40h11v1H113z M4 41h95v1H4z M113 41h11v1H113z M4 42h96v1H4z M113 42h11v1H113z M4 43h96v1H4z M113 43h11v1H113z M4 44h96v1H4z M113 44h11v1H113z M4 45h96v1H4z M113 45h11v1H113z M4 46h96v1H4z M113 46h11v1H113z M4 47h96v1H4z M113 47h11v1H113z M4 48h96v1H4z M113 48h11v1H113z M4 49h96v1H4z M113 49h11v1H113z M4 50h96v1H4z M113 50h11v1H113z M4 51h68v1H4z M74 51h26v1H74z M113 51h11v1H113z M4 52h65v1H4z M77 52h23v1H77z M113 52h11v1H113z M4 53h64v1H4z M78 53h22v1H78z M113 53h11v1H113z M4 54h63v1H4z M79 54h21v1H79z M113 54h11v1H113z M4 55h63v1H4z M79 55h21v1H79z M113 55h11v1H113z M4 56h62v1H4z M80 56h20v1H80z M113 56h11v1H113z M4 57h61v1H4z M80 57h20v1H80z M113 57h11v1H113z M4 58h60v1H4z M80 58h20v1H80z M113 58h11v1H113z M4 59h60v1H4z M79 59h21v1H79z M113 59h11v1H113z M4 60h59v1H4z M79 60h21v1H79z M113 60h11v1H113z M4 61h58v1H4z M79 61h21v1H79z M113 61h11v1H113z M4 62h57v1H4z M78 62h22v1H78z M113 62h11v1H113z M4 63h57v1H4z M77 63h23v1H77z M113 63h11v1H113z M4 64h56v1H4z M76 64h24v1H76z M113 64h11v1H113z M4 65h55v1H4z M76 65h24v1H76z M113 65h11v1H113z M4 66h54v1H4z M75 66h25v1H75z M113 66h11v1H113z M4 67h54v1H4z M74 67h26v1H74z M113 67h11v1H113z M4 68h53v1H4z M73 68h27v1H73z M113 68h11v1H113z M4 69h52v1H4z M73 69h27v1H73z M113 69h11v1H113z M4 70h51v1H4z M72 70h28v1H72z M113 70h11v1H113z M4 71h51v1H4z M71 71h29v1H71z M113 71h11v1H113z M4 72h50v1H4z M70 72h30v1H70z M113 72h11v1H113z M4 73h26v1H4z M37 73h16v1H37z M70 73h30v1H70z M113 73h11v1H113z M4 74h25v1H4z M38 74h14v1H38z M69 74h31v1H69z M113 74h11v1H113z M4 75h24v1H4z M39 75h13v1H39z M68 75h32v1H68z M113 75h11v1H113z M4 76h24v1H4z M40 76h11v1H40z M67 76h33v1H67z M113 76h11v1H113z M4 77h23v1H4z M41 77h9v1H41z M67 77h33v1H67z M113 77h11v1H113z M4 78h23v1H4z M42 78h7v1H42z M66 78h34v1H66z M113 78h11v1H113z M4 79h23v1H4z M42 79h7v1H42z M65 79h35v1H65z M113 79h11v1H113z M4 80h23v1H4z M43 80h5v1H43z M64 80h36v1H64z M113 80h11v1H113z M4 81h23v1H4z M44 81h3v1H44z M64 81h36v1H64z M113 81h11v1H113z M4 82h24v1H4z M45 82h1v1H45z M63 82h37v1H63z M113 82h11v1H113z M4 83h25v1H4z M62 83h38v1H62z M113 83h11v1H113z M4 84h25v1H4z M61 84h39v1H61z M113 84h11v1H113z M4 85h26v1H4z M61 85h39v1H61z M112 85h12v1H112z M4 86h27v1H4z M60 86h40v1H60z M112 86h12v1H112z M4 87h28v1H4z M59 87h41v1H59z M111 87h12v1H111z M4 88h29v1H4z M58 88h42v1H58z M108 88h15v1H108z M4 89h29v1H4z M58 89h65v1H58z M4 90h30v1H4z M57 90h65v1H57z M4 91h31v1H4z M56 91h66v1H56z M4 92h32v1H4z M55 92h66v1H55z M4 93h33v1H4z M55 93h65v1H55z M4 94h33v1H4z M54 94h65v1H54z M4 95h34v1H4z M53 95h65v1H53z M4 96h35v1H4z M52 96h65v1H52z M4 97h36v1H4z M52 97h64v1H52z M4 98h37v1H4z M51 98h63v1H51z M4 99h38v1H4z M50 99h61v1H50z M4 100h39v1H4z M48 100h52v1H48z M4 101h96v1H4z M4 102h96v1H4z M4 103h96v1H4z M4 104h96v1H4z M4 105h96v1H4z M4 106h96v1H4z M4 107h96v1H4z M4 108h96v1H4z M4 109h96v1H4z M4 110h96v1H4z M4 111h95v1H4z M5 112h94v1H5z M5 113h94v1H5z M6 114h92v1H6z M6 115h92v1H6z M7 116h90v1H7z M8 117h88v1H8z M8 118h87v1H8z M9 119h85v1H9z M11 120h82v1H11z M12 121h80v1H12z M14 122h76v1H14z M16 123h71v1H16z"/>
<path fill="#000000" fill-opacity="0.816" d="M45 3h62v1H45z M112 4h1v1H112z M37 5h1v1H37z M116 6h1v1H116z M121 11h1v1H121z M43 15h1v1H43z M123 15h1v1H123z M28 16h1v1H28z M110 16h1v1H110z M111 17h1v1H111z M124 21h1v1H124z M124 22h1v1H124z M124 23h1v1H124z M124 24h1v1H124z M124 25h1v1H124z M124 26h1v1H124z M39 27h1v1H39z M124 27h1v1H124z M16 28h1v1H16z M124 28h1v1H124z M124 29h1v1H124z M124 30h1v1H124z M10 31h1v1H10z M124 31h1v1H124z M124 32h1v1H124z M124 33h1v1H124z M124 34h1v1H124z M124 35h1v1H124z M124 36h1v1H124z M5 37h1v1H5z M124 37h1v1H124z M124 38h1v1H124z M124 39h1v1H124z M124 40h1v1H124z M124 41h1v1H124z M124 42h1v1H124z M124 43h1v1H124z M124 44h1v1H124z M3 45h1v1H3z M124 45h1v1H124z M3 46h1v1H3z M124 46h1v1H124z M3 47h1v1H3z M124 47h1v1H124z M3 48h1v1H3z M124 48h1v1H124z M3 49h1v1H3z M124 49h1v1H124z M3 50h1v1H3z M124 50h1v1H124z M3 51h1v1H3z M124 51h1v1H124z M3 52h1v1H3z M124 52h1v1H124z M3 53h1v1H3z M124 53h1v1H124z M3 54h1v1H3z M78 54h1v1H78z M124 54h1v1H124z M3 55h1v1H3z M124 55h1v1H124z M3 56h1v1H3z M124 56h1v1H124z M3 57h1v1H3z M65 57h1v1H65z M79 57h1v1H79z M124 57h1v1H124z M3 58h1v1H3z M124 58h1v1H124z M3 59h1v1H3z M124 59h1v1H124z M3 60h1v1H3z M124 60h1v1H124z M3 61h1v1H3z M62 61h1v1H62z M124 61h1v1H124z M3 62h1v1H3z M124 62h1v1H124z M3 63h1v1H3z M124 63h1v1H124z M3 64h1v1H3z M124 64h1v1H124z M3 65h1v1H3z M59 65h1v1H59z M124 65h1v1H124z M3 66h1v1H3z M124 66h1v1H124z M3 67h1v1H3z M124 67h1v1H124z M3 68h1v1H3z M124 68h1v1H124z M3 69h1v1H3z M56 69h1v1H56z M124 69h1v1H124z M3 70h1v1H3z M124 70h1v1H124z M3 71h1v1H3z M124 71h1v1H124z M3 72h1v1H3z M124 72h1v1H124z M3 73h1v1H3z M53 73h1v1H53z M124 73h1v1H124z M3 74h1v1H3z M124 74h1v1H124z M3 75h1v1H3z M124 75h1v1H124z M3 76h1v1H3z M124 76h1v1H124z M3 77h1v1H3z M50 77h1v1H50z M124 77h1v1H124z M3 78h1v1H3z M124 78h1v1H124z M3 79h1v1H3z M124 79h1v1H124z M3 80h1v1H3z M124 80h1v1H124z M3 81h1v1H3z M47 81h1v1H47z M124 81h1v1H124z M3 82h1v1H3z M3 83h1v1H3z M3 84h1v1H3z M112 84h1v1H112z M3 85h1v1H3z M30 85h1v1H30z M3 86h1v1H3z M3 87h1v1H3z M3 88h1v1H3z M100 88h1v1H100z M3 89h1v1H3z M3 90h1v1H3z M34 90h1v1H34z M122 90h1v1H122z M3 91h1v1H3z M3 92h1v1H3z M3 93h1v1H3z M120 93h1v1H120z M3 94h1v1H3z M3 95h1v1H3z M38 95h1v1H38z M3 96h1v1H3z M3 97h1v1H3z M3 98h1v1H3z M3 99h1v1H3z M49 99h1v1H49z M3 100h1v1H3z M47 100h1v1H47z M3 101h1v1H3z M3 102h1v1H3z M3 103h1v1H3z M3 104h1v1H3z M3 105h1v1H3z M3 106h1v1H3z M4 112h1v1H4z M6 116h1v1H6z M96 117h1v1H96z M93 120h1v1H93z M11 121h1v1H11z M90 122h1v1H90z M15 123h1v1H15z M21 124h62v1H21z"/>
<path fill="#000000" fill-opacity="0.376" d="M110 3h1v1H110z M119 8h1v1H119z M45 15h1v1H45z M106 15h1v1H106z M124 17h1v1H124z M27 19h1v1H27z M112 21h1v1H112z M112 22h1v1H112z M112 23h1v1H112z M112 24h1v1H112z M112 25h1v1H112z M112 26h1v1H112z M19 27h1v1H19z M112 27h1v1H112z M88 28h1v1H88z M112 28h1v1H112z M112 29h1v1H112z M112 30h1v1H112z M112 31h1v1H112z M112 32h1v1H112z M112 33h1v1H112z M112 34h1v1H112z M112 35h1v1H112z M112 36h1v1H112z M112 37h1v1H112z M112 38h1v1H112z M99 39h1v1H99z M112 39h1v1H112z M112 40h1v1H112z M112 41h1v1H112z M112 42h1v1H112z M112 43h1v1H112z M112 44h1v1H112z M112 45h1v1H112z M112 46h1v1H112z M112 47h1v1H112z M112 48h1v1H112z M112 49h1v1H112z M112 50h1v1H112z M112 51h1v1H112z M75 52h1v1H75z M112 52h1v1H112z M112 53h1v1H112z M112 54h1v1H112z M112 55h1v1H112z M112 56h1v1H112z M112 57h1v1H112z M112 58h1v1H112z M112 59h1v1H112z M78 60h1v1H78z M112 60h1v1H112z M112 61h1v1H112z M112 62h1v1H112z M61 63h1v1H61z M112 63h1v1H112z M112 64h1v1H112z M112 65h1v1H112z M112 66h1v1H112z M58 67h1v1H58z M112 67h1v1H112z M112 68h1v1H112z M112 69h1v1H112z M112 70h1v1H112z M55 71h1v1H55z M112 71h1v1H112z M112 72h1v1H112z M112 73h1v1H112z M112 74h1v1H112z M112 75h1v1H112z M112 76h1v1H112z M112 77h1v1H112z M112 78h1v1H112z M41 79h1v1H41z M112 79h1v1H112z M112 80h1v1H112z M112 81h1v1H112z M112 82h1v1H112z M111 85h1v1H111z M108 100h1v1H108z M100 108h1v1H100z M3 110h1v1H3z M8 119h1v1H8z M17 124h1v1H17z"/>
<path fill="#000000" fill-opacity="0.502" d="M42 3h1v1H42z M30 11h1v1H30z M28 15h1v1H28z M44 15h1v1H44z M27 21h1v1H27z M27 22h1v1H27z M27 23h1v1H27z M27 24h1v1H27z M27 25h1v1H27z M27 26h1v1H27z M15 28h1v1H15z M90 29h1v1H90z M11 30h1v1H11z M98 37h1v1H98z M3 42h1v1H3z M100 46h1v1H100z M100 47h1v1H100z M100 48h1v1H100z M100 49h1v1H100z M100 50h1v1H100z M100 51h1v1H100z M100 52h1v1H100z M100 53h1v1H100z M100 54h1v1H100z M100 55h1v1H100z M100 56h1v1H100z M100 57h1v1H100z M100 58h1v1H100z M100 59h1v1H100z M100 60h1v1H100z M100 61h1v1H100z M100 62h1v1H100z M100 63h1v1H100z M100 64h1v1H100z M100 65h1v1H100z M100 66h1v1H100z M100 67h1v1H100z M100 68h1v1H100z M100 69h1v1H100z M100 70h1v1H100z M100 71h1v1H100z M100 72h1v1H100z M31 73h1v1H31z M100 73h1v1H100z M100 74h1v1H100z M100 75h1v1H100z M100 76h1v1H100z M100 77h1v1H100z M100 78h1v1H100z M100 79h1v1H100z M100 80h1v1H100z M100 81h1v1H100z M28 82h1v1H28z M100 82h1v1H100z M100 83h1v1H100z M112 83h1v1H112z M100 84h1v1H100z M100 85h1v1H100z M124 85h1v1H124z M100 86h1v1H100z M100 87h1v1H100z M109 87h1v1H109z M116 97h1v1H116z M42 99h1v1H42z M100 101h1v1H100z M100 102h1v1H100z M100 103h1v1H100z M100 104h1v1H100z M100 105h1v1H100z M100 106h1v1H100z M97 116h1v1H97z M85 124h1v1H85z"/>
<path fill="#000000" fill-opacity="0.941" d="M114 5h1v1H114z M117 7h1v1H117z M120 10h1v1H120z M122 13h1v1H122z M41 16h1v1H41z M40 17h1v1H40z M39 19h1v1H39z M86 28h1v1H86z M89 29h1v1H89z M98 38h1v1H98z M99 41h1v1H99z M69 52h1v1H69z M67 54h1v1H67z M79 56h1v1H79z M64 58h1v1H64z M61 62h1v1H61z M58 66h1v1H58z M55 70h1v1H55z M30 73h1v1H30z M52 74h1v1H52z M41 78h1v1H41z M49 78h1v1H49z M27 81h1v1H27z M46 82h1v1H46z M45 83h1v1H45z M29 84h1v1H29z M111 86h1v1H111z M110 87h1v1H110z M123 87h1v1H123z M33 89h1v1H33z M37 94h1v1H37z M43 100h1v1H43z M5 114h1v1H5z M7 117h1v1H7z M10 120h1v1H10z M13 122h1v1H13z M87 123h1v1H87z"/>
<path fill="#000000" fill-opacity="0.690" d="M108 3h1v1H108z M39 4h1v1H39z M108 15h1v1H108z M112 19h1v1H112z M124 19h1v1H124z M39 21h1v1H39z M39 22h1v1H39z M39 23h1v1H39z M39 24h1v1H39z M39 25h1v1H39z M39 26h1v1H39z M87 28h1v1H87z M94 32h1v1H94z M95 33h1v1H95z M4 39h1v1H4z M99 40h1v1H99z M77 53h1v1H77z M77 62h1v1H77z M74 66h1v1H74z M71 70h1v1H71z M68 74h1v1H68z M65 78h1v1H65z M27 80h1v1H27z M62 82h1v1H62z M59 86h1v1H59z M101 88h6v1H101z M123 88h1v1H123z M56 90h1v1H56z M35 91h1v1H35z M53 94h1v1H53z M44 100h1v1H44z M3 108h1v1H3z M88 123h1v1H88z M19 124h1v1H19z"/>
<path fill="#000000" fill-opacity="0.439" d="M113 4h1v1H113z M115 5h1v1H115z M122 12h1v1H122z M123 14h1v1H123z M107 15h1v1H107z M40 18h1v1H40z M27 20h1v1H27z M112 20h1v1H112z M20 27h7v1H20z M40 27h44v1H40z M100 44h1v1H100z M100 45h1v1H100z M70 52h1v1H70z M76 63h1v1H76z M73 67h1v1H73z M70 71h1v1H70z M35 73h1v1H35z M67 75h1v1H67z M64 79h1v1H64z M61 83h1v1H61z M32 87h1v1H32z M58 87h1v1H58z M55 91h1v1H55z M36 92h1v1H36z M52 95h1v1H52z M40 97h1v1H40z M112 99h1v1H112z M101 100h7v1H101z M100 107h1v1H100z M99 112h1v1H99z M4 113h1v1H4z M5 115h1v1H5z M12 122h1v1H12z M14 123h1v1H14z"/>
<path fill="#000000" fill-opacity="0.125" d="M111 3h1v1H111z M33 7h1v1H33z M31 9h1v1H31z M28 14h1v1H28z M124 16h1v1H124z M14 28h1v1H14z M9 31h1v1H9z M7 33h1v1H7z M69 53h1v1H69z M68 54h1v1H68z M65 58h1v1H65z M62 62h1v1H62z M59 66h1v1H59z M56 70h1v1H56z M33 73h1v1H33z M53 74h1v1H53z M50 78h1v1H50z M47 82h1v1H47z M30 84h1v1H30z M34 89h1v1H34z M38 94h1v1H38z M120 94h1v1H120z M118 96h1v1H118z M115 98h1v1H115z M113 99h1v1H113z M3 111h1v1H3z M99 113h1v1H99z M98 115h1v1H98z M96 118h1v1H96z M94 120h1v1H94z M16 124h1v1H16z"/>
<path fill="#000000" fill-opacity="0.878" d="M34 7h1v1H34z M33 8h1v1H33z M32 9h1v1H32z M91 30h1v1H91z M9 32h1v1H9z M8 33h1v1H8z M7 34h1v1H7z M97 36h1v1H97z M72 51h2v1H72z M76 52h1v1H76z M68 53h1v1H68z M79 58h1v1H79z M78 61h1v1H78z M75 65h1v1H75z M72 69h1v1H72z M36 73h1v1H36z M69 73h1v1H69z M40 77h1v1H40z M66 77h1v1H66z M63 81h1v1H63z M44 82h1v1H44z M60 85h1v1H60z M57 89h1v1H57z M54 93h1v1H54z M119 94h1v1H119z M118 95h1v1H118z M51 97h1v1H51z M95 118h1v1H95z M94 119h1v1H94z"/>
<path fill="#000000" fill-opacity="0.188" d="M117 6h1v1H117z M32 8h1v1H32z M121 10h1v1H121z M29 12h1v1H29z M109 16h1v1H109z M41 17h1v1H41z M111 18h1v1H111z M85 27h1v1H85z M12 29h1v1H12z M8 32h1v1H8z M100 42h1v1H100z M75 64h1v1H75z M72 68h1v1H72z M69 72h1v1H69z M34 73h1v1H34z M28 76h1v1H28z M40 78h1v1H40z M44 83h1v1H44z M45 84h1v1H45z M110 86h1v1H110z M119 95h1v1H119z M48 99h1v1H48z M109 100h1v1H109z M100 109h1v1H100z M6 117h1v1H6z M95 119h1v1H95z M10 121h1v1H10z"/>
<path fill="#000000" fill-opacity="0.753" d="M44 3h1v1H44z M107 3h1v1H107z M31 10h1v1H31z M39 20h1v1H39z M124 20h1v1H124z M27 27h1v1H27z M3 44h1v1H3z M29 74h1v1H29z M28 75h1v1H28z M39 76h1v1H39z M27 77h1v1H27z M43 81h1v1H43z M124 82h1v1H124z M124 83h1v1H124z M107 88h1v1H107z M117 96h1v1H117z M50 98h1v1H50z M111 99h1v1H111z M100 100h1v1H100z M3 107h1v1H3z M99 111h1v1H99z M20 124h1v1H20z M83 124h1v1H83z"/>
<path fill="#000000" fill-opacity="0.314" d="M41 3h1v1H41z M38 4h1v1H38z M118 7h1v1H118z M120 9h1v1H120z M46 15h60v1H46z M42 16h1v1H42z M84 27h1v1H84z M92 30h1v1H92z M97 35h1v1H97z M4 38h1v1H4z M3 41h1v1H3z M100 43h1v1H100z M67 55h1v1H67z M78 55h1v1H78z M64 59h1v1H64z M52 75h1v1H52z M49 79h1v1H49z M46 83h1v1H46z M41 98h1v1H41z M7 118h1v1H7z M9 120h1v1H9z"/>
<path fill="#000000" fill-opacity="0.251" d="M36 5h1v1H36z M27 18h1v1H27z M18 27h1v1H18z M5 36h1v1H5z M32 73h1v1H32z M66 76h1v1H66z M63 80h1v1H63z M29 83h1v1H29z M60 84h1v1H60z M124 86h1v1H124z M33 88h1v1H33z M57 88h1v1H57z M123 89h1v1H123z M122 91h1v1H122z M54 92h1v1H54z M37 93h1v1H37z M51 96h1v1H51z M91 122h1v1H91z M89 123h1v1H89z M86 124h1v1H86z"/>
<path fill="#000000" fill-opacity="0.565" d="M109 3h1v1H109z M124 18h1v1H124z M93 31h1v1H93z M96 34h1v1H96z M66 56h1v1H66z M63 60h1v1H63z M60 64h1v1H60z M57 68h1v1H57z M54 72h1v1H54z M37 74h1v1H37z M38 75h1v1H38z M51 76h1v1H51z M27 78h1v1H27z M27 79h1v1H27z M42 80h1v1H42z M48 80h1v1H48z M45 100h1v1H45z M3 109h1v1H3z M18 124h1v1H18z"/>
<path fill="#000000" fill-opacity="0.627" d="M43 3h1v1H43z M35 6h1v1H35z M29 13h1v1H29z M13 29h1v1H13z M6 35h1v1H6z M3 43h1v1H3z M124 84h1v1H124z M31 86h1v1H31z M121 92h1v1H121z M39 96h1v1H39z M114 98h1v1H114z M46 100h1v1H46z M98 114h1v1H98z M92 121h1v1H92z M84 124h1v1H84z"/>
</svg>
